<svg id="svg" version="1.1" xmlns="http://www.w3.org/2000/svg" xmlns:xlink="http://www.w3.org/1999/xlink" width="400" height="400" viewBox="0, 0, 400,400"><g id="svgg"><path id="path0" d="" stroke="none" fill="#fcc404" fill-rule="evenodd"></path><path id="path1" d="M190.202 3.598 C 189.803 4.039,189.607 4.400,189.767 4.400 C 190.188 4.400,191.328 3.195,191.112 2.979 C 191.011 2.878,190.602 3.156,190.202 3.598 M208.800 2.967 C 208.800 3.388,210.005 4.528,210.221 4.312 C 210.322 4.211,210.044 3.802,209.602 3.402 C 209.161 3.003,208.800 2.807,208.800 2.967 M226.400 38.700 C 226.400 38.949,226.583 39.266,226.807 39.404 C 227.030 39.542,227.109 39.823,226.983 40.028 C 226.856 40.232,226.943 40.400,227.176 40.400 C 227.751 40.400,227.690 39.952,226.987 39.024 C 226.664 38.596,226.400 38.451,226.400 38.700 M232.297 50.837 C 232.570 51.187,232.700 51.566,232.587 51.680 C 232.473 51.793,232.641 52.102,232.959 52.366 C 233.437 52.763,233.500 52.705,233.325 52.036 C 233.209 51.591,232.818 50.995,232.457 50.713 C 231.885 50.267,231.864 50.283,232.297 50.837 M244.400 77.100 C 244.400 77.291,244.661 77.796,244.980 78.224 C 245.540 78.973,245.552 78.968,245.332 78.094 C 245.104 77.191,244.400 76.440,244.400 77.100 M250.548 89.900 C 250.918 90.615,251.289 91.200,251.373 91.200 C 251.738 91.200,251.056 89.579,250.495 89.113 C 249.972 88.679,249.980 88.801,250.548 89.900 M129.002 124.397 C 128.860 124.626,129.177 124.760,129.749 124.712 C 130.295 124.667,130.655 124.488,130.548 124.315 C 130.273 123.871,129.295 123.923,129.002 124.397 M269.452 124.315 C 269.345 124.488,269.705 124.667,270.251 124.712 C 270.823 124.760,271.140 124.626,270.998 124.397 C 270.705 123.923,269.727 123.871,269.452 124.315 M370.181 191.335 C 368.963 192.613,368.228 193.600,368.493 193.600 C 368.570 193.600,369.428 192.790,370.400 191.800 C 371.372 190.810,371.994 190.012,371.783 190.027 C 371.572 190.043,370.851 190.631,370.181 191.335 M30.800 193.000 C 32.111 194.353,32.400 194.577,32.400 194.242 C 32.400 193.931,30.072 191.600,29.761 191.600 C 29.586 191.600,30.054 192.230,30.800 193.000 M338.092 224.230 C 336.933 225.423,336.129 226.400,336.306 226.400 C 336.483 226.400,337.605 225.410,338.800 224.200 C 339.995 222.990,340.799 222.013,340.586 222.030 C 340.374 222.046,339.251 223.036,338.092 224.230 M62.800 225.800 C 64.920 227.947,65.200 228.183,65.200 227.827 C 65.200 227.511,61.258 223.600,60.940 223.600 C 60.768 223.600,61.605 224.590,62.800 225.800 M308.261 255.040 C 307.228 256.457,307.600 256.542,308.730 255.147 C 309.242 254.516,309.512 254.006,309.330 254.013 C 309.149 254.019,308.667 254.482,308.261 255.040 M85.043 299.033 C 84.715 299.886,84.735 300.598,85.077 300.256 C 85.383 299.951,85.686 298.400,85.440 298.400 C 85.355 298.400,85.176 298.685,85.043 299.033 M314.522 299.090 C 314.590 299.579,314.771 300.104,314.923 300.256 C 315.347 300.681,315.240 299.479,314.793 298.800 C 314.479 298.324,314.423 298.384,314.522 299.090 M83.492 308.642 C 83.331 308.802,83.205 309.308,83.212 309.767 C 83.223 310.536,83.256 310.545,83.640 309.885 C 84.088 309.116,83.973 308.160,83.492 308.642 M70.800 387.400 C 70.800 388.170,70.949 388.800,71.130 388.800 C 71.312 388.800,71.447 388.171,71.430 387.401 C 71.391 385.574,70.800 385.573,70.800 387.400 M328.560 387.400 C 328.560 388.170,328.704 388.800,328.880 388.800 C 329.056 388.800,329.200 388.170,329.200 387.400 C 329.200 386.630,329.056 386.000,328.880 386.000 C 328.704 386.000,328.560 386.630,328.560 387.400 " stroke="none" fill="#fcc40c" fill-rule="evenodd"></path><path id="path2" d="" stroke="none" fill="#100c404" fill-rule="evenodd"></path><path id="path3" d="" stroke="none" fill="#100c404" fill-rule="evenodd"></path><path id="path4" d="" stroke="none" fill="#100c404" fill-rule="evenodd"></path></g></svg>