<svg id="svg" version="1.1" xmlns="http://www.w3.org/2000/svg" xmlns:xlink="http://www.w3.org/1999/xlink" width="400" height="400" viewBox="0, 0, 400,400"><g id="svgg"><path id="path0" d="M16.000 200.000 L 16.000 384.000 200.000 384.000 L 384.000 384.000 384.000 200.000 L 384.000 16.000 200.000 16.000 L 16.000 16.000 16.000 200.000 M366.600 200.000 L 366.600 366.600 200.000 366.600 L 33.400 366.600 33.348 200.400 C 33.319 108.990,33.439 34.020,33.614 33.800 C 33.825 33.534,89.856 33.400,200.266 33.400 L 366.600 33.400 366.600 200.000 M100.099 199.900 L 100.200 299.800 116.600 299.800 L 133.000 299.800 133.102 267.038 C 133.170 245.465,133.344 234.108,133.614 233.784 C 133.914 233.422,137.280 233.237,146.311 233.086 C 161.304 232.835,165.296 232.185,174.600 228.478 C 195.265 220.245,210.932 201.598,215.162 180.200 C 215.379 179.100,215.747 177.241,215.979 176.069 C 216.986 170.977,216.383 158.065,214.827 151.400 C 209.429 128.282,189.650 108.626,165.600 102.480 C 156.245 100.089,154.833 100.000,126.222 100.000 L 99.998 100.000 100.099 199.900 M157.200 134.184 C 167.296 136.732,174.563 142.283,179.477 151.200 C 183.224 157.999,184.289 168.038,182.066 175.600 C 181.839 176.370,181.523 177.450,181.363 178.000 C 179.795 183.381,174.183 190.516,168.595 194.234 C 161.349 199.056,156.563 200.112,142.800 199.927 L 133.400 199.800 133.272 190.800 C 133.201 185.850,133.268 170.955,133.420 157.700 L 133.696 133.600 144.348 133.614 C 152.071 133.625,155.605 133.781,157.200 134.184 M264.800 150.447 C 222.651 157.183,210.596 209.868,245.800 233.482 C 249.699 236.097,254.296 238.221,261.230 240.610 C 269.151 243.340,269.409 243.469,271.556 245.799 C 278.627 253.470,274.315 265.319,263.989 266.589 C 257.547 267.382,240.682 264.175,234.320 260.948 C 233.726 260.647,233.051 260.400,232.821 260.400 C 232.278 260.400,217.892 289.150,218.136 289.747 C 218.238 289.996,219.824 290.806,221.661 291.547 C 223.497 292.289,225.360 293.042,225.800 293.221 C 226.636 293.562,230.932 294.963,233.000 295.569 C 236.115 296.482,241.946 297.752,248.200 298.879 C 256.118 300.307,268.419 299.359,276.200 296.721 C 305.747 286.706,317.239 253.962,300.136 228.522 C 293.949 219.318,286.233 214.027,272.225 209.382 C 268.317 208.086,264.710 206.626,263.702 205.933 C 255.914 200.574,256.832 188.981,265.400 184.480 C 270.192 181.963,285.590 183.877,297.723 188.498 C 299.441 189.152,300.910 189.623,300.988 189.544 C 301.066 189.465,304.366 182.867,308.322 174.881 C 316.634 158.105,316.445 160.299,309.800 157.684 C 306.366 156.333,303.751 155.480,297.400 153.640 C 287.752 150.844,271.981 149.299,264.800 150.447 " stroke="none" fill="#1abbf1" fill-rule="evenodd"></path><path id="path1" d="M276.694 35.603 C 275.715 37.864,276.837 42.835,278.485 43.533 C 278.658 43.607,278.800 44.012,278.800 44.433 C 278.800 44.855,278.980 45.200,279.200 45.200 C 279.420 45.200,279.600 45.740,279.600 46.400 C 279.600 47.060,279.780 47.600,280.000 47.600 C 280.220 47.600,280.400 48.320,280.400 49.200 C 280.400 50.080,280.220 50.800,280.000 50.800 C 279.780 50.800,279.600 51.160,279.600 51.600 C 279.600 52.040,279.420 52.400,279.200 52.400 C 278.980 52.400,278.800 52.745,278.800 53.167 C 278.800 53.588,278.575 54.015,278.300 54.114 C 277.900 54.259,277.900 54.465,278.300 55.142 C 278.575 55.608,278.800 56.341,278.800 56.771 C 278.800 57.201,278.980 57.664,279.200 57.800 C 279.420 57.936,279.600 58.476,279.600 59.000 C 279.600 59.524,279.780 60.064,280.000 60.200 C 280.220 60.336,280.400 60.887,280.400 61.424 C 280.400 61.961,280.580 62.400,280.800 62.400 C 281.020 62.400,281.200 63.105,281.200 63.967 C 281.200 64.828,281.389 65.596,281.620 65.673 C 281.852 65.751,282.046 66.929,282.053 68.303 C 282.059 69.672,282.230 70.895,282.432 71.020 C 282.635 71.145,282.800 72.036,282.800 73.000 C 282.800 73.964,282.980 74.864,283.200 75.000 C 283.420 75.136,283.600 76.036,283.600 77.000 C 283.600 77.964,283.780 78.864,284.000 79.000 C 284.220 79.136,284.400 80.227,284.400 81.424 C 284.400 82.635,284.581 83.600,284.808 83.600 C 285.366 83.600,284.920 85.372,283.757 87.779 C 283.230 88.867,282.800 89.945,282.800 90.175 C 282.800 90.405,282.125 91.945,281.300 93.596 L 279.800 96.600 279.675 106.000 C 279.606 111.170,279.381 115.571,279.175 115.780 C 278.969 115.989,278.800 117.289,278.800 118.668 C 278.800 120.434,278.563 121.597,278.000 122.600 C 277.560 123.383,277.200 124.264,277.200 124.556 C 277.200 124.848,276.676 126.148,276.035 127.444 C 273.447 132.678,272.000 135.829,272.000 136.233 C 272.000 136.468,270.920 138.793,269.600 141.400 C 268.280 144.007,267.200 146.379,267.200 146.670 C 267.200 146.962,267.040 147.200,266.845 147.200 C 266.650 147.200,266.412 147.740,266.315 148.400 L 266.139 149.600 274.189 149.600 C 278.617 149.600,282.411 149.765,282.620 149.966 C 282.829 150.168,284.080 150.431,285.400 150.551 C 289.771 150.949,291.796 151.273,292.180 151.639 C 292.389 151.837,293.143 152.000,293.856 152.000 C 294.569 152.000,295.264 152.180,295.400 152.400 C 295.536 152.620,296.256 152.800,297.000 152.800 C 297.744 152.800,298.464 152.980,298.600 153.200 C 298.736 153.420,299.366 153.600,300.000 153.600 C 300.634 153.600,301.264 153.780,301.400 154.000 C 301.536 154.220,302.076 154.400,302.600 154.400 C 303.124 154.400,303.664 154.580,303.800 154.800 C 303.936 155.020,304.399 155.200,304.829 155.200 C 305.584 155.200,305.974 155.344,307.895 156.338 C 308.387 156.592,309.152 156.800,309.595 156.800 C 310.038 156.800,310.400 156.980,310.400 157.200 C 310.400 157.420,310.850 157.600,311.400 157.600 C 311.950 157.600,312.400 157.780,312.400 158.000 C 312.400 158.220,312.642 158.400,312.939 158.400 C 313.987 158.400,316.000 159.668,316.002 160.329 C 316.005 161.085,311.180 170.926,310.706 171.133 C 310.538 171.207,310.400 171.612,310.400 172.033 C 310.400 172.455,310.220 172.800,310.000 172.800 C 309.780 172.800,309.600 173.160,309.600 173.600 C 309.600 174.040,309.420 174.400,309.200 174.400 C 308.980 174.400,308.800 174.760,308.800 175.200 C 308.800 175.640,308.620 176.000,308.400 176.000 C 308.180 176.000,308.000 176.360,308.000 176.800 C 308.000 177.240,307.820 177.600,307.600 177.600 C 307.380 177.600,307.200 177.822,307.200 178.094 C 307.200 178.366,305.931 181.156,304.381 184.294 C 301.404 190.318,300.958 190.751,298.895 189.619 C 293.313 186.556,271.137 182.774,267.843 184.322 C 267.379 184.540,266.370 184.995,265.600 185.334 C 263.952 186.058,260.400 189.401,260.400 190.227 C 260.400 190.542,260.220 190.800,260.000 190.800 C 259.780 190.800,259.600 191.340,259.600 192.000 C 259.600 192.660,259.420 193.200,259.200 193.200 C 258.978 193.200,258.800 194.259,258.800 195.576 C 258.800 196.883,258.980 198.064,259.200 198.200 C 259.420 198.336,259.600 198.799,259.600 199.229 C 259.600 200.892,263.436 205.302,265.800 206.358 C 266.460 206.652,267.313 207.052,267.695 207.247 C 268.077 207.441,268.741 207.600,269.171 207.600 C 269.601 207.600,270.064 207.780,270.200 208.000 C 270.336 208.220,270.799 208.400,271.229 208.400 C 271.659 208.400,272.323 208.574,272.705 208.786 C 273.087 208.998,275.105 209.740,277.190 210.435 C 284.451 212.854,289.992 216.366,295.694 222.164 C 297.622 224.124,299.200 225.866,299.200 226.035 C 299.200 226.204,299.473 226.616,299.806 226.949 C 300.140 227.283,301.178 228.871,302.112 230.478 C 303.767 233.323,304.327 234.434,305.247 236.700 C 305.492 237.305,305.852 238.113,306.047 238.495 C 306.241 238.877,306.400 239.541,306.400 239.971 C 306.400 240.401,306.580 240.864,306.800 241.000 C 307.020 241.136,307.200 241.856,307.200 242.600 C 307.200 243.344,307.358 244.051,307.551 244.170 C 308.798 244.940,308.809 262.877,307.563 264.180 C 307.363 264.389,307.200 264.930,307.200 265.382 C 307.200 273.980,294.563 288.836,282.200 294.770 C 280.220 295.721,278.287 296.656,277.905 296.849 C 277.523 297.042,276.936 297.200,276.600 297.200 C 276.264 297.200,275.677 297.362,275.295 297.561 C 274.645 297.899,273.820 298.135,269.800 299.134 C 263.970 300.584,253.616 300.596,246.200 299.163 C 245.100 298.950,243.210 298.588,242.000 298.358 C 239.877 297.955,238.403 297.609,235.000 296.713 C 231.867 295.888,230.591 295.497,229.905 295.151 C 229.523 294.958,228.859 294.800,228.429 294.800 C 227.999 294.800,227.536 294.620,227.400 294.400 C 227.264 294.180,226.801 294.000,226.371 294.000 C 225.941 294.000,225.277 293.841,224.895 293.647 C 224.513 293.452,223.750 293.118,223.200 292.903 C 222.650 292.689,221.418 292.128,220.462 291.657 C 219.506 291.186,218.491 290.800,218.205 290.800 C 216.747 290.800,217.515 288.839,224.494 274.754 C 232.400 258.796,232.220 259.051,234.705 260.368 C 239.773 263.053,253.601 266.000,261.135 266.000 C 274.914 266.000,279.931 249.179,267.800 243.653 C 267.140 243.353,266.287 242.948,265.905 242.753 C 265.523 242.559,264.859 242.400,264.429 242.400 C 263.999 242.400,263.536 242.220,263.400 242.000 C 263.264 241.780,262.724 241.600,262.200 241.600 C 261.676 241.600,261.136 241.420,261.000 241.200 C 260.864 240.980,260.349 240.800,259.856 240.800 C 259.363 240.800,258.789 240.651,258.580 240.470 C 258.371 240.288,257.390 239.887,256.400 239.579 C 253.301 238.615,245.370 234.486,243.926 233.085 C 243.637 232.804,242.770 232.131,242.000 231.590 C 240.184 230.315,235.270 225.397,234.016 223.600 C 233.478 222.830,232.926 222.110,232.789 222.000 C 232.269 221.583,229.309 216.944,228.769 215.700 C 228.459 214.985,228.069 214.400,227.902 214.400 C 227.736 214.400,227.600 214.051,227.600 213.624 C 227.600 213.197,227.420 212.736,227.200 212.600 C 226.980 212.464,226.798 211.868,226.795 211.276 C 226.791 210.388,226.606 210.583,225.734 212.400 C 223.849 216.330,223.600 216.916,223.600 217.420 C 223.600 218.031,221.566 220.400,221.042 220.400 C 220.834 220.400,220.340 220.693,219.944 221.050 C 219.209 221.715,216.593 223.141,211.107 225.864 C 209.406 226.709,208.011 227.626,208.007 227.901 C 208.003 228.177,207.280 228.714,206.400 229.096 C 205.520 229.477,204.800 229.926,204.800 230.094 C 204.800 230.262,204.260 230.400,203.600 230.400 C 202.940 230.400,202.400 230.580,202.400 230.800 C 202.400 231.020,202.040 231.200,201.600 231.200 C 201.160 231.200,200.800 231.380,200.800 231.600 C 200.800 231.820,200.260 232.000,199.600 232.000 C 198.940 232.000,198.399 232.135,198.397 232.300 C 198.393 232.701,196.419 233.600,195.544 233.600 C 195.066 233.600,194.366 234.607,193.323 236.793 C 192.108 239.339,191.623 239.987,190.924 239.993 C 190.442 239.997,189.936 240.180,189.800 240.400 C 189.664 240.620,189.124 240.800,188.600 240.800 C 188.076 240.800,187.547 240.962,187.425 241.159 C 187.303 241.357,185.950 241.644,184.418 241.798 C 182.826 241.958,181.434 242.318,181.168 242.639 C 180.912 242.948,180.499 243.207,180.251 243.215 C 180.003 243.223,179.162 244.528,178.382 246.115 C 177.010 248.907,176.913 249.004,175.382 249.127 C 174.512 249.196,173.629 249.421,173.420 249.627 C 173.211 249.832,171.906 250.000,170.520 250.000 C 169.107 250.000,168.000 250.176,168.000 250.400 C 168.000 250.620,167.537 250.800,166.971 250.800 C 165.659 250.800,164.800 251.659,164.800 252.971 C 164.800 253.537,164.620 254.000,164.400 254.000 C 164.180 254.000,164.000 254.295,164.000 254.656 C 164.000 255.757,162.710 256.374,160.380 256.387 C 159.159 256.394,157.989 256.570,157.780 256.779 C 157.571 256.987,156.236 257.212,154.813 257.279 L 152.227 257.400 150.713 260.360 C 149.881 261.988,149.200 263.566,149.200 263.866 C 149.200 264.463,148.463 265.881,147.741 266.672 C 147.429 267.014,145.640 267.212,142.167 267.288 L 137.052 267.400 136.026 269.487 C 135.462 270.634,134.777 271.579,134.505 271.587 C 134.123 271.597,133.986 274.870,133.905 285.900 L 133.800 300.200 116.700 300.304 L 99.600 300.409 99.594 290.104 C 99.589 281.560,99.502 279.971,99.085 280.800 C 98.535 281.894,96.256 282.416,95.469 281.629 C 95.233 281.393,94.637 281.200,94.144 281.200 C 93.651 281.200,93.136 281.020,93.000 280.800 C 92.864 280.580,92.169 280.400,91.456 280.400 C 90.743 280.400,89.964 280.204,89.725 279.965 C 89.239 279.479,89.096 279.641,87.802 282.164 C 86.901 283.920,85.614 284.922,85.315 284.100 C 85.215 283.825,84.608 283.600,83.967 283.600 C 83.325 283.600,82.800 283.420,82.800 283.200 C 82.800 282.980,82.260 282.800,81.600 282.800 C 80.940 282.800,80.399 282.665,80.397 282.500 C 80.392 282.015,78.392 281.228,77.771 281.467 C 77.457 281.587,77.200 281.972,77.200 282.323 C 77.200 282.818,77.093 282.853,76.720 282.480 C 76.456 282.216,75.921 282.000,75.532 282.000 C 75.143 282.000,74.183 281.640,73.400 281.200 C 72.617 280.760,71.657 280.400,71.268 280.400 C 70.879 280.400,70.389 280.240,70.180 280.045 C 69.450 279.363,68.000 279.115,68.003 279.673 C 68.006 280.195,69.730 281.200,70.624 281.200 C 70.879 281.200,72.238 281.778,73.644 282.485 C 75.050 283.192,76.243 283.790,76.296 283.815 C 76.349 283.839,76.169 284.339,75.896 284.926 C 75.389 286.018,74.642 286.315,74.200 285.600 C 74.064 285.380,73.620 285.200,73.214 285.200 C 72.416 285.200,69.085 283.591,68.867 283.100 C 68.281 281.783,65.637 283.408,65.613 285.100 C 65.606 285.595,65.420 286.000,65.200 286.000 C 64.980 286.000,64.800 286.270,64.800 286.600 C 64.800 287.446,64.738 287.427,60.113 285.157 C 55.696 282.989,54.854 283.013,54.813 285.305 C 54.806 285.693,54.575 286.413,54.300 286.905 C 54.025 287.397,53.780 287.850,53.755 287.911 C 53.664 288.140,51.702 287.246,51.162 286.729 C 50.173 285.783,45.280 283.503,44.832 283.780 C 44.594 283.927,44.400 284.487,44.400 285.024 C 44.400 285.561,44.248 286.000,44.061 286.000 C 43.530 286.000,41.241 284.791,40.984 284.374 C 40.856 284.167,39.982 283.647,39.041 283.219 C 38.100 282.790,37.108 282.171,36.836 281.844 C 36.278 281.171,35.200 281.412,35.200 282.209 C 35.200 282.498,34.975 282.808,34.700 282.900 C 34.305 283.032,34.177 291.782,34.093 324.484 L 33.985 365.901 186.093 366.178 C 269.752 366.330,344.500 366.398,352.200 366.328 L 366.200 366.200 366.325 304.600 C 366.394 270.720,366.327 195.975,366.176 138.500 L 365.901 34.000 321.645 34.000 L 277.389 34.000 276.694 35.603 M366.000 271.000 L 366.000 366.000 288.900 365.936 C 246.495 365.901,212.430 365.798,213.200 365.707 C 213.970 365.617,214.771 365.376,214.980 365.171 C 215.189 364.967,215.805 364.800,216.349 364.800 C 217.426 364.800,218.800 363.775,218.800 362.971 C 218.800 362.694,218.935 362.407,219.100 362.333 C 219.481 362.164,222.000 357.233,222.000 356.656 C 222.000 354.599,224.643 351.600,226.456 351.600 C 226.839 351.600,227.264 351.420,227.400 351.200 C 227.536 350.980,228.076 350.800,228.600 350.800 C 229.124 350.800,229.664 350.620,229.800 350.400 C 229.936 350.180,230.487 350.000,231.024 350.000 C 231.561 350.000,232.000 349.820,232.000 349.600 C 232.000 349.380,232.540 349.200,233.200 349.200 C 233.860 349.200,234.400 349.020,234.400 348.800 C 234.400 348.580,234.838 348.400,235.373 348.400 C 235.995 348.400,236.438 348.111,236.600 347.600 C 236.740 347.160,237.022 346.800,237.227 346.800 C 237.432 346.800,237.600 346.260,237.600 345.600 C 237.600 344.940,237.736 344.400,237.902 344.400 C 238.069 344.400,238.454 343.815,238.759 343.100 C 239.555 341.236,240.795 340.000,241.870 340.000 C 242.381 340.000,242.800 339.820,242.800 339.600 C 242.800 339.380,243.160 339.200,243.600 339.200 C 244.040 339.200,244.400 339.020,244.400 338.800 C 244.400 338.580,244.760 338.400,245.200 338.400 C 245.640 338.400,246.000 338.220,246.000 338.000 C 246.000 337.780,246.312 337.600,246.692 337.600 C 249.235 337.600,252.721 335.023,254.266 332.000 C 255.110 330.350,255.935 328.940,256.100 328.867 C 256.265 328.793,256.400 328.543,256.400 328.311 C 256.400 327.535,258.039 326.584,264.083 323.849 C 264.899 323.480,265.675 323.003,265.807 322.788 C 265.940 322.574,266.807 322.052,267.734 321.630 C 270.088 320.558,274.400 314.106,274.400 311.658 C 274.400 309.729,278.364 304.000,279.698 304.000 C 279.987 304.000,280.483 303.640,280.800 303.200 C 281.117 302.760,281.657 302.400,282.000 302.400 C 282.343 302.400,282.883 302.040,283.200 301.600 C 283.517 301.160,284.025 300.800,284.328 300.800 C 284.631 300.800,285.383 300.260,286.000 299.600 C 286.617 298.940,287.291 298.400,287.498 298.400 C 287.706 298.400,288.202 298.040,288.600 297.600 C 288.998 297.160,289.529 296.800,289.779 296.800 C 290.559 296.800,293.403 293.494,294.425 291.400 C 294.961 290.300,295.535 289.340,295.700 289.267 C 295.865 289.193,296.000 288.608,296.000 287.967 C 296.000 287.325,296.135 286.798,296.300 286.795 C 296.465 286.793,296.944 286.073,297.364 285.195 C 297.785 284.318,298.290 283.600,298.487 283.600 C 298.683 283.600,299.904 282.520,301.200 281.200 C 302.496 279.880,303.756 278.800,304.001 278.800 C 304.902 278.800,317.200 265.916,317.200 264.972 C 317.200 264.474,317.338 264.007,317.506 263.933 C 317.991 263.722,322.805 253.876,322.802 253.100 C 322.801 252.715,322.980 252.400,323.200 252.400 C 323.420 252.400,323.608 252.085,323.618 251.700 C 323.628 251.315,324.437 250.190,325.415 249.200 C 326.393 248.210,327.195 247.212,327.197 246.981 C 327.199 246.751,327.920 245.859,328.800 245.000 C 329.680 244.141,330.400 243.238,330.400 242.994 C 330.400 242.749,330.940 242.032,331.600 241.400 C 332.260 240.768,332.800 240.042,332.800 239.787 C 332.800 239.532,333.160 238.998,333.600 238.600 C 334.040 238.202,334.400 237.668,334.400 237.413 C 334.400 237.158,334.940 236.432,335.600 235.800 C 336.260 235.168,336.800 234.442,336.800 234.187 C 336.800 233.932,337.160 233.398,337.600 233.000 C 338.040 232.602,338.400 232.091,338.400 231.864 C 338.400 231.637,338.769 231.058,339.221 230.578 C 339.672 230.097,340.070 229.333,340.104 228.880 C 340.138 228.426,340.330 228.088,340.531 228.128 C 340.911 228.203,342.230 226.319,342.651 225.100 C 342.784 224.715,343.052 224.400,343.247 224.400 C 343.441 224.400,343.600 224.080,343.600 223.688 C 343.600 223.297,343.960 222.717,344.400 222.400 C 344.840 222.083,345.200 221.503,345.200 221.112 C 345.200 220.720,345.380 220.400,345.600 220.400 C 345.820 220.400,346.000 220.080,346.000 219.688 C 346.000 219.297,346.360 218.717,346.800 218.400 C 347.240 218.083,347.600 217.518,347.600 217.145 C 347.600 216.772,347.736 216.407,347.902 216.333 C 348.068 216.260,348.822 214.940,349.579 213.400 C 350.335 211.860,351.208 210.296,351.517 209.924 C 352.227 209.072,355.600 202.378,355.600 201.821 C 355.600 201.462,357.755 196.712,358.828 194.705 C 359.033 194.323,359.200 193.744,359.200 193.418 C 359.200 193.091,359.560 192.183,360.000 191.400 C 360.440 190.617,360.800 189.621,360.800 189.188 C 360.800 188.755,360.980 188.400,361.200 188.400 C 361.420 188.400,361.600 188.040,361.600 187.600 C 361.600 187.160,361.780 186.800,362.000 186.800 C 362.220 186.800,362.400 186.445,362.400 186.012 C 362.400 185.579,362.760 184.583,363.200 183.800 C 363.640 183.017,364.000 182.032,364.000 181.611 C 364.000 181.191,364.180 180.736,364.400 180.600 C 364.620 180.464,364.800 179.924,364.800 179.400 C 364.800 178.876,364.980 178.336,365.200 178.200 C 365.420 178.064,365.600 177.513,365.600 176.976 C 365.600 176.439,365.690 176.000,365.800 176.000 C 365.910 176.000,366.000 218.750,366.000 271.000 " stroke="none" fill="#322141" fill-rule="evenodd"></path><path id="path2" d="M33.614 33.800 C 33.439 34.020,33.319 108.990,33.348 200.400 L 33.400 366.600 200.000 366.600 L 366.600 366.600 366.600 200.000 L 366.600 33.400 200.266 33.400 C 89.856 33.400,33.825 33.534,33.614 33.800 M366.300 200.100 L 366.401 366.400 200.224 366.400 C 108.827 366.400,33.955 366.250,33.841 366.067 C 33.728 365.884,33.747 322.113,33.883 268.798 C 34.020 215.483,34.261 172.214,34.421 172.645 C 34.580 173.075,35.001 173.669,35.355 173.963 C 35.710 174.257,36.000 174.718,36.000 174.987 C 36.000 175.256,36.360 175.802,36.800 176.200 C 37.240 176.598,37.600 177.138,37.600 177.400 C 37.600 177.662,37.960 178.202,38.400 178.600 C 38.840 178.998,39.200 179.544,39.200 179.813 C 39.200 180.548,40.273 181.330,40.585 180.824 C 41.235 179.772,40.952 177.214,40.084 176.290 C 39.598 175.772,39.200 175.163,39.200 174.936 C 39.200 174.709,38.840 174.198,38.400 173.800 C 37.960 173.402,37.600 172.874,37.600 172.626 C 37.600 172.379,37.240 171.917,36.800 171.600 C 36.360 171.283,36.000 170.714,36.000 170.335 C 36.000 169.957,35.820 169.536,35.600 169.400 C 35.016 169.039,35.111 168.409,35.790 168.149 C 36.488 167.881,37.600 168.878,37.600 169.771 C 37.600 170.117,37.780 170.400,38.000 170.400 C 38.220 170.400,38.400 170.720,38.400 171.112 C 38.400 171.503,38.760 172.083,39.200 172.400 C 39.640 172.717,40.000 173.254,40.000 173.592 C 40.000 173.931,40.360 174.432,40.800 174.707 C 41.240 174.982,41.600 175.497,41.600 175.852 C 41.600 176.381,41.709 176.408,42.200 176.000 C 42.530 175.726,42.800 175.254,42.800 174.951 C 42.800 174.648,42.980 174.400,43.200 174.400 C 43.420 174.400,43.600 174.040,43.600 173.600 C 43.600 173.160,43.780 172.800,44.000 172.800 C 44.220 172.800,44.400 172.517,44.400 172.171 C 44.400 171.565,45.302 170.400,45.771 170.400 C 45.897 170.400,46.000 170.636,46.000 170.925 C 46.000 171.214,46.540 171.968,47.200 172.600 C 47.860 173.232,48.400 173.927,48.400 174.143 C 48.400 174.360,48.699 174.867,49.064 175.271 C 49.430 175.675,49.929 176.409,50.175 176.903 C 51.027 178.619,52.106 178.230,53.200 175.812 C 53.750 174.597,54.278 173.602,54.374 173.601 C 54.756 173.598,56.400 175.367,56.400 175.781 C 56.400 176.024,57.570 177.383,59.000 178.800 C 60.955 180.738,61.600 181.184,61.600 180.600 C 61.600 180.173,62.005 178.967,62.500 177.919 C 63.376 176.065,64.000 175.478,64.000 176.509 C 64.000 176.789,65.508 178.517,67.350 180.350 L 70.700 183.683 71.350 182.380 C 71.708 181.663,72.000 180.745,72.000 180.339 C 72.000 179.932,72.180 179.600,72.400 179.600 C 72.620 179.600,72.800 179.240,72.800 178.800 C 72.800 178.360,72.980 178.000,73.200 178.000 C 73.420 178.000,73.600 177.717,73.600 177.371 C 73.600 175.836,74.686 175.549,75.742 176.804 C 76.295 177.462,76.952 178.000,77.200 178.000 C 77.449 178.000,78.546 178.918,79.638 180.039 C 81.663 182.118,82.800 182.259,82.800 180.431 C 82.800 179.576,83.705 177.607,84.100 177.603 C 84.265 177.601,84.400 177.262,84.400 176.849 C 84.400 175.317,85.522 174.976,86.736 176.139 C 87.345 176.723,88.028 177.200,88.252 177.200 C 88.477 177.200,89.088 177.655,89.610 178.210 C 90.132 178.766,91.056 179.468,91.663 179.771 C 92.911 180.394,93.059 180.283,94.142 177.917 C 94.999 176.046,95.470 175.758,96.357 176.561 C 96.745 176.912,97.242 177.200,97.462 177.200 C 97.681 177.200,98.251 177.616,98.729 178.124 L 99.597 179.049 99.699 239.624 L 99.800 300.200 116.600 300.200 L 133.400 300.200 133.645 293.600 C 133.779 289.970,133.914 275.075,133.945 260.500 L 134.000 234.000 143.700 233.976 C 152.812 233.954,158.784 233.492,163.600 232.437 C 164.590 232.220,165.940 231.930,166.600 231.791 C 167.260 231.653,168.160 231.398,168.600 231.225 C 169.040 231.052,170.120 230.694,171.000 230.429 C 173.457 229.689,175.182 228.976,179.200 227.038 C 182.324 225.531,184.458 224.363,184.800 223.971 C 184.910 223.845,185.270 223.642,185.600 223.521 C 188.777 222.351,197.720 214.318,202.433 208.400 C 206.292 203.556,206.389 203.421,206.395 202.933 C 206.398 202.677,206.535 202.407,206.700 202.333 C 207.211 202.106,211.329 194.191,212.389 191.400 C 212.556 190.960,212.879 190.150,213.106 189.600 C 214.145 187.085,215.495 182.118,216.366 177.600 C 217.559 171.418,216.993 153.337,215.559 151.820 C 215.362 151.611,215.200 150.857,215.200 150.144 C 215.200 149.431,215.020 148.736,214.800 148.600 C 214.580 148.464,214.400 147.823,214.400 147.176 C 214.400 146.529,214.220 146.000,214.000 146.000 C 213.780 146.000,213.600 145.638,213.600 145.195 C 213.600 144.752,213.441 144.077,213.247 143.695 C 213.052 143.313,212.711 142.550,212.489 142.000 C 210.105 136.101,204.548 126.900,201.616 123.993 C 201.057 123.440,200.164 122.360,199.630 121.593 C 199.097 120.827,198.152 119.769,197.530 119.242 C 196.153 118.075,196.148 117.904,197.402 115.432 C 197.951 114.350,198.400 113.271,198.400 113.035 C 198.400 112.799,199.431 110.534,200.692 108.003 C 203.091 103.184,204.241 96.081,202.847 94.687 C 202.601 94.441,202.400 93.477,202.400 92.544 C 202.400 91.611,202.220 90.736,202.000 90.600 C 201.780 90.464,201.600 89.744,201.600 89.000 C 201.600 88.256,201.420 87.536,201.200 87.400 C 200.980 87.264,200.800 86.533,200.800 85.776 C 200.800 85.019,200.980 84.400,201.200 84.400 C 201.420 84.400,201.600 84.040,201.600 83.600 C 201.600 83.160,201.780 82.800,202.000 82.800 C 202.220 82.800,202.400 82.440,202.400 82.000 C 202.400 81.560,202.580 81.200,202.800 81.200 C 203.020 81.200,203.200 80.840,203.200 80.400 C 203.200 79.960,203.359 79.600,203.553 79.600 C 205.105 79.600,202.178 71.191,199.917 69.153 C 199.163 68.472,198.858 64.800,199.557 64.800 C 200.715 64.800,200.390 62.624,199.023 61.223 C 198.240 60.422,197.600 59.600,197.600 59.396 C 197.600 59.192,196.661 58.074,195.514 56.913 C 194.366 55.751,193.646 54.800,193.914 54.800 C 194.181 54.800,194.400 54.458,194.400 54.041 C 194.400 53.623,194.922 52.289,195.560 51.075 L 196.721 48.870 195.406 47.435 C 194.684 46.646,193.928 46.000,193.727 46.000 C 193.527 46.000,192.659 45.280,191.800 44.400 C 190.941 43.520,190.004 42.800,189.719 42.800 C 188.990 42.800,189.058 42.441,190.245 40.060 C 191.449 37.643,191.175 36.988,188.421 35.697 C 184.693 33.949,183.038 34.009,238.273 33.899 C 267.053 33.842,307.610 33.796,328.400 33.797 L 366.200 33.800 366.300 200.100 M155.323 100.418 C 185.420 104.796,208.579 124.637,214.827 151.400 C 216.383 158.065,216.986 170.977,215.979 176.069 C 215.747 177.241,215.379 179.100,215.162 180.200 C 210.932 201.598,195.265 220.245,174.600 228.478 C 165.296 232.185,161.304 232.835,146.311 233.086 C 137.280 233.237,133.914 233.422,133.614 233.784 C 133.344 234.108,133.170 245.465,133.102 267.038 L 133.000 299.800 116.600 299.800 L 100.200 299.800 100.099 199.900 L 99.998 100.000 126.222 100.000 C 142.376 100.000,153.551 100.161,155.323 100.418 M133.420 157.700 C 133.268 170.955,133.201 185.850,133.272 190.800 L 133.400 199.800 142.800 199.927 C 156.563 200.112,161.349 199.056,168.595 194.234 C 174.183 190.516,179.795 183.381,181.363 178.000 C 181.523 177.450,181.839 176.370,182.066 175.600 C 186.510 160.479,178.557 143.150,164.148 136.559 C 158.396 133.928,156.394 133.630,144.348 133.614 L 133.696 133.600 133.420 157.700 M263.400 150.053 C 262.520 150.257,260.810 150.627,259.600 150.876 C 258.390 151.125,257.229 151.480,257.020 151.664 C 256.811 151.849,256.314 152.000,255.915 152.000 C 255.516 152.000,254.877 152.164,254.495 152.365 C 254.113 152.565,252.450 153.377,250.800 154.169 C 247.743 155.636,245.559 156.825,245.200 157.219 C 245.090 157.340,244.370 157.876,243.600 158.410 C 237.083 162.932,230.793 170.934,228.044 178.200 C 227.545 179.520,226.970 180.913,226.768 181.295 C 226.566 181.677,226.400 182.406,226.400 182.915 C 226.400 183.424,226.238 184.011,226.041 184.220 C 225.368 184.932,225.098 188.191,225.098 195.600 C 225.098 203.009,225.368 206.268,226.041 206.980 C 226.238 207.189,226.400 207.776,226.400 208.285 C 226.400 208.794,226.567 209.523,226.771 209.905 C 226.975 210.287,227.249 210.941,227.380 211.357 C 227.511 211.774,227.697 212.036,227.793 211.940 C 227.889 211.844,227.602 210.603,227.155 209.183 C 217.941 179.880,240.304 150.000,271.451 150.000 C 278.568 150.000,290.724 151.705,297.400 153.640 C 303.751 155.480,306.366 156.333,309.800 157.684 C 316.445 160.299,316.634 158.105,308.322 174.881 C 299.911 191.861,301.211 189.851,299.167 189.033 C 298.250 188.667,297.407 188.460,297.293 188.574 C 297.179 188.688,297.426 188.892,297.843 189.027 C 298.259 189.162,298.993 189.460,299.473 189.689 C 299.953 189.919,300.605 190.007,300.922 189.885 C 301.653 189.605,315.963 160.772,315.705 160.098 C 315.534 159.650,314.146 158.909,311.800 158.013 C 311.052 157.727,310.074 157.329,307.900 156.426 C 305.552 155.451,301.786 154.291,296.000 152.760 C 286.323 150.200,268.984 148.760,263.400 150.053 M177.767 150.243 C 178.115 150.376,178.400 150.826,178.400 151.243 C 178.400 151.659,178.580 152.000,178.800 152.000 C 179.020 152.000,179.200 152.360,179.200 152.800 C 179.200 153.240,179.380 153.600,179.600 153.600 C 179.820 153.600,180.000 153.924,180.000 154.320 C 180.000 154.716,180.149 155.211,180.330 155.420 C 180.512 155.629,180.884 156.610,181.158 157.600 C 181.431 158.590,181.822 159.953,182.027 160.628 C 182.507 162.211,182.512 171.367,182.034 172.972 C 179.009 183.110,176.610 187.027,170.135 192.400 C 168.212 193.995,163.238 196.756,161.200 197.358 C 160.650 197.521,159.570 197.839,158.800 198.066 C 155.819 198.943,152.263 199.262,143.300 199.460 L 134.000 199.664 134.000 187.232 L 134.000 174.800 135.120 174.800 C 135.736 174.800,136.440 175.000,136.685 175.245 C 137.386 175.946,137.860 175.396,139.483 171.994 C 140.972 168.873,142.197 167.900,143.000 169.200 C 143.894 170.647,151.600 169.337,151.600 167.738 C 151.600 167.442,151.780 167.200,152.000 167.200 C 152.220 167.200,152.400 166.917,152.400 166.571 C 152.400 165.409,153.482 164.800,155.548 164.800 C 156.651 164.800,157.664 164.620,157.800 164.400 C 157.936 164.180,158.836 164.000,159.800 164.000 C 160.764 164.000,161.664 163.820,161.800 163.600 C 161.936 163.380,162.455 163.200,162.954 163.200 C 164.149 163.200,166.400 160.534,166.400 159.117 C 166.400 156.875,168.182 154.966,172.036 153.082 C 174.169 152.038,176.136 150.918,176.406 150.592 C 176.971 149.912,176.932 149.922,177.767 150.243 M268.200 183.555 C 259.543 185.158,255.508 195.831,260.799 203.135 C 262.500 205.483,264.930 206.962,269.731 208.568 C 274.461 210.150,274.553 210.171,274.200 209.600 C 274.064 209.380,273.524 209.200,273.000 209.200 C 272.476 209.200,271.936 209.020,271.800 208.800 C 271.664 208.580,271.124 208.400,270.600 208.400 C 270.076 208.400,269.536 208.220,269.400 208.000 C 269.264 207.780,268.834 207.600,268.444 207.600 C 266.179 207.600,261.284 203.843,260.156 201.238 C 259.813 200.447,259.368 199.487,259.166 199.105 C 258.420 197.691,258.748 193.337,259.769 191.105 C 263.053 183.925,268.866 182.501,284.400 185.071 C 285.170 185.198,285.690 185.184,285.556 185.041 C 284.731 184.155,271.209 182.998,268.200 183.555 M286.600 185.600 C 287.040 185.789,287.850 185.944,288.400 185.944 C 289.312 185.944,289.329 185.913,288.600 185.600 C 288.160 185.411,287.350 185.256,286.800 185.256 C 285.888 185.256,285.871 185.287,286.600 185.600 M290.000 186.400 C 290.330 186.613,290.960 186.778,291.400 186.766 L 292.200 186.744 291.400 186.400 C 290.204 185.886,289.205 185.886,290.000 186.400 M292.400 186.954 C 292.400 187.206,296.473 188.460,296.666 188.268 C 296.763 188.170,295.992 187.800,294.950 187.445 C 293.042 186.795,292.400 186.671,292.400 186.954 M275.400 210.400 C 276.501 210.873,276.892 210.873,276.600 210.400 C 276.464 210.180,275.958 210.013,275.476 210.028 C 274.631 210.055,274.629 210.069,275.400 210.400 M278.000 211.283 C 290.303 216.560,297.364 222.775,303.019 233.307 C 303.991 235.118,304.790 236.393,304.793 236.141 C 304.841 232.885,295.232 220.920,289.200 216.724 C 285.284 214.000,278.797 210.745,277.447 210.827 C 277.201 210.842,277.450 211.047,278.000 211.283 M228.008 212.699 C 227.977 214.678,233.480 222.988,237.600 227.186 C 242.558 232.237,253.299 239.224,256.061 239.194 C 256.357 239.191,254.779 238.313,252.553 237.242 C 242.587 232.449,234.927 225.222,230.024 215.984 C 228.919 213.903,228.012 212.424,228.008 212.699 M305.834 239.793 C 306.387 241.996,307.213 244.232,307.019 243.000 C 306.597 240.330,306.290 239.179,305.938 238.962 C 305.723 238.829,305.680 239.178,305.834 239.793 M257.020 239.524 C 257.229 239.702,259.200 240.430,261.400 241.142 C 267.467 243.105,268.641 243.645,270.735 245.437 C 272.844 247.243,274.245 250.174,274.825 254.000 L 275.159 256.200 275.023 253.755 C 274.798 249.740,271.960 245.034,268.768 243.384 C 266.593 242.258,256.236 238.856,257.020 239.524 M307.370 245.600 C 308.256 250.736,308.269 257.336,307.405 262.800 C 307.263 263.695,307.310 263.983,307.533 263.600 C 308.797 261.431,308.693 245.751,307.406 244.475 C 307.254 244.324,307.237 244.830,307.370 245.600 M274.177 257.500 C 273.632 260.010,270.967 263.475,268.663 264.669 C 268.037 264.994,267.621 265.355,267.738 265.472 C 268.367 266.100,272.572 262.154,273.861 259.727 C 274.421 258.673,274.952 256.400,274.639 256.400 C 274.516 256.400,274.308 256.895,274.177 257.500 M224.840 274.553 C 217.419 289.470,217.097 290.264,218.300 290.650 C 218.685 290.773,219.810 291.240,220.800 291.688 C 223.629 292.966,223.951 293.088,228.439 294.562 C 233.328 296.169,239.793 297.830,242.400 298.150 C 244.665 298.428,243.423 298.047,238.000 296.802 C 235.910 296.322,233.660 295.769,233.000 295.573 C 230.812 294.924,226.612 293.552,225.800 293.221 C 225.360 293.042,223.497 292.289,221.661 291.547 C 219.824 290.806,218.238 289.996,218.136 289.747 C 217.912 289.200,232.255 260.400,232.751 260.400 C 232.943 260.400,234.118 260.850,235.362 261.400 C 237.780 262.469,238.597 262.642,238.200 262.000 C 238.064 261.780,237.685 261.600,237.357 261.600 C 237.029 261.600,236.016 261.240,235.106 260.800 C 232.219 259.405,232.688 258.776,224.840 274.553 M239.200 262.800 C 239.988 263.309,240.915 263.309,240.600 262.800 C 240.464 262.580,239.958 262.403,239.476 262.406 C 238.764 262.411,238.712 262.485,239.200 262.800 M243.400 264.039 C 244.720 264.460,246.160 264.756,246.600 264.697 C 247.040 264.637,246.140 264.276,244.600 263.893 C 240.966 262.991,240.350 263.065,243.400 264.039 M306.454 266.415 C 305.014 272.228,300.942 279.007,295.419 284.786 C 292.580 287.755,292.256 288.197,293.915 286.836 C 297.633 283.785,302.391 277.400,304.672 272.400 C 306.014 269.457,307.266 265.637,307.126 264.909 C 307.054 264.536,306.751 265.213,306.454 266.415 M248.400 265.200 C 248.950 265.376,249.850 265.520,250.400 265.520 L 251.400 265.520 250.400 265.200 C 249.850 265.024,248.950 264.880,248.400 264.880 L 247.400 264.880 248.400 265.200 M253.000 266.023 C 253.880 266.205,255.230 266.344,256.000 266.331 L 257.400 266.308 255.800 265.977 C 254.920 265.795,253.570 265.656,252.800 265.669 L 251.400 265.692 253.000 266.023 M265.400 266.000 L 264.600 266.344 265.400 266.366 C 265.840 266.378,266.470 266.213,266.800 266.000 C 267.595 265.486,266.596 265.486,265.400 266.000 M260.300 266.689 C 261.015 266.778,262.185 266.778,262.900 266.689 C 263.615 266.601,263.030 266.528,261.600 266.528 C 260.170 266.528,259.585 266.601,260.300 266.689 M289.000 290.256 C 286.262 292.233,279.619 295.611,276.484 296.621 C 275.321 296.996,274.442 297.375,274.531 297.464 C 275.351 298.284,287.934 291.988,291.567 288.940 C 292.729 287.965,290.813 288.947,289.000 290.256 M271.800 298.000 L 271.000 298.344 271.800 298.344 C 272.240 298.344,272.960 298.189,273.400 298.000 L 274.200 297.656 273.400 297.656 C 272.960 297.656,272.240 297.811,271.800 298.000 M245.400 298.800 C 246.060 298.968,247.230 299.105,248.000 299.105 L 249.400 299.105 248.200 298.800 C 247.540 298.632,246.370 298.495,245.600 298.495 L 244.200 298.495 245.400 298.800 M268.400 298.800 L 267.400 299.120 268.400 299.132 C 268.950 299.138,269.760 298.989,270.200 298.800 L 271.000 298.456 270.200 298.468 C 269.760 298.474,268.950 298.624,268.400 298.800 M251.600 299.668 C 253.834 300.006,263.781 299.995,265.374 299.653 C 266.020 299.514,262.780 299.399,258.174 299.398 C 253.568 299.396,250.610 299.518,251.600 299.668 " stroke="none" fill="#3e4866" fill-rule="evenodd"></path><path id="path3" d="M365.600 176.976 C 365.600 177.513,365.420 178.064,365.200 178.200 C 364.980 178.336,364.800 178.876,364.800 179.400 C 364.800 179.924,364.620 180.464,364.400 180.600 C 364.180 180.736,364.000 181.191,364.000 181.611 C 364.000 182.032,363.640 183.017,363.200 183.800 C 362.760 184.583,362.400 185.579,362.400 186.012 C 362.400 186.445,362.220 186.800,362.000 186.800 C 361.780 186.800,361.600 187.160,361.600 187.600 C 361.600 188.040,361.420 188.400,361.200 188.400 C 360.980 188.400,360.800 188.755,360.800 189.188 C 360.800 189.621,360.440 190.617,360.000 191.400 C 359.560 192.183,359.200 193.091,359.200 193.418 C 359.200 193.744,359.033 194.323,358.828 194.705 C 357.755 196.712,355.600 201.462,355.600 201.821 C 355.600 202.378,352.227 209.072,351.517 209.924 C 351.208 210.296,350.335 211.860,349.579 213.400 C 348.822 214.940,348.068 216.260,347.902 216.333 C 347.736 216.407,347.600 216.772,347.600 217.145 C 347.600 217.518,347.240 218.083,346.800 218.400 C 346.360 218.717,346.000 219.297,346.000 219.688 C 346.000 220.080,345.820 220.400,345.600 220.400 C 345.380 220.400,345.200 220.720,345.200 221.112 C 345.200 221.503,344.840 222.083,344.400 222.400 C 343.960 222.717,343.600 223.297,343.600 223.688 C 343.600 224.080,343.441 224.400,343.247 224.400 C 343.052 224.400,342.784 224.715,342.651 225.100 C 342.230 226.319,340.911 228.203,340.531 228.128 C 340.330 228.088,340.138 228.426,340.104 228.880 C 340.070 229.333,339.672 230.097,339.221 230.578 C 338.769 231.058,338.400 231.637,338.400 231.864 C 338.400 232.091,338.040 232.602,337.600 233.000 C 337.160 233.398,336.800 233.932,336.800 234.187 C 336.800 234.442,336.260 235.168,335.600 235.800 C 334.940 236.432,334.400 237.158,334.400 237.413 C 334.400 237.668,334.040 238.202,333.600 238.600 C 333.160 238.998,332.800 239.532,332.800 239.787 C 332.800 240.042,332.260 240.768,331.600 241.400 C 330.940 242.032,330.400 242.749,330.400 242.994 C 330.400 243.238,329.680 244.141,328.800 245.000 C 327.920 245.859,327.199 246.751,327.197 246.981 C 327.195 247.212,326.393 248.210,325.415 249.200 C 324.437 250.190,323.628 251.315,323.618 251.700 C 323.608 252.085,323.420 252.400,323.200 252.400 C 322.980 252.400,322.801 252.715,322.802 253.100 C 322.805 253.876,317.991 263.722,317.506 263.933 C 317.338 264.007,317.200 264.474,317.200 264.972 C 317.200 265.916,304.902 278.800,304.001 278.800 C 303.756 278.800,302.496 279.880,301.200 281.200 C 299.904 282.520,298.683 283.600,298.487 283.600 C 298.290 283.600,297.785 284.318,297.364 285.195 C 296.944 286.073,296.465 286.793,296.300 286.795 C 296.135 286.798,296.000 287.325,296.000 287.967 C 296.000 288.608,295.865 289.193,295.700 289.267 C 295.535 289.340,294.961 290.300,294.425 291.400 C 293.403 293.494,290.559 296.800,289.779 296.800 C 289.529 296.800,288.998 297.160,288.600 297.600 C 288.202 298.040,287.706 298.400,287.498 298.400 C 287.291 298.400,286.617 298.940,286.000 299.600 C 285.383 300.260,284.631 300.800,284.328 300.800 C 284.025 300.800,283.517 301.160,283.200 301.600 C 282.883 302.040,282.343 302.400,282.000 302.400 C 281.657 302.400,281.117 302.760,280.800 303.200 C 280.483 303.640,279.987 304.000,279.698 304.000 C 278.364 304.000,274.400 309.729,274.400 311.658 C 274.400 314.106,270.088 320.558,267.734 321.630 C 266.807 322.052,265.940 322.574,265.807 322.788 C 265.675 323.003,264.899 323.480,264.083 323.849 C 258.039 326.584,256.400 327.535,256.400 328.311 C 256.400 328.543,256.265 328.793,256.100 328.867 C 255.935 328.940,255.110 330.350,254.266 332.000 C 252.721 335.023,249.235 337.600,246.692 337.600 C 246.312 337.600,246.000 337.780,246.000 338.000 C 246.000 338.220,245.640 338.400,245.200 338.400 C 244.760 338.400,244.400 338.580,244.400 338.800 C 244.400 339.020,244.040 339.200,243.600 339.200 C 243.160 339.200,242.800 339.380,242.800 339.600 C 242.800 339.820,242.381 340.000,241.870 340.000 C 240.795 340.000,239.555 341.236,238.759 343.100 C 238.454 343.815,238.069 344.400,237.902 344.400 C 237.736 344.400,237.600 344.940,237.600 345.600 C 237.600 346.260,237.432 346.800,237.227 346.800 C 237.022 346.800,236.740 347.160,236.600 347.600 C 236.438 348.111,235.995 348.400,235.373 348.400 C 234.838 348.400,234.400 348.580,234.400 348.800 C 234.400 349.020,233.860 349.200,233.200 349.200 C 232.540 349.200,232.000 349.380,232.000 349.600 C 232.000 349.820,231.561 350.000,231.024 350.000 C 230.487 350.000,229.936 350.180,229.800 350.400 C 229.664 350.620,229.124 350.800,228.600 350.800 C 228.076 350.800,227.536 350.980,227.400 351.200 C 227.264 351.420,226.839 351.600,226.456 351.600 C 224.643 351.600,222.000 354.599,222.000 356.656 C 222.000 357.233,219.481 362.164,219.100 362.333 C 218.935 362.407,218.800 362.694,218.800 362.971 C 218.800 363.775,217.426 364.800,216.349 364.800 C 215.805 364.800,215.189 364.967,214.980 365.171 C 214.771 365.376,213.970 365.617,213.200 365.707 C 212.430 365.798,246.495 365.901,288.900 365.936 L 366.000 366.000 366.000 271.000 C 366.000 218.750,365.910 176.000,365.800 176.000 C 365.690 176.000,365.600 176.439,365.600 176.976 " stroke="none" fill="#240424" fill-rule="evenodd"></path><path id="path4" d="M328.299 33.899 L 365.997 34.004 366.101 86.102 L 366.204 138.200 366.202 86.000 L 366.200 33.800 328.400 33.797 L 290.600 33.794 328.299 33.899 M186.471 34.515 C 186.762 34.799,187.639 35.330,188.421 35.697 C 191.175 36.988,191.449 37.643,190.245 40.060 C 189.058 42.441,188.990 42.800,189.719 42.800 C 190.004 42.800,190.941 43.520,191.800 44.400 C 192.659 45.280,193.527 46.000,193.727 46.000 C 193.928 46.000,194.684 46.646,195.406 47.435 L 196.721 48.870 195.560 51.075 C 194.922 52.289,194.400 53.623,194.400 54.041 C 194.400 54.458,194.181 54.800,193.914 54.800 C 193.646 54.800,194.366 55.751,195.514 56.913 C 196.661 58.074,197.600 59.192,197.600 59.396 C 197.600 59.600,198.240 60.422,199.023 61.223 C 200.390 62.624,200.715 64.800,199.557 64.800 C 198.858 64.800,199.163 68.472,199.917 69.153 C 202.178 71.191,205.105 79.600,203.553 79.600 C 203.359 79.600,203.200 79.960,203.200 80.400 C 203.200 80.840,203.020 81.200,202.800 81.200 C 202.580 81.200,202.400 81.560,202.400 82.000 C 202.400 82.440,202.220 82.800,202.000 82.800 C 201.780 82.800,201.600 83.160,201.600 83.600 C 201.600 84.040,201.420 84.400,201.200 84.400 C 200.980 84.400,200.800 85.019,200.800 85.776 C 200.800 86.533,200.980 87.264,201.200 87.400 C 201.420 87.536,201.600 88.256,201.600 89.000 C 201.600 89.744,201.780 90.464,202.000 90.600 C 202.220 90.736,202.400 91.611,202.400 92.544 C 202.400 93.477,202.601 94.441,202.847 94.687 C 204.241 96.081,203.091 103.184,200.692 108.003 C 199.431 110.534,198.400 112.799,198.400 113.035 C 198.400 113.271,197.951 114.350,197.402 115.432 C 196.148 117.904,196.153 118.075,197.530 119.242 C 198.152 119.769,199.097 120.827,199.630 121.593 C 200.164 122.360,201.057 123.440,201.616 123.993 C 204.548 126.900,210.105 136.101,212.489 142.000 C 212.711 142.550,213.052 143.313,213.247 143.695 C 213.441 144.077,213.600 144.752,213.600 145.195 C 213.600 145.638,213.780 146.000,214.000 146.000 C 214.220 146.000,214.400 146.529,214.400 147.176 C 214.400 147.823,214.580 148.464,214.800 148.600 C 215.020 148.736,215.200 149.431,215.200 150.144 C 215.200 150.857,215.362 151.611,215.559 151.820 C 216.417 152.728,217.308 163.733,217.030 170.000 C 216.744 176.446,215.825 181.576,213.913 187.400 C 212.462 191.820,207.571 201.946,206.700 202.333 C 206.535 202.407,206.398 202.677,206.395 202.933 C 206.389 203.421,206.292 203.556,202.433 208.400 C 197.720 214.318,188.777 222.351,185.600 223.521 C 185.270 223.642,184.910 223.845,184.800 223.971 C 184.325 224.515,177.905 227.808,175.300 228.842 C 174.805 229.039,173.995 229.368,173.500 229.574 C 173.005 229.779,171.880 230.164,171.000 230.429 C 170.120 230.694,169.040 231.052,168.600 231.225 C 168.160 231.398,167.260 231.653,166.600 231.791 C 165.940 231.930,164.590 232.220,163.600 232.437 C 158.784 233.492,152.812 233.954,143.700 233.976 L 134.000 234.000 134.000 252.800 C 134.000 273.192,134.040 273.525,136.026 269.487 L 137.052 267.400 142.167 267.288 C 145.640 267.212,147.429 267.014,147.741 266.672 C 148.463 265.881,149.200 264.463,149.200 263.866 C 149.200 263.566,149.881 261.988,150.713 260.360 L 152.227 257.400 154.813 257.279 C 156.236 257.212,157.571 256.987,157.780 256.779 C 157.989 256.570,159.159 256.394,160.380 256.387 C 162.710 256.374,164.000 255.757,164.000 254.656 C 164.000 254.295,164.180 254.000,164.400 254.000 C 164.620 254.000,164.800 253.537,164.800 252.971 C 164.800 251.659,165.659 250.800,166.971 250.800 C 167.537 250.800,168.000 250.620,168.000 250.400 C 168.000 250.176,169.107 250.000,170.520 250.000 C 171.906 250.000,173.211 249.832,173.420 249.627 C 173.629 249.421,174.512 249.196,175.382 249.127 C 176.913 249.004,177.010 248.907,178.382 246.115 C 179.162 244.528,180.003 243.223,180.251 243.215 C 180.499 243.207,180.912 242.948,181.168 242.639 C 181.434 242.318,182.826 241.958,184.418 241.798 C 185.950 241.644,187.303 241.357,187.425 241.159 C 187.547 240.962,188.076 240.800,188.600 240.800 C 189.124 240.800,189.664 240.620,189.800 240.400 C 189.936 240.180,190.442 239.997,190.924 239.993 C 191.623 239.987,192.108 239.339,193.323 236.793 C 194.366 234.607,195.066 233.600,195.544 233.600 C 196.419 233.600,198.393 232.701,198.397 232.300 C 198.399 232.135,198.940 232.000,199.600 232.000 C 200.260 232.000,200.800 231.820,200.800 231.600 C 200.800 231.380,201.160 231.200,201.600 231.200 C 202.040 231.200,202.400 231.020,202.400 230.800 C 202.400 230.580,202.940 230.400,203.600 230.400 C 204.260 230.400,204.800 230.262,204.800 230.094 C 204.800 229.926,205.520 229.477,206.400 229.096 C 207.280 228.714,208.003 228.177,208.007 227.901 C 208.011 227.626,209.406 226.709,211.107 225.864 C 216.593 223.141,219.209 221.715,219.944 221.050 C 220.340 220.693,220.834 220.400,221.042 220.400 C 221.566 220.400,223.600 218.031,223.600 217.420 C 223.600 216.916,223.849 216.330,225.734 212.400 C 226.606 210.583,226.791 210.388,226.795 211.276 C 226.798 211.868,226.980 212.464,227.200 212.600 C 227.420 212.736,227.600 213.197,227.600 213.624 C 227.600 214.051,227.736 214.400,227.902 214.400 C 228.069 214.400,228.460 214.985,228.771 215.700 C 229.365 217.060,232.800 222.379,232.800 221.937 C 232.800 221.796,232.091 220.514,231.224 219.088 C 229.809 216.758,228.709 214.539,227.513 211.600 C 227.290 211.050,226.948 210.287,226.753 209.905 C 226.559 209.523,226.400 208.794,226.400 208.285 C 226.400 207.776,226.238 207.189,226.041 206.980 C 224.710 205.571,224.710 185.629,226.041 184.220 C 226.238 184.011,226.400 183.424,226.400 182.915 C 226.400 182.406,226.566 181.677,226.768 181.295 C 226.970 180.913,227.545 179.520,228.044 178.200 C 230.793 170.934,237.083 162.932,243.600 158.410 C 244.370 157.876,245.090 157.340,245.200 157.219 C 245.559 156.825,247.743 155.636,250.800 154.169 C 252.450 153.377,254.113 152.565,254.495 152.365 C 254.877 152.164,255.516 152.000,255.915 152.000 C 256.314 152.000,256.811 151.849,257.020 151.664 C 257.229 151.480,258.480 151.107,259.800 150.836 C 265.939 149.574,266.191 149.476,266.327 148.299 C 266.396 147.694,266.621 147.200,266.827 147.200 C 267.032 147.200,267.200 146.962,267.200 146.670 C 267.200 146.379,268.280 144.007,269.600 141.400 C 270.920 138.793,272.000 136.447,272.000 136.186 C 272.000 135.926,272.524 134.652,273.165 133.356 C 275.838 127.952,277.200 124.964,277.200 124.509 C 277.200 124.242,277.560 123.383,278.000 122.600 C 278.563 121.597,278.800 120.434,278.800 118.668 C 278.800 117.289,278.969 115.989,279.175 115.780 C 279.381 115.571,279.606 111.170,279.675 106.000 L 279.800 96.600 281.300 93.596 C 282.125 91.945,282.800 90.405,282.800 90.175 C 282.800 89.945,283.230 88.867,283.757 87.779 C 284.920 85.372,285.366 83.600,284.808 83.600 C 284.581 83.600,284.400 82.635,284.400 81.424 C 284.400 80.227,284.220 79.136,284.000 79.000 C 283.780 78.864,283.600 77.964,283.600 77.000 C 283.600 76.036,283.420 75.136,283.200 75.000 C 282.980 74.864,282.800 73.964,282.800 73.000 C 282.800 72.036,282.635 71.145,282.432 71.020 C 282.230 70.895,282.059 69.672,282.053 68.303 C 282.046 66.929,281.852 65.751,281.620 65.673 C 281.389 65.596,281.200 64.828,281.200 63.967 C 281.200 63.105,281.020 62.400,280.800 62.400 C 280.580 62.400,280.400 61.961,280.400 61.424 C 280.400 60.887,280.220 60.336,280.000 60.200 C 279.780 60.064,279.600 59.524,279.600 59.000 C 279.600 58.476,279.420 57.936,279.200 57.800 C 278.980 57.664,278.800 57.201,278.800 56.771 C 278.800 56.341,278.575 55.608,278.300 55.142 C 277.900 54.465,277.900 54.259,278.300 54.114 C 278.575 54.015,278.800 53.588,278.800 53.167 C 278.800 52.745,278.980 52.400,279.200 52.400 C 279.420 52.400,279.600 52.040,279.600 51.600 C 279.600 51.160,279.780 50.800,280.000 50.800 C 280.220 50.800,280.400 50.080,280.400 49.200 C 280.400 48.320,280.220 47.600,280.000 47.600 C 279.780 47.600,279.600 47.060,279.600 46.400 C 279.600 45.740,279.420 45.200,279.200 45.200 C 278.980 45.200,278.800 44.855,278.800 44.433 C 278.800 44.012,278.658 43.607,278.485 43.533 C 276.942 42.880,275.662 37.658,276.602 35.854 C 276.931 35.224,277.200 34.549,277.200 34.354 C 277.200 34.151,257.798 34.000,231.571 34.000 C 194.345 34.000,186.040 34.095,186.471 34.515 M278.033 149.745 C 278.438 150.096,282.794 150.314,282.583 149.972 C 282.456 149.767,281.343 149.600,280.110 149.600 C 278.876 149.600,277.942 149.665,278.033 149.745 M176.406 150.592 C 176.136 150.918,174.169 152.038,172.036 153.082 C 168.182 154.966,166.400 156.875,166.400 159.117 C 166.400 160.534,164.149 163.200,162.954 163.200 C 162.455 163.200,161.936 163.380,161.800 163.600 C 161.664 163.820,160.764 164.000,159.800 164.000 C 158.836 164.000,157.936 164.180,157.800 164.400 C 157.664 164.620,156.651 164.800,155.548 164.800 C 153.482 164.800,152.400 165.409,152.400 166.571 C 152.400 166.917,152.220 167.200,152.000 167.200 C 151.780 167.200,151.600 167.442,151.600 167.738 C 151.600 169.337,143.894 170.647,143.000 169.200 C 142.197 167.900,140.972 168.873,139.483 171.994 C 137.860 175.396,137.386 175.946,136.685 175.245 C 136.440 175.000,135.736 174.800,135.120 174.800 L 134.000 174.800 134.000 187.232 L 134.000 199.664 143.300 199.460 C 152.263 199.262,155.819 198.943,158.800 198.066 C 159.570 197.839,160.650 197.521,161.200 197.358 C 163.238 196.756,168.212 193.995,170.135 192.400 C 176.610 187.027,179.009 183.110,182.034 172.972 C 182.512 171.367,182.507 162.211,182.027 160.628 C 181.822 159.953,181.431 158.590,181.158 157.600 C 180.884 156.610,180.512 155.629,180.330 155.420 C 180.149 155.211,180.000 154.716,180.000 154.320 C 180.000 153.924,179.820 153.600,179.600 153.600 C 179.380 153.600,179.200 153.240,179.200 152.800 C 179.200 152.360,179.020 152.000,178.800 152.000 C 178.580 152.000,178.400 151.659,178.400 151.243 C 178.400 150.826,178.115 150.376,177.767 150.243 C 176.932 149.922,176.971 149.912,176.406 150.592 M285.233 150.547 C 285.325 150.628,286.120 150.814,287.000 150.962 C 288.146 151.154,288.430 151.114,288.000 150.821 C 287.460 150.453,284.832 150.193,285.233 150.547 M290.033 151.344 C 290.505 151.750,292.443 151.993,292.210 151.616 C 292.068 151.387,291.483 151.200,290.910 151.200 C 290.336 151.200,289.942 151.265,290.033 151.344 M35.378 168.435 C 35.231 168.674,35.310 169.070,35.555 169.315 C 35.800 169.560,36.000 170.044,36.000 170.392 C 36.000 170.739,36.360 171.283,36.800 171.600 C 37.240 171.917,37.600 172.379,37.600 172.626 C 37.600 172.874,37.960 173.402,38.400 173.800 C 38.840 174.198,39.200 174.709,39.200 174.936 C 39.200 175.163,39.598 175.772,40.084 176.290 C 40.952 177.214,41.235 179.772,40.585 180.824 C 40.273 181.330,39.200 180.548,39.200 179.813 C 39.200 179.544,38.840 178.998,38.400 178.600 C 37.960 178.202,37.600 177.662,37.600 177.400 C 37.600 177.138,37.240 176.598,36.800 176.200 C 36.360 175.802,36.000 175.256,36.000 174.987 C 36.000 174.718,35.710 174.257,35.355 173.963 C 35.001 173.669,34.562 173.062,34.381 172.614 C 34.199 172.166,34.064 197.180,34.080 228.200 C 34.096 259.220,34.187 284.195,34.282 283.700 C 34.378 283.205,34.623 282.800,34.828 282.800 C 35.033 282.800,35.200 282.549,35.200 282.243 C 35.200 281.418,36.267 281.158,36.836 281.844 C 37.108 282.171,38.100 282.790,39.041 283.219 C 39.982 283.647,40.856 284.167,40.984 284.374 C 41.241 284.791,43.530 286.000,44.061 286.000 C 44.248 286.000,44.400 285.561,44.400 285.024 C 44.400 284.487,44.594 283.927,44.832 283.780 C 45.280 283.503,50.173 285.783,51.162 286.729 C 51.702 287.246,53.664 288.140,53.755 287.911 C 53.780 287.850,54.025 287.397,54.300 286.905 C 54.575 286.413,54.806 285.693,54.813 285.305 C 54.854 283.013,55.696 282.989,60.113 285.157 C 64.738 287.427,64.800 287.446,64.800 286.600 C 64.800 286.270,64.980 286.000,65.200 286.000 C 65.420 286.000,65.606 285.595,65.613 285.100 C 65.637 283.408,68.281 281.783,68.867 283.100 C 69.085 283.591,72.416 285.200,73.214 285.200 C 73.620 285.200,74.064 285.380,74.200 285.600 C 74.642 286.315,75.389 286.018,75.896 284.926 C 76.169 284.339,76.349 283.839,76.296 283.815 C 76.243 283.790,75.050 283.192,73.644 282.485 C 72.238 281.778,70.879 281.200,70.624 281.200 C 69.730 281.200,68.006 280.195,68.003 279.673 C 68.000 279.115,69.450 279.363,70.180 280.045 C 70.389 280.240,70.879 280.400,71.268 280.400 C 71.657 280.400,72.617 280.760,73.400 281.200 C 74.183 281.640,75.143 282.000,75.532 282.000 C 75.921 282.000,76.456 282.216,76.720 282.480 C 77.093 282.853,77.200 282.818,77.200 282.323 C 77.200 281.972,77.457 281.587,77.771 281.467 C 78.392 281.228,80.392 282.015,80.397 282.500 C 80.399 282.665,80.940 282.800,81.600 282.800 C 82.260 282.800,82.800 282.980,82.800 283.200 C 82.800 283.420,83.325 283.600,83.967 283.600 C 84.608 283.600,85.215 283.825,85.315 284.100 C 85.624 284.949,86.915 283.895,87.862 282.022 C 88.930 279.907,89.419 279.383,89.778 279.965 C 89.926 280.204,90.656 280.400,91.400 280.400 C 92.144 280.400,92.864 280.580,93.000 280.800 C 93.136 281.020,93.651 281.200,94.144 281.200 C 94.637 281.200,95.233 281.393,95.469 281.629 C 96.256 282.416,98.535 281.894,99.085 280.800 C 99.481 280.013,99.589 269.080,99.594 229.370 L 99.600 178.939 98.674 178.070 C 98.165 177.591,97.594 177.200,97.406 177.200 C 97.217 177.200,96.745 176.912,96.357 176.561 C 95.470 175.758,94.999 176.046,94.142 177.917 C 93.059 180.283,92.911 180.394,91.663 179.771 C 91.056 179.468,90.132 178.766,89.610 178.210 C 89.088 177.655,88.477 177.200,88.252 177.200 C 88.028 177.200,87.345 176.723,86.736 176.139 C 85.522 174.976,84.400 175.317,84.400 176.849 C 84.400 177.262,84.265 177.601,84.100 177.603 C 83.705 177.607,82.800 179.576,82.800 180.431 C 82.800 182.259,81.663 182.118,79.638 180.039 C 78.546 178.918,77.449 178.000,77.200 178.000 C 76.952 178.000,76.295 177.462,75.742 176.804 C 74.686 175.549,73.600 175.836,73.600 177.371 C 73.600 177.717,73.420 178.000,73.200 178.000 C 72.980 178.000,72.800 178.360,72.800 178.800 C 72.800 179.240,72.620 179.600,72.400 179.600 C 72.180 179.600,72.000 179.932,72.000 180.339 C 72.000 180.745,71.708 181.663,71.350 182.380 L 70.700 183.683 67.350 180.350 C 65.508 178.517,64.000 176.789,64.000 176.509 C 64.000 175.478,63.376 176.065,62.500 177.919 C 62.005 178.967,61.600 180.173,61.600 180.600 C 61.600 181.184,60.955 180.738,59.000 178.800 C 57.570 177.383,56.400 176.024,56.400 175.781 C 56.400 175.367,54.756 173.598,54.374 173.601 C 54.278 173.602,53.750 174.597,53.200 175.812 C 52.106 178.230,51.027 178.619,50.175 176.903 C 49.929 176.409,49.430 175.675,49.064 175.271 C 48.699 174.867,48.400 174.360,48.400 174.143 C 48.400 173.927,47.860 173.232,47.200 172.600 C 46.540 171.968,46.000 171.214,46.000 170.925 C 46.000 170.636,45.897 170.400,45.771 170.400 C 45.302 170.400,44.400 171.565,44.400 172.171 C 44.400 172.517,44.220 172.800,44.000 172.800 C 43.780 172.800,43.600 173.160,43.600 173.600 C 43.600 174.040,43.420 174.400,43.200 174.400 C 42.980 174.400,42.800 174.648,42.800 174.951 C 42.800 175.254,42.530 175.726,42.200 176.000 C 41.709 176.408,41.600 176.381,41.600 175.852 C 41.600 175.497,41.240 174.982,40.800 174.707 C 40.360 174.432,40.000 173.931,40.000 173.592 C 40.000 173.254,39.640 172.717,39.200 172.400 C 38.760 172.083,38.400 171.503,38.400 171.112 C 38.400 170.720,38.220 170.400,38.000 170.400 C 37.780 170.400,37.600 170.117,37.600 169.771 C 37.600 168.510,35.947 167.515,35.378 168.435 M270.900 183.887 C 271.505 183.978,272.495 183.978,273.100 183.887 C 273.705 183.795,273.210 183.720,272.000 183.720 C 270.790 183.720,270.295 183.795,270.900 183.887 M277.400 184.410 C 278.170 184.731,281.907 184.951,281.567 184.655 C 281.475 184.576,280.320 184.413,279.000 184.293 C 277.551 184.162,276.917 184.208,277.400 184.410 M283.200 185.205 C 283.530 185.416,284.325 185.591,284.967 185.594 C 286.514 185.602,286.177 185.371,284.200 185.068 C 283.110 184.901,282.791 184.945,283.200 185.205 M263.000 186.612 C 262.340 187.153,261.994 187.597,262.230 187.598 C 262.467 187.599,263.083 187.150,263.600 186.600 C 264.785 185.338,264.548 185.343,263.000 186.612 M287.633 186.143 C 287.725 186.221,288.430 186.401,289.200 186.542 C 290.185 186.723,290.422 186.682,290.000 186.406 C 289.458 186.050,287.237 185.803,287.633 186.143 M290.833 186.944 C 290.925 187.023,291.540 187.208,292.200 187.356 C 293.076 187.552,293.238 187.515,292.800 187.218 C 292.260 186.853,290.432 186.598,290.833 186.944 M261.230 203.072 C 262.470 204.444,264.168 205.963,264.307 205.826 C 264.448 205.686,260.759 202.000,260.478 202.000 C 260.358 202.000,260.697 202.483,261.230 203.072 M234.451 224.298 C 235.408 225.516,236.000 226.068,235.987 225.729 C 235.969 225.285,234.544 223.600,234.187 223.600 C 234.030 223.600,234.149 223.914,234.451 224.298 M240.222 230.195 C 241.059 230.961,241.819 231.514,241.910 231.423 C 242.124 231.210,239.514 228.827,239.050 228.812 C 238.857 228.805,239.385 229.428,240.222 230.195 M244.211 233.339 C 246.119 234.641,247.200 235.278,247.200 235.099 C 247.200 234.845,244.104 232.800,243.720 232.800 C 243.556 232.800,243.777 233.042,244.211 233.339 M270.000 244.925 C 270.000 244.994,270.585 245.579,271.300 246.225 L 272.600 247.400 271.425 246.100 C 270.330 244.888,270.000 244.616,270.000 244.925 M308.509 251.200 C 308.509 252.190,308.587 252.595,308.682 252.100 C 308.778 251.605,308.778 250.795,308.682 250.300 C 308.587 249.805,308.509 250.210,308.509 251.200 M308.509 257.600 C 308.509 258.590,308.587 258.995,308.682 258.500 C 308.778 258.005,308.778 257.195,308.682 256.700 C 308.587 256.205,308.509 256.610,308.509 257.600 M251.905 265.483 C 252.402 265.579,253.122 265.575,253.505 265.475 C 253.887 265.375,253.480 265.296,252.600 265.301 C 251.720 265.305,251.407 265.387,251.905 265.483 M259.113 266.295 C 260.276 266.376,262.076 266.376,263.113 266.293 C 264.151 266.211,263.200 266.145,261.000 266.146 C 258.800 266.147,257.951 266.214,259.113 266.295 M133.599 294.281 C 133.489 297.626,133.540 300.222,133.711 300.050 C 133.883 299.878,133.972 297.141,133.910 293.969 L 133.797 288.200 133.599 294.281 M247.905 299.483 C 248.402 299.579,249.122 299.575,249.505 299.475 C 249.887 299.375,249.480 299.296,248.600 299.301 C 247.720 299.305,247.407 299.387,247.905 299.483 M266.900 299.476 C 267.285 299.576,267.915 299.576,268.300 299.476 C 268.685 299.375,268.370 299.293,267.600 299.293 C 266.830 299.293,266.515 299.375,266.900 299.476 M256.500 300.294 C 257.545 300.376,259.255 300.376,260.300 300.294 C 261.345 300.212,260.490 300.144,258.400 300.144 C 256.310 300.144,255.455 300.212,256.500 300.294 M33.796 337.700 L 33.800 366.200 109.800 366.202 L 185.800 366.203 109.903 366.101 L 34.005 365.998 33.899 337.599 L 33.792 309.200 33.796 337.700 " stroke="none" fill="#393e5a" fill-rule="evenodd"></path></g></svg>