<svg id="svg" version="1.1" xmlns="http://www.w3.org/2000/svg" xmlns:xlink="http://www.w3.org/1999/xlink" width="400" height="400" viewBox="0, 0, 400,400"><g id="svgg"><path id="path0" d="M0.007 169.777 C 0.023 318.499,0.099 339.641,0.613 340.156 C 0.958 340.501,1.200 341.497,1.200 342.571 C 1.200 343.577,1.380 344.400,1.600 344.400 C 1.820 344.400,2.000 345.120,2.000 346.000 C 2.000 346.880,2.180 347.600,2.400 347.600 C 2.620 347.600,2.800 348.140,2.800 348.800 C 2.800 349.460,2.980 350.000,3.200 350.000 C 3.420 350.000,3.600 350.540,3.600 351.200 C 3.600 351.860,3.780 352.400,4.000 352.400 C 4.220 352.400,4.400 352.850,4.400 353.400 C 4.400 353.950,4.580 354.400,4.800 354.400 C 5.020 354.400,5.200 354.850,5.200 355.400 C 5.200 355.950,5.380 356.400,5.600 356.400 C 5.820 356.400,6.000 356.760,6.000 357.200 C 6.000 357.640,6.180 358.000,6.400 358.000 C 6.620 358.000,6.800 358.360,6.800 358.800 C 6.800 359.240,6.980 359.600,7.200 359.600 C 7.420 359.600,7.600 359.960,7.600 360.400 C 7.600 360.840,7.780 361.200,8.000 361.200 C 8.220 361.200,8.400 361.560,8.400 362.000 C 8.400 362.440,8.602 362.800,8.850 362.800 C 9.137 362.800,9.219 363.272,9.077 364.100 C 8.954 364.815,8.947 365.175,9.060 364.900 C 9.348 364.204,10.000 364.273,10.000 365.000 C 10.000 365.330,10.180 365.600,10.400 365.600 C 10.620 365.600,10.800 365.836,10.800 366.125 C 10.800 366.413,11.160 367.036,11.600 367.508 C 12.040 367.980,12.400 368.545,12.400 368.763 C 12.400 368.981,12.868 369.663,13.440 370.279 C 14.012 370.896,14.715 371.850,15.002 372.400 C 15.289 372.950,15.946 373.793,16.462 374.272 C 18.019 375.720,18.455 376.387,18.159 376.867 C 17.981 377.154,18.054 377.214,18.356 377.027 C 18.807 376.749,21.179 378.989,21.194 379.709 C 21.197 379.878,21.657 380.225,22.215 380.480 C 22.774 380.734,23.143 381.171,23.036 381.451 C 22.929 381.730,23.057 381.881,23.320 381.784 C 23.584 381.688,24.660 382.417,25.712 383.405 C 26.763 384.392,27.845 385.200,28.117 385.200 C 28.388 385.200,28.946 385.647,29.355 386.192 C 29.765 386.738,30.258 387.088,30.450 386.969 C 30.643 386.850,30.800 386.943,30.800 387.176 C 30.800 387.409,31.070 387.600,31.400 387.600 C 31.730 387.600,32.000 387.780,32.000 388.000 C 32.000 388.220,32.270 388.400,32.600 388.400 C 32.930 388.400,33.200 388.580,33.200 388.800 C 33.200 389.020,33.470 389.200,33.800 389.200 C 34.130 389.200,34.400 389.346,34.400 389.525 C 34.400 389.704,35.030 390.098,35.800 390.400 C 36.570 390.702,37.200 391.096,37.200 391.275 C 37.200 391.454,37.560 391.600,38.000 391.600 C 38.440 391.600,38.800 391.780,38.800 392.000 C 38.800 392.220,39.160 392.400,39.600 392.400 C 40.040 392.400,40.400 392.580,40.400 392.800 C 40.400 393.020,40.760 393.200,41.200 393.200 C 41.640 393.200,42.000 393.380,42.000 393.600 C 42.000 393.820,42.360 394.000,42.800 394.000 C 43.240 394.000,43.600 394.180,43.600 394.400 C 43.600 394.620,44.050 394.800,44.600 394.800 C 45.150 394.800,45.600 394.980,45.600 395.200 C 45.600 395.420,46.050 395.600,46.600 395.600 C 47.150 395.600,47.600 395.780,47.600 396.000 C 47.600 396.220,48.140 396.400,48.800 396.400 C 49.460 396.400,50.000 396.580,50.000 396.800 C 50.000 397.020,50.630 397.200,51.400 397.200 C 52.170 397.200,52.800 397.380,52.800 397.600 C 52.800 397.820,53.430 398.000,54.200 398.000 C 54.970 398.000,55.600 398.180,55.600 398.400 C 55.600 398.620,56.485 398.800,57.567 398.800 C 58.784 398.800,59.597 398.990,59.700 399.300 C 59.833 399.699,94.312 399.822,229.933 399.907 L 400.000 400.015 400.000 234.470 C 400.000 76.317,399.915 58.958,399.139 59.438 C 398.953 59.553,398.800 58.906,398.800 58.000 C 398.800 56.813,398.940 56.424,399.300 56.607 C 399.575 56.747,399.395 56.503,398.900 56.066 C 398.281 55.520,398.000 54.823,398.000 53.836 C 398.000 53.046,397.820 52.400,397.600 52.400 C 397.380 52.400,397.200 51.871,397.200 51.224 C 397.200 50.577,397.003 49.925,396.762 49.777 C 396.522 49.628,396.407 49.077,396.507 48.553 C 396.627 47.926,396.503 47.600,396.145 47.600 C 395.806 47.600,395.600 47.146,395.600 46.400 C 395.600 45.740,395.420 45.200,395.200 45.200 C 394.980 45.200,394.800 44.840,394.800 44.400 C 394.800 43.960,394.620 43.600,394.400 43.600 C 394.180 43.600,394.000 43.240,394.000 42.800 C 394.000 42.360,393.820 42.000,393.600 42.000 C 393.380 42.000,393.200 41.550,393.200 41.000 C 393.200 40.450,393.020 40.000,392.800 40.000 C 392.580 40.000,392.400 39.640,392.400 39.200 C 392.400 38.760,392.220 38.400,392.000 38.400 C 391.780 38.400,391.600 38.130,391.600 37.800 C 391.600 37.470,391.398 37.200,391.150 37.200 C 390.863 37.200,390.781 36.728,390.923 35.900 C 391.046 35.185,391.053 34.825,390.940 35.100 C 390.697 35.689,390.000 35.773,390.000 35.213 C 390.000 34.768,386.931 29.935,386.444 29.614 C 386.266 29.496,385.651 28.680,385.078 27.800 C 384.506 26.920,382.867 24.954,381.438 23.431 C 380.008 21.908,378.948 20.485,379.081 20.269 C 379.214 20.053,379.139 19.990,378.913 20.130 C 378.320 20.497,376.664 18.944,377.025 18.359 C 377.219 18.045,377.155 17.981,376.842 18.174 C 376.548 18.356,375.595 17.757,374.397 16.636 C 373.318 15.626,372.292 14.800,372.117 14.800 C 371.943 14.799,371.266 14.340,370.614 13.779 C 369.961 13.218,368.835 12.392,368.111 11.945 C 367.387 11.498,366.914 10.939,367.059 10.704 C 367.212 10.457,367.136 10.393,366.878 10.552 C 366.512 10.778,365.631 10.466,364.412 9.678 C 364.308 9.611,364.488 9.387,364.812 9.179 C 365.213 8.921,364.988 8.880,364.100 9.051 C 363.256 9.213,362.800 9.142,362.800 8.850 C 362.800 8.602,362.530 8.400,362.200 8.400 C 361.870 8.400,361.600 8.220,361.600 8.000 C 361.600 7.780,361.240 7.600,360.800 7.600 C 360.360 7.600,360.000 7.420,360.000 7.200 C 360.000 6.980,359.640 6.800,359.200 6.800 C 358.760 6.800,358.400 6.620,358.400 6.400 C 358.400 6.180,357.950 6.000,357.400 6.000 C 356.850 6.000,356.400 5.820,356.400 5.600 C 356.400 5.380,356.040 5.200,355.600 5.200 C 355.160 5.200,354.800 5.020,354.800 4.800 C 354.800 4.580,354.260 4.400,353.600 4.400 C 352.940 4.400,352.400 4.220,352.400 4.000 C 352.400 3.780,351.860 3.600,351.200 3.600 C 350.470 3.600,350.000 3.392,350.000 3.069 C 350.000 2.707,349.619 2.594,348.800 2.715 C 348.080 2.820,347.600 2.713,347.600 2.445 C 347.600 2.200,346.954 2.000,346.164 2.000 C 345.177 2.000,344.480 1.719,343.934 1.100 C 343.497 0.605,343.253 0.425,343.393 0.700 C 343.575 1.059,343.198 1.200,342.057 1.200 C 341.140 1.200,340.396 0.988,340.300 0.700 C 340.167 0.301,305.687 0.178,170.060 0.093 L -0.013 -0.015 0.007 169.777 M339.330 18.916 C 347.722 21.020,355.390 24.656,361.746 29.543 C 362.855 30.396,369.604 37.145,370.457 38.254 C 375.395 44.676,379.054 52.455,381.060 60.800 C 381.748 63.661,381.786 71.187,381.894 222.903 L 382.007 382.007 222.903 381.894 C 71.187 381.786,63.661 381.748,60.800 381.060 C 48.267 378.047,36.475 370.760,29.543 361.746 C 24.696 355.443,21.003 347.653,18.916 339.330 C 18.276 336.780,18.223 326.077,18.112 177.296 L 17.992 17.992 177.296 18.112 C 326.077 18.223,336.780 18.276,339.330 18.916 M132.080 131.680 C 131.816 131.944,131.600 132.991,131.600 134.007 C 131.600 137.475,128.774 148.026,126.405 153.400 C 126.212 153.840,125.824 154.920,125.545 155.800 C 125.265 156.680,124.893 157.571,124.718 157.780 C 124.543 157.989,124.400 158.486,124.400 158.885 C 124.400 159.284,124.229 159.923,124.019 160.305 C 123.809 160.687,123.257 162.170,122.793 163.600 C 122.328 165.030,121.787 166.560,121.591 167.000 C 121.394 167.440,120.782 169.150,120.231 170.800 C 119.103 174.176,115.101 185.669,112.013 194.400 C 110.884 197.590,109.694 201.010,109.368 202.000 C 109.042 202.990,108.600 204.113,108.387 204.495 C 108.174 204.877,108.000 205.464,108.000 205.800 C 108.000 206.136,107.829 206.723,107.619 207.105 C 107.409 207.487,106.857 208.970,106.393 210.400 C 105.928 211.830,105.387 213.360,105.191 213.800 C 104.994 214.240,104.383 215.950,103.833 217.600 C 103.282 219.250,101.728 223.750,100.379 227.600 C 99.030 231.450,97.033 237.210,95.941 240.400 C 94.849 243.590,93.797 246.560,93.604 247.000 C 93.411 247.440,93.024 248.520,92.745 249.400 C 92.465 250.280,92.093 251.171,91.918 251.380 C 91.743 251.589,91.600 252.138,91.600 252.600 C 91.600 253.062,91.452 253.611,91.272 253.820 C 91.092 254.029,90.518 255.550,89.998 257.200 C 89.477 258.850,88.934 260.380,88.791 260.600 C 88.207 261.499,87.136 265.657,87.348 266.208 C 87.594 266.849,110.145 267.122,111.000 266.494 C 111.645 266.020,112.400 264.475,112.400 263.629 C 112.400 263.199,112.580 262.736,112.800 262.600 C 113.020 262.464,113.200 262.001,113.200 261.571 C 113.200 261.141,113.361 260.477,113.558 260.095 C 113.755 259.713,116.122 252.694,118.817 244.497 L 123.718 229.594 147.741 229.697 L 171.763 229.800 172.815 232.900 C 173.393 234.605,173.986 236.120,174.133 236.266 C 174.280 236.413,174.400 236.866,174.400 237.272 C 174.400 237.678,174.571 238.323,174.781 238.705 C 174.991 239.087,175.543 240.570,176.007 242.000 C 176.472 243.430,177.013 244.960,177.209 245.400 C 177.406 245.840,178.013 247.550,178.559 249.200 C 181.929 259.382,184.147 265.490,184.695 266.100 C 185.508 267.005,210.763 267.198,210.846 266.300 C 210.935 265.336,210.763 264.193,210.409 263.400 C 210.213 262.960,209.669 261.430,209.200 260.000 C 208.731 258.570,208.197 257.040,208.014 256.600 C 207.831 256.160,207.464 255.170,207.200 254.400 C 206.936 253.630,206.566 252.640,206.380 252.200 C 206.193 251.760,205.773 250.590,205.447 249.600 C 205.121 248.610,203.480 243.930,201.800 239.200 C 200.120 234.470,198.479 229.790,198.153 228.800 C 197.827 227.810,197.401 226.640,197.206 226.200 C 197.012 225.760,196.469 224.230,196.000 222.800 C 195.531 221.370,194.997 219.840,194.814 219.400 C 194.631 218.960,194.264 217.970,194.000 217.200 C 193.736 216.430,193.369 215.440,193.186 215.000 C 193.003 214.560,192.469 213.030,192.000 211.600 C 191.531 210.170,190.988 208.640,190.794 208.200 C 190.599 207.760,190.171 206.590,189.842 205.600 C 189.513 204.610,188.495 201.730,187.581 199.200 C 186.666 196.670,185.324 192.890,184.598 190.800 C 181.244 181.136,180.327 178.544,180.002 177.800 C 179.810 177.360,179.424 176.280,179.145 175.400 C 178.865 174.520,178.493 173.629,178.318 173.420 C 178.143 173.211,178.000 172.662,178.000 172.200 C 178.000 171.738,177.857 171.189,177.682 170.980 C 177.507 170.771,177.135 169.880,176.855 169.000 C 176.576 168.120,176.191 167.040,176.000 166.600 C 175.809 166.160,175.269 164.630,174.800 163.200 C 174.331 161.770,173.788 160.240,173.594 159.800 C 173.399 159.360,172.970 158.190,172.640 157.200 C 172.309 156.210,171.235 153.150,170.252 150.400 C 169.269 147.650,167.532 142.790,166.391 139.600 C 165.251 136.410,164.223 133.440,164.108 133.000 C 163.642 131.225,163.417 131.200,147.604 131.200 C 136.436 131.200,132.436 131.324,132.080 131.680 M148.473 154.231 C 148.843 155.314,149.524 157.460,149.985 159.000 C 151.761 164.926,154.888 174.631,155.236 175.295 C 155.436 175.677,155.600 176.341,155.600 176.771 C 155.600 177.201,155.780 177.664,156.000 177.800 C 156.220 177.936,156.400 178.399,156.400 178.829 C 156.400 179.259,156.564 179.923,156.765 180.305 C 156.966 180.687,158.577 185.500,160.344 191.000 C 162.111 196.500,164.107 202.710,164.779 204.800 C 165.450 206.890,166.000 208.915,166.000 209.300 C 166.000 210.093,129.905 210.417,129.417 209.628 C 129.291 209.423,129.621 207.938,130.150 206.328 C 130.680 204.717,132.493 199.080,134.179 193.800 C 135.865 188.520,137.398 183.750,137.587 183.200 C 137.775 182.650,138.684 179.770,139.607 176.800 C 140.529 173.830,141.420 171.040,141.587 170.600 C 141.891 169.795,142.269 168.523,143.192 165.200 C 143.466 164.210,143.830 163.040,144.000 162.600 C 144.170 162.160,144.528 160.990,144.796 160.000 C 145.064 159.010,145.445 157.787,145.642 157.281 C 145.839 156.776,146.000 155.931,146.000 155.405 C 146.000 154.878,146.180 154.336,146.400 154.200 C 146.620 154.064,146.800 153.498,146.800 152.943 C 146.800 151.331,147.725 152.044,148.473 154.231 M264.000 166.236 C 245.036 168.466,230.064 181.822,224.805 201.200 C 224.537 202.190,224.155 203.413,223.958 203.919 C 223.761 204.424,223.600 205.381,223.600 206.045 C 223.600 206.709,223.412 207.604,223.183 208.032 C 222.637 209.052,222.643 225.565,223.190 228.100 C 223.416 229.145,223.797 230.945,224.037 232.100 C 226.229 242.627,232.737 253.735,239.800 259.002 C 240.680 259.658,241.490 260.286,241.600 260.398 C 242.628 261.437,249.173 264.554,252.882 265.771 C 267.660 270.619,287.974 269.665,302.886 263.423 C 305.108 262.493,305.200 262.080,305.200 253.026 L 305.200 244.800 304.280 244.800 C 303.774 244.800,303.189 244.951,302.980 245.135 C 298.462 249.122,276.587 250.967,266.950 248.174 C 256.174 245.052,247.953 234.382,248.477 224.200 L 248.600 221.800 278.800 221.551 C 311.718 221.279,311.294 221.305,312.047 219.487 C 312.771 217.738,312.793 201.336,312.075 198.600 C 311.786 197.500,311.360 195.880,311.129 195.000 C 308.129 183.582,295.241 168.800,288.284 168.800 C 287.996 168.800,287.589 168.649,287.380 168.464 C 287.171 168.280,285.920 167.900,284.600 167.621 C 283.280 167.342,281.660 166.940,281.000 166.727 C 279.761 166.328,266.481 165.944,264.000 166.236 M276.782 183.625 C 281.967 185.328,287.600 191.371,287.600 195.233 C 287.600 195.629,287.759 196.051,287.952 196.171 C 288.380 196.435,289.036 202.056,288.865 203.994 C 288.642 206.525,289.716 206.400,268.151 206.400 L 248.400 206.400 248.414 204.900 C 248.555 190.095,263.149 179.150,276.782 183.625 " stroke="none" fill="#d393fb" fill-rule="evenodd"></path><path id="path1" d="M18.801 176.300 C 18.801 341.929,18.731 334.386,20.348 341.800 C 20.794 343.844,21.878 346.959,22.845 348.975 C 23.260 349.841,23.600 350.786,23.600 351.075 C 23.600 351.364,23.735 351.601,23.900 351.601 C 24.065 351.602,24.650 352.592,25.200 353.800 C 25.750 355.008,26.335 355.998,26.500 355.999 C 26.665 355.999,26.800 356.236,26.800 356.525 C 26.800 356.813,27.120 357.398,27.511 357.825 C 27.902 358.251,28.660 359.230,29.196 360.000 C 31.382 363.144,37.968 369.623,40.500 371.121 C 41.105 371.480,41.600 371.914,41.600 372.086 C 41.600 372.259,41.836 372.400,42.125 372.400 C 42.413 372.400,42.998 372.715,43.425 373.101 C 43.851 373.486,45.100 374.251,46.200 374.801 C 47.300 375.350,48.260 375.935,48.333 376.100 C 48.407 376.265,48.688 376.400,48.958 376.400 C 49.229 376.400,50.195 376.760,51.106 377.200 C 52.016 377.640,53.004 378.000,53.301 378.000 C 53.597 378.000,54.011 378.157,54.220 378.349 C 54.703 378.793,60.598 380.266,64.000 380.792 C 65.710 381.056,120.471 381.195,223.900 381.197 L 381.200 381.200 381.197 223.900 C 381.195 120.471,381.056 65.710,380.792 64.000 C 380.266 60.598,378.793 54.703,378.349 54.220 C 378.157 54.011,378.000 53.597,378.000 53.301 C 378.000 53.004,377.640 52.016,377.200 51.106 C 376.760 50.195,376.400 49.214,376.400 48.925 C 376.400 48.636,376.265 48.399,376.100 48.399 C 375.935 48.398,375.350 47.408,374.800 46.200 C 374.250 44.992,373.687 44.002,373.549 44.001 C 373.410 44.001,373.073 43.460,372.800 42.800 C 372.527 42.140,372.184 41.600,372.038 41.600 C 371.892 41.600,371.480 41.105,371.121 40.500 C 369.623 37.968,363.144 31.382,360.000 29.196 C 359.230 28.660,358.251 27.902,357.825 27.511 C 357.398 27.120,356.813 26.800,356.525 26.800 C 356.236 26.800,355.999 26.665,355.999 26.500 C 355.998 26.335,355.008 25.750,353.800 25.200 C 352.592 24.650,351.602 24.065,351.601 23.900 C 351.601 23.735,351.364 23.600,351.075 23.600 C 350.786 23.600,349.841 23.260,348.975 22.845 C 346.959 21.878,343.844 20.794,341.800 20.348 C 334.386 18.731,341.929 18.801,176.300 18.801 L 18.800 18.800 18.801 176.300 M163.568 131.100 C 164.419 131.795,165.342 134.145,169.260 145.600 C 170.352 148.790,171.403 151.760,171.596 152.200 C 171.789 152.640,172.176 153.720,172.455 154.600 C 172.735 155.480,173.107 156.371,173.282 156.580 C 173.457 156.789,173.600 157.286,173.600 157.685 C 173.600 158.084,173.780 158.768,174.000 159.205 C 174.220 159.642,174.580 160.358,174.800 160.795 C 175.020 161.232,175.200 161.941,175.200 162.371 C 175.200 162.801,175.380 163.264,175.600 163.400 C 175.820 163.536,176.000 163.999,176.000 164.429 C 176.000 164.859,176.180 165.568,176.400 166.005 C 176.620 166.442,176.980 167.158,177.200 167.595 C 177.420 168.032,177.600 168.664,177.600 169.000 C 177.600 169.336,177.780 169.968,178.000 170.405 C 178.220 170.842,178.580 171.558,178.800 171.995 C 179.020 172.432,179.200 173.116,179.200 173.515 C 179.200 173.914,179.343 174.411,179.518 174.620 C 179.693 174.829,180.065 175.720,180.345 176.600 C 180.624 177.480,181.012 178.560,181.206 179.000 C 181.401 179.440,181.829 180.610,182.158 181.600 C 183.215 184.778,186.282 193.484,186.473 193.848 C 186.575 194.042,186.902 195.010,187.199 196.000 C 187.496 196.990,187.888 197.971,188.070 198.180 C 188.251 198.389,188.400 198.963,188.400 199.456 C 188.400 199.949,188.544 200.442,188.721 200.551 C 188.897 200.660,189.293 201.672,189.600 202.800 C 189.907 203.928,190.303 204.940,190.479 205.049 C 190.656 205.158,190.800 205.599,190.800 206.029 C 190.800 206.459,190.980 207.168,191.200 207.605 C 191.420 208.042,191.780 208.758,192.000 209.195 C 192.220 209.632,192.400 210.264,192.400 210.600 C 192.400 210.936,192.608 211.613,192.862 212.105 C 193.849 214.014,194.000 214.413,194.000 215.115 C 194.000 215.514,194.143 216.011,194.318 216.220 C 194.493 216.429,194.865 217.320,195.145 218.200 C 195.424 219.080,195.809 220.160,196.000 220.600 C 196.191 221.040,196.731 222.570,197.200 224.000 C 197.669 225.430,198.212 226.960,198.406 227.400 C 198.601 227.840,199.026 229.010,199.351 230.000 C 200.547 233.643,203.254 241.424,203.595 242.200 C 203.789 242.640,204.176 243.720,204.455 244.600 C 204.735 245.480,205.107 246.371,205.282 246.580 C 205.457 246.789,205.600 247.363,205.600 247.856 C 205.600 248.349,205.744 248.842,205.921 248.951 C 206.097 249.060,206.493 250.072,206.800 251.200 C 207.107 252.328,207.503 253.340,207.679 253.449 C 207.856 253.558,208.000 253.999,208.000 254.429 C 208.000 254.859,208.180 255.568,208.400 256.005 C 208.620 256.442,208.980 257.158,209.200 257.595 C 209.420 258.032,209.600 258.664,209.600 259.000 C 209.600 259.336,209.808 260.013,210.062 260.505 C 211.056 262.426,211.200 262.816,211.200 263.571 C 211.200 264.001,211.380 264.464,211.600 264.600 C 212.290 265.026,212.041 266.750,211.226 267.186 C 209.731 267.986,185.441 267.727,184.449 266.900 C 183.903 266.445,182.763 263.680,181.192 259.000 C 179.863 255.040,178.601 251.487,178.388 251.105 C 178.175 250.723,178.000 250.059,178.000 249.629 C 178.000 249.199,177.820 248.736,177.600 248.600 C 177.380 248.464,177.200 248.001,177.200 247.571 C 177.200 246.816,177.056 246.426,176.062 244.505 C 175.808 244.013,175.600 243.259,175.600 242.829 C 175.600 242.399,175.420 241.936,175.200 241.800 C 174.980 241.664,174.800 241.124,174.800 240.600 C 174.800 240.076,174.656 239.558,174.479 239.449 C 174.303 239.340,173.907 238.328,173.600 237.200 C 173.293 236.072,172.897 235.060,172.721 234.951 C 172.544 234.842,172.400 234.349,172.400 233.856 C 172.400 233.363,172.235 232.789,172.034 232.580 C 171.832 232.371,171.607 231.750,171.534 231.200 L 171.400 230.200 148.046 230.097 C 122.438 229.984,123.648 229.876,123.613 232.276 C 123.606 232.758,123.420 233.264,123.200 233.400 C 122.980 233.536,122.800 233.999,122.800 234.429 C 122.800 234.859,122.621 235.523,122.401 235.905 C 122.182 236.287,120.991 239.750,119.755 243.600 C 113.973 261.602,112.345 266.219,111.539 266.900 C 110.562 267.726,88.663 267.983,87.174 267.186 C 86.345 266.743,86.083 264.643,86.800 264.200 C 87.020 264.064,87.200 263.524,87.200 263.000 C 87.200 262.476,87.344 261.958,87.521 261.849 C 87.697 261.740,88.093 260.728,88.400 259.600 C 88.707 258.472,89.103 257.460,89.279 257.351 C 89.456 257.242,89.600 256.724,89.600 256.200 C 89.600 255.676,89.744 255.158,89.921 255.049 C 90.097 254.940,90.493 253.928,90.800 252.800 C 91.107 251.672,91.503 250.660,91.679 250.551 C 91.856 250.442,92.000 250.001,92.000 249.571 C 92.000 249.141,92.180 248.432,92.400 247.995 C 92.620 247.558,92.980 246.842,93.200 246.405 C 93.420 245.968,93.600 245.259,93.600 244.829 C 93.600 244.399,93.780 243.936,94.000 243.800 C 94.220 243.664,94.400 243.201,94.400 242.771 C 94.400 242.341,94.576 241.677,94.791 241.295 C 95.006 240.913,95.624 239.250,96.164 237.600 C 96.705 235.950,98.157 231.720,99.392 228.200 C 100.626 224.680,101.904 220.990,102.231 220.000 C 102.558 219.010,103.000 217.887,103.213 217.505 C 103.426 217.123,103.600 216.459,103.600 216.029 C 103.600 215.599,103.744 215.158,103.921 215.049 C 104.097 214.940,104.493 213.928,104.800 212.800 C 105.107 211.672,105.503 210.660,105.679 210.551 C 105.856 210.442,106.000 210.001,106.000 209.571 C 106.000 209.141,106.208 208.387,106.462 207.895 C 107.456 205.974,107.600 205.584,107.600 204.829 C 107.600 204.399,107.780 203.936,108.000 203.800 C 108.220 203.664,108.400 203.124,108.400 202.600 C 108.400 202.076,108.544 201.558,108.721 201.449 C 108.897 201.340,109.293 200.328,109.600 199.200 C 109.907 198.072,110.303 197.060,110.479 196.951 C 110.656 196.842,110.800 196.401,110.800 195.971 C 110.800 195.541,110.976 194.877,111.191 194.495 C 111.406 194.113,112.023 192.450,112.563 190.800 C 114.052 186.248,116.799 178.302,117.196 177.400 C 117.389 176.960,117.928 175.430,118.393 174.000 C 118.857 172.570,119.409 171.087,119.619 170.705 C 119.829 170.323,120.000 169.659,120.000 169.229 C 120.000 168.799,120.144 168.358,120.321 168.249 C 120.497 168.140,120.893 167.128,121.200 166.000 C 121.507 164.872,121.903 163.860,122.079 163.751 C 122.256 163.642,122.400 163.201,122.400 162.771 C 122.400 162.341,122.580 161.632,122.800 161.195 C 123.020 160.758,123.380 160.042,123.600 159.605 C 123.820 159.168,124.000 158.459,124.000 158.029 C 124.000 157.599,124.180 157.136,124.400 157.000 C 124.620 156.864,124.800 156.401,124.800 155.971 C 124.800 155.541,124.980 154.832,125.200 154.395 C 125.420 153.958,125.780 153.242,126.000 152.805 C 126.220 152.368,126.400 151.659,126.400 151.229 C 126.400 150.799,126.580 150.336,126.800 150.200 C 127.020 150.064,127.200 149.549,127.200 149.056 C 127.200 148.563,127.348 147.989,127.528 147.780 C 127.811 147.452,128.352 145.834,130.051 140.232 C 130.246 139.590,130.516 137.520,130.650 135.632 C 130.784 133.744,131.147 131.795,131.456 131.300 L 132.018 130.400 147.365 130.400 C 161.387 130.400,162.785 130.460,163.568 131.100 M146.853 155.500 C 146.565 156.545,146.187 157.850,146.012 158.400 C 145.836 158.950,145.471 160.210,145.201 161.200 C 144.930 162.190,144.570 163.360,144.400 163.800 C 144.230 164.240,143.870 165.410,143.600 166.400 C 143.330 167.390,142.970 168.560,142.800 169.000 C 142.630 169.440,142.273 170.610,142.007 171.600 C 141.740 172.590,141.360 173.713,141.161 174.095 C 140.962 174.477,140.800 175.141,140.800 175.571 C 140.800 176.001,140.620 176.464,140.400 176.600 C 140.180 176.736,140.000 177.199,140.000 177.629 C 140.000 178.059,139.838 178.723,139.639 179.105 C 139.440 179.487,139.060 180.610,138.793 181.600 C 138.527 182.590,138.173 183.760,138.007 184.200 C 137.841 184.640,137.339 186.170,136.892 187.600 C 133.534 198.346,131.476 204.703,131.165 205.295 C 130.964 205.677,130.800 206.341,130.800 206.771 C 130.800 207.201,130.620 207.664,130.400 207.800 C 128.331 209.078,129.825 209.200,147.600 209.200 C 158.814 209.200,165.200 209.058,165.200 208.808 C 165.200 208.593,164.778 207.108,164.263 205.508 C 163.747 203.909,162.558 200.170,161.621 197.200 C 160.684 194.230,159.756 191.487,159.559 191.105 C 159.361 190.723,159.200 190.059,159.200 189.629 C 159.200 189.199,159.020 188.736,158.800 188.600 C 158.580 188.464,158.400 187.924,158.400 187.400 C 158.400 186.876,158.220 186.336,158.000 186.200 C 157.780 186.064,157.600 185.524,157.600 185.000 C 157.600 184.476,157.420 183.936,157.200 183.800 C 156.980 183.664,156.800 183.124,156.800 182.600 C 156.800 182.076,156.620 181.536,156.400 181.400 C 156.180 181.264,156.000 180.724,156.000 180.200 C 156.000 179.676,155.820 179.136,155.600 179.000 C 155.380 178.864,155.200 178.401,155.200 177.971 C 155.200 177.541,155.036 176.877,154.836 176.495 C 154.636 176.113,153.539 172.830,152.399 169.200 C 151.258 165.570,150.171 162.150,149.982 161.600 C 149.793 161.050,149.169 159.025,148.595 157.100 C 147.369 152.987,147.508 153.115,146.853 155.500 M278.123 165.616 C 288.381 167.098,294.983 170.076,300.615 175.762 C 303.301 178.473,306.400 182.424,306.400 183.137 C 306.400 183.392,306.546 183.600,306.725 183.600 C 306.904 183.600,307.298 184.230,307.600 185.000 C 307.902 185.770,308.252 186.400,308.377 186.400 C 308.502 186.400,308.844 186.985,309.136 187.700 C 310.259 190.450,310.504 191.022,310.847 191.695 C 311.041 192.077,311.200 192.741,311.200 193.171 C 311.200 193.601,311.360 194.052,311.556 194.173 C 311.751 194.294,312.011 194.979,312.132 195.696 C 312.253 196.413,312.588 198.080,312.876 199.400 C 313.465 202.098,313.555 213.856,313.017 217.929 C 312.424 222.425,313.363 222.310,274.674 222.635 L 248.748 222.852 248.959 223.926 C 249.075 224.517,249.286 225.900,249.429 227.000 C 250.607 236.074,256.246 243.306,264.800 246.713 C 273.655 250.240,293.102 249.228,302.200 244.767 C 302.640 244.552,303.540 244.336,304.200 244.288 L 305.400 244.200 305.508 253.321 C 305.623 263.106,305.658 262.919,303.500 263.900 C 286.810 271.487,261.250 271.488,246.207 263.904 C 237.334 259.430,229.838 250.904,225.897 240.800 C 225.682 240.250,225.348 239.487,225.153 239.105 C 224.959 238.723,224.800 238.059,224.800 237.629 C 224.800 237.199,224.620 236.736,224.400 236.600 C 224.180 236.464,224.000 235.769,224.000 235.056 C 224.000 234.343,223.838 233.589,223.641 233.380 C 223.444 233.171,223.180 232.280,223.055 231.400 C 222.930 230.520,222.607 228.360,222.337 226.600 C 221.701 222.450,221.700 213.026,222.335 209.200 C 222.609 207.550,222.934 205.480,223.058 204.600 C 223.181 203.720,223.444 202.829,223.641 202.620 C 223.838 202.411,224.000 201.747,224.000 201.144 C 224.000 200.541,224.180 199.936,224.400 199.800 C 224.620 199.664,224.800 199.201,224.800 198.771 C 224.800 198.341,224.980 197.632,225.200 197.195 C 225.420 196.758,225.780 196.042,226.000 195.605 C 226.220 195.168,226.400 194.538,226.400 194.205 C 226.400 193.872,226.580 193.600,226.800 193.600 C 227.020 193.600,227.200 193.240,227.200 192.800 C 227.200 192.360,227.380 192.000,227.600 192.000 C 227.820 192.000,228.000 191.640,228.000 191.200 C 228.000 190.760,228.136 190.400,228.302 190.400 C 228.469 190.400,228.859 189.815,229.170 189.100 C 230.902 185.116,238.120 176.614,242.000 173.987 C 242.770 173.465,243.490 172.940,243.600 172.819 C 243.953 172.432,246.177 171.158,246.900 170.929 C 247.285 170.807,247.600 170.548,247.600 170.353 C 247.600 170.159,247.782 170.000,248.004 170.000 C 248.227 170.000,249.172 169.655,250.104 169.233 C 257.635 165.829,269.235 164.331,278.123 165.616 M265.485 183.630 C 257.127 185.348,250.504 193.557,249.367 203.608 L 249.097 206.000 265.771 206.000 C 276.517 206.000,283.443 205.835,285.249 205.537 L 288.052 205.074 287.888 201.437 C 287.311 188.594,277.864 181.085,265.485 183.630 " stroke="none" fill="#1c0444" fill-rule="evenodd"></path><path id="path2" d="M18.499 175.900 L 18.599 333.400 18.700 176.101 L 18.801 18.801 176.101 18.700 L 333.400 18.599 175.900 18.499 L 18.400 18.400 18.499 175.900 M334.833 18.949 C 334.925 19.031,335.900 19.201,337.000 19.328 C 338.349 19.484,338.674 19.449,338.000 19.220 C 337.001 18.880,334.518 18.668,334.833 18.949 M340.200 20.000 C 341.396 20.514,342.395 20.514,341.600 20.000 C 341.270 19.787,340.640 19.622,340.200 19.634 L 339.400 19.656 340.200 20.000 M358.405 27.880 C 358.408 28.056,359.038 28.607,359.805 29.104 C 361.603 30.268,361.600 30.000,359.800 28.627 C 359.030 28.040,358.402 27.703,358.405 27.880 M363.695 32.300 C 364.853 33.345,366.655 35.147,367.700 36.305 C 368.745 37.462,369.600 38.232,369.600 38.015 C 369.600 37.501,362.499 30.400,361.985 30.400 C 361.768 30.400,362.538 31.255,363.695 32.300 M370.896 40.195 C 371.393 40.962,371.944 41.592,372.120 41.595 C 372.297 41.598,371.960 40.970,371.373 40.200 C 370.000 38.400,369.732 38.397,370.896 40.195 M372.873 43.000 C 373.123 43.550,373.484 44.000,373.673 44.000 C 373.863 44.000,373.724 43.550,373.363 43.000 C 373.003 42.450,372.643 42.000,372.563 42.000 C 372.483 42.000,372.622 42.450,372.873 43.000 M379.634 58.400 C 379.646 58.730,379.811 59.360,380.000 59.800 L 380.344 60.600 380.366 59.800 C 380.378 59.360,380.213 58.730,380.000 58.400 C 379.655 57.867,379.615 57.867,379.634 58.400 M380.682 63.400 C 380.809 64.500,380.977 65.475,381.056 65.567 C 381.355 65.914,381.128 62.964,380.797 62.200 C 380.574 61.685,380.533 62.113,380.682 63.400 M381.200 224.199 L 381.200 381.199 224.100 381.300 L 67.000 381.401 224.300 381.501 L 381.600 381.600 381.600 224.400 C 381.600 137.940,381.510 67.200,381.400 67.200 C 381.290 67.200,381.200 137.850,381.200 224.199 M131.549 131.065 C 131.053 131.667,131.084 131.686,131.874 131.265 C 132.821 130.761,161.736 130.570,163.014 131.061 C 163.388 131.204,164.029 132.059,164.438 132.961 C 164.847 133.862,165.186 134.366,165.191 134.080 C 165.206 133.195,164.031 131.245,163.222 130.812 C 161.766 130.033,132.206 130.269,131.549 131.065 M130.874 133.850 C 130.833 134.978,130.711 136.508,130.601 137.250 L 130.403 138.600 130.821 137.268 C 131.051 136.535,131.174 135.005,131.094 133.868 L 130.948 131.800 130.874 133.850 M165.429 135.600 C 165.576 136.150,165.864 136.870,166.067 137.200 C 166.325 137.617,166.357 137.495,166.171 136.800 C 166.024 136.250,165.736 135.530,165.533 135.200 C 165.275 134.783,165.243 134.905,165.429 135.600 M166.445 138.400 C 166.453 138.730,166.806 139.720,167.229 140.600 C 167.652 141.480,167.886 141.762,167.749 141.226 C 167.373 139.761,166.429 137.714,166.445 138.400 M129.829 140.629 C 129.681 141.215,129.651 141.784,129.761 141.894 C 129.871 142.004,130.081 141.615,130.229 141.029 C 130.376 140.442,130.406 139.873,130.296 139.763 C 130.186 139.653,129.976 140.042,129.829 140.629 M147.062 153.200 C 146.550 154.771,146.385 156.186,146.782 155.600 C 147.005 155.270,147.205 154.640,147.226 154.200 C 147.257 153.567,147.380 153.651,147.814 154.600 C 148.117 155.260,148.366 155.530,148.368 155.200 C 148.374 154.168,147.289 152.505,147.062 153.200 M148.456 156.400 C 148.456 156.730,148.611 157.360,148.800 157.800 C 149.017 158.304,149.144 158.378,149.144 158.000 C 149.144 157.670,148.989 157.040,148.800 156.600 C 148.583 156.096,148.456 156.022,148.456 156.400 M146.046 156.867 C 146.021 157.234,145.896 157.864,145.770 158.267 C 145.552 158.962,145.563 158.963,145.997 158.287 C 146.248 157.896,146.373 157.266,146.273 156.887 C 146.111 156.268,146.088 156.266,146.046 156.867 M149.448 159.800 C 149.591 160.460,149.866 161.270,150.059 161.600 C 150.284 161.984,150.318 161.768,150.152 161.000 C 150.009 160.340,149.734 159.530,149.541 159.200 C 149.316 158.816,149.282 159.032,149.448 159.800 M145.246 159.667 C 145.221 160.034,145.096 160.664,144.970 161.067 C 144.752 161.762,144.763 161.763,145.197 161.087 C 145.448 160.696,145.573 160.066,145.473 159.687 C 145.311 159.068,145.288 159.066,145.246 159.667 M144.446 162.267 C 144.421 162.524,144.284 163.064,144.141 163.467 C 143.940 164.036,143.994 164.097,144.379 163.742 C 144.652 163.491,144.789 162.951,144.684 162.542 C 144.579 162.134,144.472 162.010,144.446 162.267 M150.994 164.800 C 151.912 167.930,153.334 171.999,153.464 171.869 C 153.644 171.690,151.275 164.334,150.935 164.018 C 150.806 163.898,150.833 164.250,150.994 164.800 M267.900 165.497 C 269.495 165.573,272.105 165.573,273.700 165.497 C 275.295 165.421,273.990 165.359,270.800 165.359 C 267.610 165.359,266.305 165.421,267.900 165.497 M260.800 166.000 C 259.450 166.284,259.443 166.295,260.600 166.300 C 261.260 166.303,262.340 166.168,263.000 166.000 C 264.660 165.578,262.807 165.578,260.800 166.000 M278.200 165.980 C 279.434 166.315,282.264 166.518,281.967 166.250 C 281.875 166.168,280.720 166.000,279.400 165.877 C 277.822 165.730,277.411 165.765,278.200 165.980 M256.880 166.795 C 256.154 166.967,255.447 167.220,255.309 167.358 C 255.012 167.655,257.454 167.215,258.600 166.765 C 259.620 166.364,258.624 166.382,256.880 166.795 M283.000 166.746 C 284.171 167.234,286.726 167.658,286.000 167.244 C 285.670 167.056,284.680 166.792,283.800 166.658 C 282.791 166.503,282.495 166.536,283.000 166.746 M120.267 168.267 C 120.120 168.413,120.011 168.908,120.025 169.367 C 120.049 170.133,120.082 170.123,120.434 169.242 C 120.826 168.263,120.744 167.789,120.267 168.267 M289.233 168.539 C 289.764 168.983,295.184 171.499,295.013 171.222 C 294.793 170.866,289.852 168.400,289.359 168.400 C 289.198 168.400,289.142 168.463,289.233 168.539 M248.700 169.720 C 248.095 169.959,247.600 170.304,247.600 170.487 C 247.600 170.763,249.798 169.858,250.367 169.349 C 250.659 169.088,249.836 169.271,248.700 169.720 M119.355 171.100 C 119.234 171.485,118.970 172.213,118.767 172.719 C 118.565 173.224,118.411 173.854,118.425 174.119 C 118.439 174.383,118.638 174.150,118.866 173.600 C 119.497 172.080,119.967 170.400,119.760 170.400 C 119.658 170.400,119.476 170.715,119.355 171.100 M295.600 171.749 C 295.600 171.835,296.230 172.386,297.000 172.973 C 297.770 173.560,298.398 173.897,298.395 173.720 C 298.392 173.544,297.762 172.993,296.995 172.496 C 296.228 171.999,295.600 171.663,295.600 171.749 M178.428 172.276 C 178.518 173.315,179.144 174.196,179.172 173.324 C 179.187 172.842,179.020 172.336,178.800 172.200 C 178.580 172.064,178.413 172.098,178.428 172.276 M300.383 175.700 C 301.364 176.745,302.219 177.600,302.283 177.600 C 302.584 177.600,302.266 177.241,300.500 175.583 L 298.600 173.800 300.383 175.700 M154.428 175.476 C 154.413 175.958,154.580 176.464,154.800 176.600 C 155.273 176.892,155.273 176.501,154.800 175.400 C 154.469 174.629,154.455 174.631,154.428 175.476 M236.786 178.700 L 234.600 181.000 236.900 178.814 C 238.165 177.611,239.200 176.576,239.200 176.514 C 239.200 176.217,238.818 176.563,236.786 178.700 M116.955 177.900 C 116.834 178.285,116.570 179.013,116.367 179.519 C 116.165 180.024,116.011 180.654,116.025 180.919 C 116.039 181.183,116.238 180.950,116.466 180.400 C 117.097 178.880,117.567 177.200,117.360 177.200 C 117.258 177.200,117.076 177.515,116.955 177.900 M155.228 177.876 C 155.213 178.358,155.380 178.864,155.600 179.000 C 156.073 179.292,156.073 178.901,155.600 177.800 C 155.269 177.029,155.255 177.031,155.228 177.876 M181.172 179.846 C 181.675 181.519,182.346 183.065,182.369 182.600 C 182.394 182.065,181.417 179.283,181.086 178.953 C 180.942 178.809,180.981 179.211,181.172 179.846 M305.093 181.597 C 305.668 182.476,306.223 183.111,306.325 183.008 C 306.507 182.826,304.513 180.000,304.203 180.000 C 304.117 180.000,304.518 180.719,305.093 181.597 M233.544 182.300 C 232.275 183.832,231.819 184.542,232.281 184.265 C 232.793 183.958,234.569 181.600,234.289 181.600 C 234.198 181.600,233.863 181.915,233.544 182.300 M266.200 183.202 C 265.519 183.376,266.385 183.418,268.200 183.298 C 269.960 183.183,271.475 183.023,271.567 182.944 C 271.875 182.677,267.412 182.891,266.200 183.202 M262.100 184.234 C 260.307 185.018,260.460 185.321,262.300 184.629 C 263.125 184.319,264.070 183.974,264.400 183.864 C 264.800 183.730,264.734 183.664,264.200 183.664 C 263.760 183.665,262.815 183.921,262.100 184.234 M274.833 183.744 C 274.925 183.823,275.540 184.008,276.200 184.156 C 277.076 184.352,277.238 184.315,276.800 184.018 C 276.260 183.653,274.432 183.398,274.833 183.744 M279.600 185.354 C 279.600 185.439,280.095 185.827,280.700 186.216 L 281.800 186.924 281.038 186.062 C 280.364 185.299,279.600 184.923,279.600 185.354 M230.214 187.035 C 229.841 187.604,229.627 188.161,229.739 188.272 C 229.850 188.383,230.229 187.918,230.581 187.237 C 231.359 185.733,231.144 185.615,230.214 187.035 M257.478 187.034 C 256.860 187.565,256.500 187.994,256.678 187.987 C 257.121 187.968,258.951 186.417,258.757 186.224 C 258.670 186.138,258.095 186.503,257.478 187.034 M183.645 186.800 C 183.653 187.130,184.006 188.120,184.429 189.000 C 184.852 189.880,185.086 190.162,184.949 189.626 C 184.573 188.161,183.629 186.114,183.645 186.800 M282.740 187.916 C 283.233 188.609,283.844 189.304,284.097 189.460 C 284.350 189.617,284.154 189.177,283.660 188.484 C 283.167 187.791,282.556 187.096,282.303 186.940 C 282.050 186.783,282.246 187.223,282.740 187.916 M255.400 188.920 C 254.150 190.451,253.936 190.798,254.251 190.778 C 254.443 190.766,255.019 190.226,255.530 189.578 C 256.042 188.930,256.312 188.407,256.130 188.415 C 255.949 188.424,255.620 188.651,255.400 188.920 M284.800 190.510 C 284.800 190.833,287.177 195.343,287.187 195.040 C 287.202 194.612,285.174 190.400,284.953 190.400 C 284.869 190.400,284.800 190.450,284.800 190.510 M253.014 192.235 C 252.641 192.804,252.427 193.361,252.539 193.472 C 252.650 193.583,253.029 193.118,253.381 192.437 C 254.159 190.933,253.944 190.815,253.014 192.235 M133.640 196.640 C 133.410 197.473,133.294 198.227,133.382 198.315 C 133.470 198.403,133.730 197.793,133.960 196.960 C 134.190 196.127,134.306 195.373,134.218 195.285 C 134.130 195.197,133.870 195.807,133.640 196.640 M250.677 196.900 C 249.765 199.120,249.114 201.870,249.315 202.652 C 249.453 203.188,249.520 203.099,249.554 202.338 C 249.579 201.754,250.032 199.999,250.560 198.438 C 251.551 195.511,251.619 194.605,250.677 196.900 M287.206 196.233 C 287.209 196.655,287.395 197.270,287.618 197.600 C 287.915 198.038,287.952 197.876,287.756 197.000 C 287.427 195.529,287.198 195.210,287.206 196.233 M312.258 198.000 C 312.575 199.725,312.802 200.051,312.794 198.767 C 312.791 198.235,312.611 197.530,312.394 197.200 C 312.118 196.778,312.077 197.015,312.258 198.000 M288.080 201.855 L 288.000 205.109 285.700 205.537 L 283.400 205.964 285.569 205.793 C 288.396 205.569,288.460 205.475,288.298 201.762 L 288.161 198.600 288.080 201.855 M224.267 199.867 C 224.120 200.013,224.011 200.508,224.025 200.967 C 224.049 201.733,224.082 201.723,224.434 200.842 C 224.826 199.863,224.744 199.389,224.267 199.867 M313.000 208.600 C 313.000 213.136,313.117 216.432,313.260 215.924 C 313.403 215.416,313.520 212.120,313.520 208.600 C 313.520 205.080,313.403 201.784,313.260 201.276 C 313.117 200.768,313.000 204.064,313.000 208.600 M163.212 202.400 C 163.212 202.730,163.387 203.270,163.600 203.600 C 163.945 204.133,163.988 204.133,163.988 203.600 C 163.988 203.270,163.813 202.730,163.600 202.400 C 163.255 201.867,163.212 201.867,163.212 202.400 M223.467 202.667 C 223.320 202.813,223.215 203.398,223.234 203.967 C 223.268 204.981,223.275 204.979,223.621 203.820 C 223.985 202.603,223.931 202.202,223.467 202.667 M248.893 204.800 C 248.893 205.570,248.975 205.885,249.076 205.500 C 249.176 205.115,249.176 204.485,249.076 204.100 C 248.975 203.715,248.893 204.030,248.893 204.800 M164.012 204.800 C 164.012 205.130,164.187 205.670,164.400 206.000 C 164.745 206.533,164.788 206.533,164.788 206.000 C 164.788 205.670,164.613 205.130,164.400 204.800 C 164.055 204.267,164.012 204.267,164.012 204.800 M222.649 206.615 C 222.512 206.973,222.421 207.746,222.446 208.333 C 222.480 209.132,222.570 208.998,222.804 207.800 C 223.135 206.100,223.062 205.540,222.649 206.615 M165.033 208.108 L 165.291 209.216 147.483 209.108 C 137.689 209.049,129.760 209.135,129.862 209.300 C 129.964 209.465,138.047 209.600,147.824 209.600 C 167.031 209.600,166.571 209.653,165.182 207.600 C 164.881 207.156,164.843 207.287,165.033 208.108 M221.850 212.050 C 221.529 213.653,221.598 222.710,221.940 223.924 C 222.083 224.433,222.200 221.688,222.200 217.825 C 222.200 210.131,222.208 210.261,221.850 212.050 M103.867 215.067 C 103.720 215.213,103.611 215.708,103.625 216.167 C 103.649 216.933,103.682 216.923,104.034 216.042 C 104.426 215.063,104.344 214.589,103.867 215.067 M102.955 217.900 C 102.834 218.285,102.570 219.013,102.367 219.519 C 102.165 220.024,102.011 220.654,102.025 220.919 C 102.039 221.183,102.238 220.950,102.466 220.400 C 103.097 218.880,103.567 217.200,103.360 217.200 C 103.258 217.200,103.076 217.515,102.955 217.900 M312.460 219.020 C 312.427 219.691,312.176 220.501,311.903 220.820 C 311.629 221.140,311.733 221.110,312.135 220.754 C 312.625 220.319,312.807 219.731,312.692 218.954 L 312.520 217.800 312.460 219.020 M195.801 221.174 C 196.256 222.650,197.167 224.653,197.178 224.200 C 197.193 223.589,196.191 220.855,195.824 220.507 C 195.646 220.338,195.636 220.638,195.801 221.174 M308.400 221.600 L 306.600 221.880 308.400 221.934 C 309.390 221.963,310.470 221.813,310.800 221.600 C 311.505 221.145,311.329 221.145,308.400 221.600 M249.003 222.395 C 248.711 222.867,295.119 222.893,299.000 222.422 C 300.320 222.263,289.667 222.100,275.327 222.061 C 258.077 222.014,249.169 222.127,249.003 222.395 M100.444 225.044 C 99.948 226.491,99.612 227.745,99.697 227.831 C 99.783 227.916,100.259 226.802,100.756 225.356 C 101.252 223.909,101.588 222.655,101.503 222.569 C 101.417 222.484,100.941 223.598,100.444 225.044 M248.893 225.200 C 248.893 225.970,248.975 226.285,249.076 225.900 C 249.176 225.515,249.176 224.885,249.076 224.500 C 248.975 224.115,248.893 224.430,248.893 225.200 M222.406 227.633 C 222.409 228.385,222.577 229.261,222.779 229.579 C 223.016 229.954,223.065 229.530,222.918 228.379 C 222.635 226.170,222.398 225.825,222.406 227.633 M249.293 228.000 C 249.293 228.770,249.375 229.085,249.476 228.700 C 249.576 228.315,249.576 227.685,249.476 227.300 C 249.375 226.915,249.293 227.230,249.293 228.000 M198.372 228.246 C 198.875 229.919,199.546 231.465,199.569 231.000 C 199.594 230.465,198.617 227.683,198.286 227.353 C 198.142 227.209,198.181 227.611,198.372 228.246 M124.080 230.080 C 123.816 230.344,123.606 230.749,123.613 230.980 C 123.620 231.211,123.863 231.086,124.154 230.703 C 124.645 230.057,126.370 229.999,147.842 229.900 L 171.000 229.793 147.780 229.697 C 130.144 229.623,124.445 229.715,124.080 230.080 M249.848 230.600 C 249.991 231.260,250.266 232.070,250.459 232.400 C 250.684 232.784,250.718 232.568,250.552 231.800 C 250.409 231.140,250.134 230.330,249.941 230.000 C 249.716 229.616,249.682 229.832,249.848 230.600 M224.028 235.476 C 224.013 235.958,224.180 236.464,224.400 236.600 C 224.873 236.892,224.873 236.501,224.400 235.400 C 224.069 234.629,224.055 234.631,224.028 235.476 M256.944 242.309 C 257.260 242.821,259.600 244.553,259.600 244.275 C 259.600 244.176,258.939 243.591,258.132 242.975 C 257.324 242.359,256.789 242.059,256.944 242.309 M229.386 247.900 C 229.735 248.615,230.106 249.200,230.210 249.200 C 230.608 249.200,230.352 248.563,229.567 247.600 L 228.752 246.600 229.386 247.900 M294.600 247.200 L 293.800 247.544 294.600 247.566 C 295.040 247.578,295.670 247.413,296.000 247.200 C 296.795 246.686,295.796 246.686,294.600 247.200 M267.600 247.994 C 267.930 248.211,268.635 248.391,269.167 248.394 C 270.451 248.402,270.125 248.175,268.400 247.858 C 267.415 247.677,267.178 247.718,267.600 247.994 M291.000 248.000 C 289.911 248.277,289.893 248.307,290.800 248.325 C 291.350 248.335,292.160 248.189,292.600 248.000 C 293.586 247.576,292.666 247.576,291.000 248.000 M271.518 248.872 C 272.371 249.212,286.577 249.196,288.183 248.853 C 288.833 248.714,285.196 248.600,280.101 248.600 C 275.005 248.600,271.143 248.722,271.518 248.872 M116.446 252.646 C 115.756 254.779,115.260 256.593,115.345 256.678 C 115.429 256.763,116.063 255.087,116.754 252.954 C 117.444 250.821,117.940 249.007,117.855 248.922 C 117.771 248.837,117.137 250.513,116.446 252.646 M231.840 251.695 C 232.698 252.914,233.462 253.854,233.539 253.784 C 233.732 253.606,231.291 250.104,230.735 249.760 C 230.485 249.605,230.982 250.476,231.840 251.695 M234.000 254.255 C 234.000 254.468,234.675 255.263,235.500 256.022 L 237.000 257.400 235.600 255.804 C 234.830 254.927,234.155 254.132,234.100 254.038 C 234.045 253.944,234.000 254.041,234.000 254.255 M238.006 258.269 C 238.025 259.338,249.415 266.010,251.197 265.995 C 251.529 265.992,250.386 265.373,248.658 264.619 C 244.925 262.989,241.709 261.097,239.563 259.269 C 238.703 258.537,238.003 258.087,238.006 258.269 M87.467 261.867 C 87.320 262.013,87.211 262.508,87.225 262.967 C 87.249 263.733,87.282 263.723,87.634 262.842 C 88.026 261.863,87.944 261.389,87.467 261.867 M182.828 263.713 C 182.757 264.506,184.014 266.780,184.740 267.168 C 185.823 267.747,210.146 267.764,211.226 267.186 C 212.019 266.762,212.297 265.031,211.637 264.623 C 211.438 264.500,211.369 264.760,211.485 265.202 C 211.991 267.140,211.592 267.200,198.184 267.200 C 184.096 267.200,184.579 267.272,183.587 265.041 C 183.185 264.139,182.844 263.541,182.828 263.713 M86.667 264.267 C 86.077 264.856,86.419 266.782,87.185 267.192 C 87.696 267.466,91.989 267.573,99.485 267.500 L 111.000 267.387 99.349 267.294 C 86.711 267.192,86.487 267.151,86.897 265.002 C 87.103 263.928,87.080 263.854,86.667 264.267 M111.916 265.913 L 111.232 267.400 112.016 266.456 C 112.447 265.936,112.800 265.261,112.800 264.956 C 112.800 264.133,112.670 264.273,111.916 265.913 M298.200 265.462 C 294.236 266.727,292.907 267.275,294.600 266.945 C 296.335 266.608,300.934 265.100,301.380 264.722 C 301.892 264.288,301.855 264.296,298.200 265.462 M252.400 266.341 C 252.730 266.534,253.540 266.809,254.200 266.952 C 254.968 267.118,255.184 267.084,254.800 266.859 C 254.470 266.666,253.660 266.391,253.000 266.248 C 252.232 266.082,252.016 266.116,252.400 266.341 M256.400 267.600 C 257.768 268.038,258.819 268.038,257.800 267.600 C 257.360 267.411,256.640 267.262,256.200 267.268 C 255.557 267.277,255.596 267.343,256.400 267.600 M290.600 267.619 C 290.042 267.871,290.285 267.907,291.400 267.738 C 292.280 267.604,293.075 267.428,293.167 267.347 C 293.510 267.044,291.368 267.271,290.600 267.619 M259.800 268.400 C 261.492 268.831,262.944 268.831,261.600 268.400 C 261.050 268.224,260.150 268.083,259.600 268.087 C 258.702 268.094,258.722 268.126,259.800 268.400 M286.400 268.420 C 285.726 268.649,286.051 268.684,287.400 268.528 C 288.500 268.401,289.475 268.231,289.567 268.149 C 289.882 267.868,287.399 268.080,286.400 268.420 M265.400 269.265 C 266.500 269.411,270.370 269.530,274.000 269.530 C 277.630 269.530,281.500 269.411,282.600 269.265 C 283.700 269.119,279.830 269.000,274.000 269.000 C 268.170 269.000,264.300 269.119,265.400 269.265 M18.840 335.833 C 18.862 336.475,19.033 337.450,19.220 338.000 C 19.449 338.674,19.484 338.349,19.328 337.000 C 19.069 334.750,18.779 334.059,18.840 335.833 M19.634 340.200 C 19.622 340.640,19.787 341.270,20.000 341.600 C 20.514 342.395,20.514 341.396,20.000 340.200 L 19.656 339.400 19.634 340.200 M28.627 359.800 C 30.000 361.600,30.268 361.603,29.104 359.805 C 28.607 359.038,28.056 358.408,27.880 358.405 C 27.703 358.402,28.040 359.030,28.627 359.800 M30.400 361.985 C 30.400 362.499,37.501 369.600,38.015 369.600 C 38.232 369.600,37.462 368.745,36.305 367.700 C 35.147 366.655,33.345 364.853,32.300 363.695 C 31.255 362.538,30.400 361.768,30.400 361.985 M39.800 370.965 C 40.460 371.532,41.165 371.997,41.367 371.998 C 41.801 372.000,41.796 371.996,40.000 370.837 L 38.600 369.934 39.800 370.965 M42.794 373.182 C 43.341 373.602,43.868 373.866,43.965 373.769 C 44.191 373.542,42.729 372.427,42.200 372.422 C 41.980 372.420,42.247 372.761,42.794 373.182 M58.400 380.000 C 58.730 380.213,59.360 380.378,59.800 380.366 L 60.600 380.344 59.800 380.000 C 58.604 379.486,57.605 379.486,58.400 380.000 M62.200 380.797 C 62.964 381.128,65.914 381.355,65.567 381.056 C 65.475 380.977,64.500 380.809,63.400 380.682 C 62.113 380.533,61.685 380.574,62.200 380.797 " stroke="none" fill="#512976" fill-rule="evenodd"></path><path id="path3" d="M96.933 18.300 C 140.015 18.356,210.395 18.356,253.333 18.300 C 296.270 18.244,261.020 18.198,175.000 18.198 C 88.980 18.198,53.850 18.244,96.933 18.300 M18.198 175.000 C 18.198 261.020,18.244 296.270,18.300 253.333 C 18.356 210.395,18.356 140.015,18.300 96.933 C 18.244 53.850,18.198 88.980,18.198 175.000 M381.798 225.200 C 381.798 311.110,381.844 346.255,381.900 303.300 C 381.956 260.345,381.956 190.055,381.900 147.100 C 381.844 104.145,381.798 139.290,381.798 225.200 M257.727 206.300 C 262.527 206.364,270.267 206.363,274.927 206.299 C 279.587 206.236,275.660 206.183,266.200 206.183 C 256.740 206.183,252.927 206.236,257.727 206.300 M129.944 209.704 C 130.111 209.872,138.158 209.962,147.824 209.904 L 165.400 209.800 147.520 209.600 C 137.686 209.490,129.777 209.537,129.944 209.704 M222.093 214.000 C 222.093 214.770,222.175 215.085,222.276 214.700 C 222.376 214.315,222.376 213.685,222.276 213.300 C 222.175 212.915,222.093 213.230,222.093 214.000 M222.109 220.400 C 222.109 221.390,222.187 221.795,222.282 221.300 C 222.378 220.805,222.378 219.995,222.282 219.500 C 222.187 219.005,222.109 219.410,222.109 220.400 M248.558 222.566 C 248.438 222.878,248.405 223.643,248.484 224.266 C 248.602 225.191,248.664 225.087,248.825 223.700 C 249.027 221.951,248.938 221.575,248.558 222.566 M278.707 249.490 C 279.426 249.579,280.506 249.577,281.107 249.486 C 281.708 249.395,281.120 249.322,279.800 249.324 C 278.480 249.326,277.988 249.401,278.707 249.490 M147.100 381.900 C 190.055 381.956,260.345 381.956,303.300 381.900 C 346.255 381.844,311.110 381.798,225.200 381.798 C 139.290 381.798,104.145 381.844,147.100 381.900 " stroke="none" fill="#74449c" fill-rule="evenodd"></path><path id="path4" d="M335.091 0.289 C 335.801 0.377,337.061 0.379,337.891 0.292 C 338.721 0.205,338.140 0.133,336.600 0.131 C 335.060 0.129,334.381 0.200,335.091 0.289 M340.400 0.800 C 340.400 1.020,341.030 1.200,341.800 1.200 C 342.570 1.200,343.200 1.020,343.200 0.800 C 343.200 0.580,342.570 0.400,341.800 0.400 C 341.030 0.400,340.400 0.580,340.400 0.800 M344.400 1.600 C 344.400 1.820,345.030 2.000,345.800 2.000 C 346.570 2.000,347.200 1.820,347.200 1.600 C 347.200 1.380,346.570 1.200,345.800 1.200 C 345.030 1.200,344.400 1.380,344.400 1.600 M347.600 2.400 C 347.600 2.620,348.050 2.800,348.600 2.800 C 349.150 2.800,349.600 2.620,349.600 2.400 C 349.600 2.180,349.150 2.000,348.600 2.000 C 348.050 2.000,347.600 2.180,347.600 2.400 M350.000 3.200 C 350.000 3.420,350.495 3.597,351.100 3.594 C 351.957 3.589,352.068 3.502,351.600 3.200 C 350.817 2.694,350.000 2.694,350.000 3.200 M352.400 4.000 C 352.400 4.220,352.850 4.400,353.400 4.400 C 353.950 4.400,354.400 4.220,354.400 4.000 C 354.400 3.780,353.950 3.600,353.400 3.600 C 352.850 3.600,352.400 3.780,352.400 4.000 M354.800 4.800 C 354.800 5.020,355.070 5.200,355.400 5.200 C 355.730 5.200,356.000 5.020,356.000 4.800 C 356.000 4.580,355.730 4.400,355.400 4.400 C 355.070 4.400,354.800 4.580,354.800 4.800 M356.400 5.600 C 356.400 5.820,356.760 6.000,357.200 6.000 C 357.640 6.000,358.000 5.820,358.000 5.600 C 358.000 5.380,357.640 5.200,357.200 5.200 C 356.760 5.200,356.400 5.380,356.400 5.600 M358.400 6.400 C 358.400 6.620,358.670 6.800,359.000 6.800 C 359.330 6.800,359.600 6.620,359.600 6.400 C 359.600 6.180,359.330 6.000,359.000 6.000 C 358.670 6.000,358.400 6.180,358.400 6.400 M360.000 7.200 C 360.000 7.420,360.270 7.600,360.600 7.600 C 360.930 7.600,361.200 7.420,361.200 7.200 C 361.200 6.980,360.930 6.800,360.600 6.800 C 360.270 6.800,360.000 6.980,360.000 7.200 M361.600 8.000 C 361.600 8.220,361.870 8.400,362.200 8.400 C 362.530 8.400,362.800 8.580,362.800 8.800 C 362.800 9.020,363.160 9.200,363.600 9.200 C 364.040 9.200,364.400 9.380,364.400 9.600 C 364.400 9.820,364.590 10.000,364.822 10.000 C 365.249 10.000,370.031 13.103,370.400 13.620 C 370.510 13.773,371.188 14.255,371.906 14.689 C 372.624 15.123,374.108 16.327,375.203 17.364 C 376.370 18.469,377.387 19.131,377.659 18.963 C 377.932 18.795,378.016 18.850,377.862 19.099 C 377.522 19.650,380.350 22.478,380.901 22.138 C 381.150 21.984,381.205 22.068,381.037 22.341 C 380.869 22.613,381.531 23.630,382.636 24.797 C 383.673 25.892,384.877 27.376,385.311 28.094 C 385.745 28.812,386.251 29.496,386.435 29.614 C 386.923 29.927,390.000 34.759,390.000 35.213 C 390.000 35.426,390.180 35.600,390.400 35.600 C 390.620 35.600,390.800 35.960,390.800 36.400 C 390.800 36.840,390.980 37.200,391.200 37.200 C 391.420 37.200,391.600 37.470,391.600 37.800 C 391.600 38.130,391.780 38.400,392.000 38.400 C 392.220 38.400,392.400 38.130,392.400 37.800 C 392.400 37.470,392.220 37.200,392.000 37.200 C 391.780 37.200,391.600 36.840,391.600 36.400 C 391.600 35.960,391.420 35.600,391.200 35.600 C 390.980 35.600,390.800 35.330,390.800 35.001 C 390.800 34.671,390.170 33.525,389.400 32.453 C 388.630 31.381,388.000 30.301,388.000 30.052 C 388.000 29.804,387.820 29.600,387.600 29.600 C 387.380 29.600,387.200 29.370,387.200 29.088 C 387.200 28.807,386.840 28.317,386.400 28.000 C 385.960 27.683,385.600 27.271,385.600 27.086 C 385.600 26.900,384.736 25.905,383.679 24.874 C 382.623 23.843,381.639 22.685,381.492 22.300 C 381.345 21.915,380.939 21.600,380.589 21.600 C 380.239 21.600,380.057 21.431,380.185 21.224 C 380.313 21.017,380.131 20.612,379.781 20.324 C 379.430 20.036,378.846 19.485,378.483 19.100 C 378.120 18.715,377.671 18.400,377.485 18.400 C 377.300 18.400,376.271 17.500,375.200 16.400 C 374.129 15.300,373.126 14.400,372.973 14.400 C 372.819 14.400,372.403 14.084,372.047 13.697 C 371.691 13.311,370.908 12.742,370.307 12.433 C 369.705 12.125,368.848 11.532,368.402 11.116 C 367.955 10.700,367.412 10.469,367.195 10.603 C 366.978 10.737,366.800 10.647,366.800 10.403 C 366.800 10.158,366.260 9.770,365.600 9.540 C 364.940 9.310,364.400 8.959,364.400 8.761 C 364.400 8.562,364.040 8.400,363.600 8.400 C 363.160 8.400,362.800 8.220,362.800 8.000 C 362.800 7.780,362.530 7.600,362.200 7.600 C 361.870 7.600,361.600 7.780,361.600 8.000 M331.905 18.283 C 332.402 18.379,333.122 18.375,333.505 18.275 C 333.887 18.175,333.480 18.096,332.600 18.101 C 331.720 18.105,331.407 18.187,331.905 18.283 M335.105 18.683 C 335.602 18.779,336.322 18.775,336.705 18.675 C 337.087 18.575,336.680 18.496,335.800 18.501 C 334.920 18.505,334.607 18.587,335.105 18.683 M338.600 19.181 C 339.368 19.529,341.510 19.756,341.167 19.453 C 341.075 19.372,340.280 19.196,339.400 19.062 C 338.285 18.893,338.042 18.929,338.600 19.181 M349.633 22.549 C 350.045 22.917,352.400 24.000,352.400 23.821 C 352.400 23.590,350.182 22.400,349.753 22.400 C 349.596 22.400,349.542 22.467,349.633 22.549 M363.482 31.345 C 364.627 32.382,366.677 34.438,368.038 35.915 C 369.399 37.392,370.140 38.060,369.686 37.400 C 368.805 36.122,363.538 30.918,362.200 30.005 C 361.760 29.705,362.337 30.308,363.482 31.345 M392.400 39.400 C 392.400 39.730,392.580 40.000,392.800 40.000 C 393.020 40.000,393.200 39.730,393.200 39.400 C 393.200 39.070,393.020 38.800,392.800 38.800 C 392.580 38.800,392.400 39.070,392.400 39.400 M393.200 41.200 C 393.200 41.640,393.380 42.000,393.600 42.000 C 393.820 42.000,394.000 42.360,394.000 42.800 C 394.000 43.240,394.180 43.600,394.400 43.600 C 394.620 43.600,394.800 43.960,394.800 44.400 C 394.800 44.840,394.980 45.200,395.200 45.200 C 395.420 45.200,395.600 44.840,395.600 44.400 C 395.600 43.960,395.420 43.600,395.200 43.600 C 394.980 43.600,394.800 43.240,394.800 42.800 C 394.800 42.360,394.620 42.000,394.400 42.000 C 394.180 42.000,394.000 41.640,394.000 41.200 C 394.000 40.760,393.820 40.400,393.600 40.400 C 393.380 40.400,393.200 40.760,393.200 41.200 M395.600 46.600 C 395.600 47.150,395.780 47.600,396.000 47.600 C 396.220 47.600,396.400 47.150,396.400 46.600 C 396.400 46.050,396.220 45.600,396.000 45.600 C 395.780 45.600,395.600 46.050,395.600 46.600 M396.400 48.776 C 396.400 49.203,396.580 49.664,396.800 49.800 C 397.027 49.940,397.200 49.604,397.200 49.024 C 397.200 48.461,397.020 48.000,396.800 48.000 C 396.580 48.000,396.400 48.349,396.400 48.776 M397.200 51.400 C 397.200 51.950,397.380 52.400,397.600 52.400 C 397.820 52.400,398.000 51.950,398.000 51.400 C 398.000 50.850,397.820 50.400,397.600 50.400 C 397.380 50.400,397.200 50.850,397.200 51.400 M398.000 54.200 C 398.000 54.970,398.180 55.600,398.400 55.600 C 398.620 55.600,398.800 54.970,398.800 54.200 C 398.800 53.430,398.620 52.800,398.400 52.800 C 398.180 52.800,398.000 53.430,398.000 54.200 M379.606 56.633 C 379.609 57.055,379.795 57.670,380.018 58.000 C 380.315 58.438,380.352 58.276,380.156 57.400 C 379.827 55.929,379.598 55.610,379.606 56.633 M398.800 58.224 C 398.800 59.071,398.962 59.547,399.200 59.400 C 399.420 59.264,399.600 58.623,399.600 57.976 C 399.600 57.329,399.420 56.800,399.200 56.800 C 398.980 56.800,398.800 57.441,398.800 58.224 M380.480 59.800 C 380.480 60.240,380.624 61.050,380.800 61.600 C 381.054 62.392,381.120 62.433,381.120 61.800 C 381.120 61.360,380.976 60.550,380.800 60.000 C 380.546 59.208,380.480 59.167,380.480 59.800 M399.728 63.200 C 399.728 64.630,399.801 65.215,399.889 64.500 C 399.978 63.785,399.978 62.615,399.889 61.900 C 399.801 61.185,399.728 61.770,399.728 63.200 M381.293 64.400 C 381.293 65.170,381.375 65.485,381.476 65.100 C 381.576 64.715,381.576 64.085,381.476 63.700 C 381.375 63.315,381.293 63.630,381.293 64.400 M381.709 67.600 C 381.709 68.590,381.787 68.995,381.882 68.500 C 381.978 68.005,381.978 67.195,381.882 66.700 C 381.787 66.205,381.709 66.610,381.709 67.600 M140.300 131.099 C 144.315 131.165,150.885 131.165,154.900 131.099 C 158.915 131.034,155.630 130.981,147.600 130.981 C 139.570 130.981,136.285 131.034,140.300 131.099 M131.383 132.127 C 131.255 132.636,131.219 133.941,131.303 135.027 C 131.453 136.968,131.457 136.961,131.528 134.580 C 131.568 133.249,131.816 131.944,132.080 131.680 C 132.445 131.315,132.447 131.200,132.088 131.200 C 131.828 131.200,131.511 131.617,131.383 132.127 M130.600 139.200 C 130.446 140.110,130.404 140.938,130.507 141.040 C 130.610 141.143,130.813 140.477,130.960 139.560 C 131.107 138.643,131.148 137.815,131.053 137.720 C 130.958 137.624,130.754 138.290,130.600 139.200 M146.800 152.424 C 146.800 152.657,146.967 152.744,147.171 152.618 C 147.375 152.492,147.662 152.765,147.808 153.224 C 147.954 153.684,148.161 153.972,148.269 153.864 C 148.555 153.578,147.639 152.000,147.186 152.000 C 146.974 152.000,146.800 152.191,146.800 152.424 M268.100 165.897 C 269.585 165.974,272.015 165.974,273.500 165.897 C 274.985 165.820,273.770 165.757,270.800 165.757 C 267.830 165.757,266.615 165.820,268.100 165.897 M263.300 166.276 C 263.685 166.376,264.315 166.376,264.700 166.276 C 265.085 166.175,264.770 166.093,264.000 166.093 C 263.230 166.093,262.915 166.175,263.300 166.276 M259.000 166.800 C 257.981 167.238,259.032 167.238,260.400 166.800 C 261.204 166.543,261.243 166.477,260.600 166.468 C 260.160 166.462,259.440 166.611,259.000 166.800 M281.000 166.800 C 281.440 166.989,282.070 167.144,282.400 167.144 C 282.778 167.144,282.704 167.017,282.200 166.800 C 281.760 166.611,281.130 166.456,280.800 166.456 C 280.422 166.456,280.496 166.583,281.000 166.800 M294.010 171.326 C 294.609 171.974,297.295 173.597,296.818 173.022 C 296.510 172.651,295.705 172.066,295.029 171.723 C 294.353 171.379,293.895 171.201,294.010 171.326 M241.600 174.849 C 240.206 176.071,240.205 176.072,241.488 175.219 C 242.196 174.748,242.882 174.191,243.012 173.981 C 243.397 173.357,243.077 173.554,241.600 174.849 M237.600 178.200 C 236.628 179.190,235.937 180.000,236.064 180.000 C 236.191 180.000,237.105 179.190,238.095 178.200 C 239.085 177.210,239.776 176.400,239.631 176.400 C 239.485 176.400,238.572 177.210,237.600 178.200 M302.643 179.000 C 303.543 180.100,304.781 181.765,305.393 182.700 C 306.005 183.635,306.593 184.400,306.699 184.400 C 307.182 184.400,302.809 178.417,301.673 177.524 C 301.307 177.236,301.743 177.900,302.643 179.000 M138.840 179.040 C 138.610 179.873,138.494 180.627,138.582 180.715 C 138.670 180.803,138.930 180.193,139.160 179.360 C 139.390 178.527,139.506 177.773,139.418 177.685 C 139.330 177.597,139.070 178.207,138.840 179.040 M234.959 181.300 C 233.207 183.321,232.687 184.000,232.890 184.000 C 233.007 184.000,233.767 183.190,234.579 182.200 C 236.081 180.366,236.379 179.663,234.959 181.300 M264.200 183.200 C 263.181 183.638,264.232 183.638,265.600 183.200 C 266.404 182.943,266.443 182.877,265.800 182.868 C 265.360 182.862,264.640 183.011,264.200 183.200 M274.000 183.200 C 275.368 183.638,276.419 183.638,275.400 183.200 C 274.960 183.011,274.240 182.862,273.800 182.868 C 273.157 182.877,273.196 182.943,274.000 183.200 M260.511 184.619 C 259.386 185.180,258.231 185.921,257.945 186.266 C 257.658 186.612,258.309 186.333,259.390 185.647 C 260.472 184.961,261.581 184.400,261.855 184.400 C 262.129 184.400,262.464 184.220,262.600 184.000 C 262.950 183.434,262.803 183.478,260.511 184.619 M307.400 186.000 C 307.741 186.660,308.111 187.200,308.221 187.200 C 308.331 187.200,308.141 186.660,307.800 186.000 C 307.459 185.340,307.089 184.800,306.979 184.800 C 306.869 184.800,307.059 185.340,307.400 186.000 M280.400 185.278 C 282.958 187.657,284.472 188.833,283.200 187.453 C 282.430 186.618,281.440 185.745,281.000 185.513 C 280.560 185.281,280.290 185.175,280.400 185.278 M230.700 187.120 C 229.472 188.977,227.511 192.800,227.788 192.800 C 227.898 192.800,228.524 191.765,229.178 190.500 C 229.833 189.235,230.753 187.615,231.223 186.900 C 231.694 186.185,231.995 185.600,231.892 185.600 C 231.790 185.600,231.254 186.284,230.700 187.120 M255.758 188.100 C 254.531 189.429,253.097 191.322,253.863 190.600 C 254.717 189.795,257.288 186.800,257.125 186.800 C 257.033 186.800,256.417 187.385,255.758 188.100 M160.648 193.000 C 160.791 193.660,161.066 194.470,161.259 194.800 C 161.484 195.184,161.518 194.968,161.352 194.200 C 161.209 193.540,160.934 192.730,160.741 192.400 C 160.516 192.016,160.482 192.232,160.648 193.000 M185.451 193.174 C 185.827 194.639,186.771 196.686,186.755 196.000 C 186.747 195.670,186.394 194.680,185.971 193.800 C 185.548 192.920,185.314 192.638,185.451 193.174 M287.628 196.276 C 287.718 197.315,288.344 198.196,288.372 197.324 C 288.387 196.842,288.220 196.336,288.000 196.200 C 287.780 196.064,287.613 196.098,287.628 196.276 M311.656 197.200 C 311.656 197.530,311.811 198.160,312.000 198.600 C 312.217 199.104,312.344 199.178,312.344 198.800 C 312.344 198.470,312.189 197.840,312.000 197.400 C 311.783 196.896,311.656 196.822,311.656 197.200 M224.846 199.667 C 224.821 200.034,224.696 200.664,224.570 201.067 C 224.352 201.762,224.363 201.763,224.797 201.087 C 225.048 200.696,225.173 200.066,225.073 199.687 C 224.911 199.068,224.888 199.066,224.846 199.667 M288.450 202.492 C 288.394 205.955,288.504 205.846,284.800 206.125 C 283.297 206.238,283.405 206.272,285.451 206.330 C 288.721 206.423,289.490 205.246,288.805 201.200 C 288.528 199.566,288.496 199.684,288.450 202.492 M312.600 208.849 C 312.600 213.332,312.722 216.190,312.870 215.200 C 313.225 212.836,313.230 204.225,312.877 202.249 C 312.725 201.396,312.600 204.366,312.600 208.849 M248.600 202.800 C 248.446 203.710,248.404 204.538,248.507 204.640 C 248.610 204.743,248.813 204.077,248.960 203.160 C 249.107 202.243,249.148 201.415,249.053 201.320 C 248.958 201.224,248.754 201.890,248.600 202.800 M224.046 202.467 C 224.021 202.834,223.896 203.464,223.770 203.867 C 223.552 204.562,223.563 204.563,223.997 203.887 C 224.248 203.496,224.373 202.866,224.273 202.487 C 224.111 201.868,224.088 201.866,224.046 202.467 M223.249 206.000 C 223.216 206.330,223.089 207.050,222.967 207.600 C 222.775 208.464,222.807 208.503,223.199 207.888 C 223.448 207.497,223.575 206.777,223.481 206.288 C 223.386 205.800,223.282 205.670,223.249 206.000 M165.502 209.000 C 165.397 209.550,165.466 210.000,165.655 210.000 C 165.845 210.000,166.000 209.550,166.000 209.000 C 166.000 208.450,165.931 208.000,165.847 208.000 C 165.762 208.000,165.607 208.450,165.502 209.000 M222.301 214.100 C 222.182 216.135,222.215 219.420,222.375 221.400 C 222.625 224.503,222.672 223.993,222.710 217.700 C 222.760 209.628,222.630 208.489,222.301 214.100 M311.817 219.945 C 311.666 220.421,311.120 220.818,310.481 220.915 L 309.400 221.080 310.486 221.140 C 311.497 221.196,312.805 219.872,312.269 219.336 C 312.161 219.228,311.958 219.502,311.817 219.945 M306.705 221.483 C 307.202 221.579,307.922 221.575,308.305 221.475 C 308.687 221.375,308.280 221.296,307.400 221.301 C 306.520 221.305,306.207 221.387,306.705 221.483 M248.662 221.900 C 248.493 222.172,269.040 222.169,295.000 221.892 C 300.500 221.834,292.366 221.744,276.924 221.693 C 261.482 221.642,248.764 221.735,248.662 221.900 M248.428 226.233 C 248.444 226.875,248.616 227.760,248.810 228.200 C 249.047 228.734,249.086 228.402,248.927 227.200 C 248.646 225.080,248.388 224.580,248.428 226.233 M223.062 228.600 C 223.196 229.480,223.372 230.275,223.453 230.367 C 223.756 230.710,223.529 228.568,223.181 227.800 C 222.929 227.242,222.893 227.485,223.062 228.600 M223.656 232.000 C 223.656 232.330,223.811 232.960,224.000 233.400 C 224.217 233.904,224.344 233.978,224.344 233.600 C 224.344 233.270,224.189 232.640,224.000 232.200 C 223.783 231.696,223.656 231.622,223.656 232.000 M224.644 235.800 C 224.973 237.271,225.202 237.590,225.194 236.567 C 225.191 236.145,225.005 235.530,224.782 235.200 C 224.485 234.762,224.448 234.924,224.644 235.800 M252.277 237.231 C 252.675 237.908,253.256 238.673,253.568 238.931 C 253.880 239.189,253.632 238.635,253.015 237.700 C 251.720 235.737,251.209 235.412,252.277 237.231 M255.061 240.913 C 255.687 241.635,256.740 242.656,257.400 243.181 C 258.060 243.706,257.616 243.116,256.414 241.868 C 254.008 239.373,253.275 238.855,255.061 240.913 M202.651 241.574 C 203.027 243.039,203.971 245.086,203.955 244.400 C 203.947 244.070,203.594 243.080,203.171 242.200 C 202.748 241.320,202.514 241.038,202.651 241.574 M301.800 245.414 C 300.795 245.898,300.763 245.953,301.600 245.751 C 302.150 245.619,302.771 245.350,302.980 245.155 C 303.498 244.671,303.214 244.733,301.800 245.414 M177.172 246.246 C 177.675 247.919,178.346 249.465,178.369 249.000 C 178.394 248.465,177.417 245.683,177.086 245.353 C 176.942 245.209,176.981 245.611,177.172 246.246 M305.200 253.311 C 305.200 260.020,305.091 261.593,304.568 262.411 L 303.936 263.400 304.768 262.456 C 305.554 261.563,306.154 245.200,305.400 245.200 C 305.290 245.200,305.200 248.850,305.200 253.311 M297.816 246.664 C 296.945 246.978,296.135 247.331,296.017 247.450 C 295.701 247.766,298.009 247.153,299.400 246.551 C 301.000 245.858,299.817 245.943,297.816 246.664 M262.800 246.631 C 262.800 246.901,264.878 247.656,265.076 247.457 C 265.167 247.367,264.692 247.101,264.020 246.867 C 263.349 246.633,262.800 246.527,262.800 246.631 M229.600 247.363 C 229.600 247.884,233.587 253.468,234.519 254.252 L 235.400 254.994 234.537 253.997 C 234.062 253.449,232.757 251.663,231.637 250.029 C 230.517 248.395,229.600 247.195,229.600 247.363 M269.200 248.800 C 269.750 248.976,270.560 249.120,271.000 249.120 C 271.633 249.120,271.592 249.054,270.800 248.800 C 270.250 248.624,269.440 248.480,269.000 248.480 C 268.367 248.480,268.408 248.546,269.200 248.800 M289.200 248.800 C 287.856 249.231,289.308 249.231,291.000 248.800 C 292.078 248.526,292.098 248.494,291.200 248.487 C 290.650 248.483,289.750 248.624,289.200 248.800 M274.307 249.490 C 275.026 249.579,276.106 249.577,276.707 249.486 C 277.308 249.395,276.720 249.322,275.400 249.324 C 274.080 249.326,273.588 249.401,274.307 249.490 M283.107 249.490 C 283.826 249.579,284.906 249.577,285.507 249.486 C 286.108 249.395,285.520 249.322,284.200 249.324 C 282.880 249.326,282.388 249.401,283.107 249.490 M279.100 249.882 C 279.595 249.978,280.405 249.978,280.900 249.882 C 281.395 249.787,280.990 249.709,280.000 249.709 C 279.010 249.709,278.605 249.787,279.100 249.882 M242.000 260.990 C 242.000 261.094,242.585 261.465,243.300 261.814 L 244.600 262.448 243.600 261.633 C 242.637 260.848,242.000 260.592,242.000 260.990 M86.963 265.005 C 86.424 267.153,86.687 267.200,99.225 267.200 C 105.565 267.200,110.836 267.065,110.938 266.900 C 111.040 266.735,105.786 266.600,99.262 266.600 L 87.400 266.600 87.459 265.300 C 87.529 263.747,87.311 263.618,86.963 265.005 M210.851 265.000 C 210.874 265.440,210.871 266.025,210.846 266.300 C 210.810 266.689,207.955 266.800,198.029 266.800 L 185.258 266.800 184.429 265.746 C 183.973 265.166,183.600 264.865,183.600 265.076 C 183.600 267.033,184.740 267.200,198.077 267.200 C 211.832 267.200,212.295 267.126,211.262 265.090 C 210.845 264.270,210.813 264.262,210.851 265.000 M292.400 266.800 C 291.576 267.064,291.541 267.126,292.200 267.154 C 292.640 267.173,293.270 267.013,293.600 266.800 C 294.301 266.347,293.814 266.347,292.400 266.800 M258.200 267.600 C 258.640 267.789,259.360 267.938,259.800 267.932 C 260.443 267.923,260.404 267.857,259.600 267.600 C 258.232 267.162,257.181 267.162,258.200 267.600 M288.600 267.600 C 287.511 267.877,287.493 267.907,288.400 267.925 C 288.950 267.935,289.760 267.789,290.200 267.600 C 291.186 267.176,290.266 267.176,288.600 267.600 M262.400 268.398 C 263.388 268.716,267.089 268.935,266.767 268.656 C 266.675 268.577,265.430 268.414,264.000 268.294 C 262.440 268.163,261.800 268.205,262.400 268.398 M283.000 268.400 L 281.000 268.674 282.800 268.697 C 283.790 268.710,285.050 268.576,285.600 268.400 C 286.844 268.001,285.906 268.001,283.000 268.400 M271.317 269.097 C 272.811 269.174,275.151 269.174,276.517 269.096 C 277.882 269.018,276.660 268.955,273.800 268.955 C 270.940 268.956,269.822 269.020,271.317 269.097 M18.101 332.600 C 18.105 333.480,18.187 333.793,18.283 333.295 C 18.379 332.798,18.375 332.078,18.275 331.695 C 18.175 331.313,18.096 331.720,18.101 332.600 M0.128 336.400 C 0.128 337.830,0.201 338.415,0.289 337.700 C 0.378 336.985,0.378 335.815,0.289 335.100 C 0.201 334.385,0.128 334.970,0.128 336.400 M18.501 335.800 C 18.505 336.680,18.587 336.993,18.683 336.495 C 18.779 335.998,18.775 335.278,18.675 334.895 C 18.575 334.513,18.496 334.920,18.501 335.800 M19.062 339.400 C 19.196 340.280,19.372 341.075,19.453 341.167 C 19.756 341.510,19.529 339.368,19.181 338.600 C 18.929 338.042,18.893 338.285,19.062 339.400 M0.469 341.800 C 0.521 342.570,0.707 343.200,0.882 343.200 C 1.057 343.200,1.200 342.570,1.200 341.800 C 1.200 341.030,1.014 340.400,0.787 340.400 C 0.561 340.400,0.417 341.030,0.469 341.800 M1.200 345.400 C 1.200 345.950,1.380 346.400,1.600 346.400 C 1.820 346.400,2.000 345.950,2.000 345.400 C 2.000 344.850,1.820 344.400,1.600 344.400 C 1.380 344.400,1.200 344.850,1.200 345.400 M2.000 348.600 C 2.000 349.150,2.180 349.600,2.400 349.600 C 2.620 349.600,2.800 349.150,2.800 348.600 C 2.800 348.050,2.620 347.600,2.400 347.600 C 2.180 347.600,2.000 348.050,2.000 348.600 M2.800 351.000 C 2.800 351.550,2.980 352.000,3.200 352.000 C 3.420 352.000,3.600 351.550,3.600 351.000 C 3.600 350.450,3.420 350.000,3.200 350.000 C 2.980 350.000,2.800 350.450,2.800 351.000 M3.600 353.224 C 3.600 353.677,3.780 353.936,4.000 353.800 C 4.220 353.664,4.400 353.293,4.400 352.976 C 4.400 352.659,4.220 352.400,4.000 352.400 C 3.780 352.400,3.600 352.771,3.600 353.224 M4.475 355.300 C 4.624 356.369,5.521 357.421,5.919 356.993 C 6.074 356.827,5.975 356.610,5.700 356.512 C 5.425 356.414,5.200 355.898,5.200 355.367 C 5.200 354.835,5.009 354.400,4.775 354.400 C 4.541 354.400,4.406 354.805,4.475 355.300 M6.000 358.800 C 6.000 359.240,6.180 359.600,6.400 359.600 C 6.620 359.600,6.800 359.960,6.800 360.400 C 6.800 360.840,6.980 361.200,7.200 361.200 C 7.420 361.200,7.600 361.560,7.600 362.000 C 7.600 362.440,7.780 362.800,8.000 362.800 C 8.220 362.800,8.400 363.145,8.400 363.567 C 8.400 363.988,8.590 364.397,8.822 364.474 C 9.054 364.551,9.287 364.881,9.340 365.207 C 9.394 365.533,9.969 366.610,10.619 367.600 C 11.268 368.590,11.890 369.614,12.000 369.875 C 12.263 370.500,14.572 373.226,16.700 375.423 C 17.635 376.389,18.400 377.369,18.400 377.602 C 18.400 377.835,18.663 378.126,18.985 378.250 C 19.306 378.373,19.679 378.817,19.812 379.237 C 20.039 379.954,21.216 380.350,21.187 379.700 C 21.155 378.997,19.589 377.560,19.149 377.831 C 18.854 378.014,18.783 377.952,18.960 377.665 C 19.116 377.413,18.828 376.769,18.322 376.234 C 15.848 373.623,14.800 372.393,14.800 372.100 C 14.800 371.923,14.260 371.187,13.600 370.464 C 12.940 369.742,12.400 368.974,12.400 368.759 C 12.400 368.543,12.040 367.980,11.600 367.508 C 11.160 367.036,10.800 366.413,10.800 366.125 C 10.800 365.836,10.620 365.600,10.400 365.600 C 10.180 365.600,10.000 365.330,10.000 365.000 C 10.000 364.670,9.820 364.400,9.600 364.400 C 9.380 364.400,9.200 364.040,9.200 363.600 C 9.200 363.160,9.020 362.800,8.800 362.800 C 8.580 362.800,8.400 362.440,8.400 362.000 C 8.400 361.560,8.220 361.200,8.000 361.200 C 7.780 361.200,7.600 360.840,7.600 360.400 C 7.600 359.960,7.420 359.600,7.200 359.600 C 6.980 359.600,6.800 359.240,6.800 358.800 C 6.800 358.360,6.620 358.000,6.400 358.000 C 6.180 358.000,6.000 358.360,6.000 358.800 M30.319 362.600 C 31.156 363.823,35.941 368.556,37.411 369.616 C 37.857 369.937,37.277 369.334,36.122 368.277 C 34.967 367.219,33.004 365.239,31.760 363.877 C 30.516 362.514,29.867 361.940,30.319 362.600 M56.033 379.744 C 56.125 379.823,56.740 380.008,57.400 380.156 C 58.276 380.352,58.438 380.315,58.000 380.018 C 57.460 379.653,55.632 379.398,56.033 379.744 M21.600 380.813 C 21.600 381.039,21.909 381.344,22.287 381.489 C 22.664 381.633,23.732 382.483,24.659 383.376 C 26.702 385.345,29.855 388.000,30.150 388.000 C 30.268 388.000,31.047 388.464,31.882 389.031 C 32.717 389.598,34.255 390.430,35.300 390.880 C 36.345 391.330,37.200 391.856,37.200 392.049 C 37.200 392.242,37.560 392.400,38.000 392.400 C 38.440 392.400,38.800 392.580,38.800 392.800 C 38.800 393.020,39.160 393.200,39.600 393.200 C 40.040 393.200,40.400 393.380,40.400 393.600 C 40.400 393.820,40.760 394.000,41.200 394.000 C 41.640 394.000,42.000 393.820,42.000 393.600 C 42.000 393.380,41.640 393.200,41.200 393.200 C 40.760 393.200,40.400 393.020,40.400 392.800 C 40.400 392.580,40.040 392.400,39.600 392.400 C 39.160 392.400,38.800 392.220,38.800 392.000 C 38.800 391.780,38.440 391.600,38.000 391.600 C 37.560 391.600,37.200 391.454,37.200 391.275 C 37.200 391.096,36.570 390.702,35.800 390.400 C 35.030 390.098,34.400 389.704,34.400 389.525 C 34.400 389.346,34.130 389.200,33.800 389.200 C 33.470 389.200,33.200 389.020,33.200 388.800 C 33.200 388.580,32.930 388.400,32.600 388.400 C 32.270 388.400,32.000 388.220,32.000 388.000 C 32.000 387.780,31.730 387.600,31.400 387.600 C 31.070 387.600,30.800 387.409,30.800 387.176 C 30.800 386.943,30.643 386.850,30.450 386.969 C 30.258 387.088,29.765 386.738,29.355 386.192 C 28.946 385.647,28.394 385.200,28.131 385.200 C 27.867 385.200,26.875 384.494,25.926 383.632 C 22.195 380.241,21.600 379.853,21.600 380.813 M60.000 380.800 C 60.550 380.976,61.360 381.120,61.800 381.120 C 62.433 381.120,62.392 381.054,61.600 380.800 C 61.050 380.624,60.240 380.480,59.800 380.480 C 59.167 380.480,59.208 380.546,60.000 380.800 M63.700 381.476 C 64.085 381.576,64.715 381.576,65.100 381.476 C 65.485 381.375,65.170 381.293,64.400 381.293 C 63.630 381.293,63.315 381.375,63.700 381.476 M66.700 381.882 C 67.195 381.978,68.005 381.978,68.500 381.882 C 68.995 381.787,68.590 381.709,67.600 381.709 C 66.610 381.709,66.205 381.787,66.700 381.882 M42.800 394.229 C 42.800 394.354,43.057 394.714,43.371 395.029 C 44.023 395.681,45.600 395.802,45.600 395.200 C 45.600 394.980,45.150 394.800,44.600 394.800 C 44.050 394.800,43.600 394.620,43.600 394.400 C 43.600 394.180,43.420 394.000,43.200 394.000 C 42.980 394.000,42.800 394.103,42.800 394.229 M46.000 396.000 C 46.000 396.220,46.360 396.400,46.800 396.400 C 47.240 396.400,47.600 396.220,47.600 396.000 C 47.600 395.780,47.240 395.600,46.800 395.600 C 46.360 395.600,46.000 395.780,46.000 396.000 M48.800 396.800 C 48.800 397.020,49.070 397.200,49.400 397.200 C 49.730 397.200,50.000 397.020,50.000 396.800 C 50.000 396.580,49.730 396.400,49.400 396.400 C 49.070 396.400,48.800 396.580,48.800 396.800 M50.400 397.600 C 50.400 397.820,50.940 398.000,51.600 398.000 C 52.260 398.000,52.800 397.820,52.800 397.600 C 52.800 397.380,52.260 397.200,51.600 397.200 C 50.940 397.200,50.400 397.380,50.400 397.600 M53.400 398.400 C 53.256 398.633,53.663 398.800,54.376 398.800 C 55.049 398.800,55.600 398.620,55.600 398.400 C 55.600 398.180,55.161 398.000,54.624 398.000 C 54.087 398.000,53.536 398.180,53.400 398.400 M56.800 399.200 C 56.800 399.420,57.430 399.600,58.200 399.600 C 58.970 399.600,59.600 399.420,59.600 399.200 C 59.600 398.980,58.970 398.800,58.200 398.800 C 57.430 398.800,56.800 398.980,56.800 399.200 M61.891 399.889 C 62.601 399.977,63.861 399.979,64.691 399.892 C 65.521 399.805,64.940 399.733,63.400 399.731 C 61.860 399.729,61.181 399.800,61.891 399.889 " stroke="none" fill="#7c4c9c" fill-rule="evenodd"></path></g></svg>