<svg id="svg" version="1.1" xmlns="http://www.w3.org/2000/svg" xmlns:xlink="http://www.w3.org/1999/xlink" width="400" height="400" viewBox="0, 0, 400,400"><g id="svgg"><path id="path0" d="M138.400 74.784 C 138.070 75.006,137.316 75.191,136.724 75.194 C 136.132 75.197,135.536 75.380,135.400 75.600 C 135.264 75.820,134.801 76.000,134.371 76.000 C 133.941 76.000,133.277 76.160,132.895 76.356 C 132.513 76.552,131.300 77.131,130.200 77.643 C 126.218 79.495,119.433 83.757,113.745 87.978 C 112.395 88.980,110.901 90.070,110.426 90.400 C 109.443 91.082,110.291 91.372,114.707 91.865 C 115.866 91.994,116.912 92.258,117.031 92.450 C 117.150 92.643,117.599 92.800,118.029 92.800 C 118.459 92.800,119.123 92.958,119.505 93.151 C 122.655 94.743,125.600 94.743,125.600 93.150 C 125.600 92.958,125.790 92.800,126.022 92.800 C 126.254 92.800,127.469 92.115,128.722 91.277 C 132.502 88.750,140.020 85.354,140.585 85.919 C 140.924 86.258,140.835 88.341,140.449 89.105 C 140.256 89.487,139.322 91.420,138.374 93.400 C 130.993 108.816,108.179 132.931,88.700 145.907 C 83.588 149.313,76.118 152.767,75.153 152.171 C 74.671 151.873,74.706 150.105,75.200 149.800 C 75.420 149.664,75.600 149.113,75.600 148.576 C 75.600 148.039,75.780 147.600,76.000 147.600 C 76.220 147.600,76.400 147.348,76.400 147.041 C 76.400 146.119,80.298 139.101,82.239 136.527 C 83.345 135.061,83.440 134.025,82.615 132.429 C 81.619 130.504,80.400 125.324,80.400 123.020 C 80.400 120.558,79.865 120.366,78.665 122.398 C 78.284 123.043,77.747 123.802,77.473 124.085 C 77.198 124.368,76.538 125.230,76.006 126.000 C 75.474 126.770,74.925 127.490,74.787 127.600 C 73.711 128.456,67.515 138.821,66.418 141.600 C 66.115 142.370,65.749 143.180,65.605 143.400 C 65.462 143.620,65.113 144.610,64.830 145.600 C 64.548 146.590,64.155 147.813,63.958 148.319 C 63.243 150.153,63.532 156.264,64.424 158.162 C 67.490 164.683,75.500 165.297,86.800 159.876 C 88.670 158.979,90.290 158.145,90.400 158.023 C 90.510 157.900,90.960 157.603,91.400 157.362 C 93.411 156.263,94.215 155.751,94.955 155.100 C 95.393 154.715,95.987 154.400,96.275 154.400 C 96.564 154.400,96.800 154.259,96.800 154.086 C 96.800 153.914,97.302 153.476,97.916 153.113 C 99.290 152.302,105.294 147.889,107.200 146.289 C 113.053 141.378,116.513 138.195,123.166 131.598 C 127.003 127.793,135.388 118.234,137.199 115.600 C 137.728 114.830,138.269 114.110,138.400 114.000 C 138.531 113.890,139.071 113.170,139.600 112.400 C 140.129 111.630,140.675 110.910,140.813 110.800 C 142.672 109.322,149.453 97.084,151.230 92.000 C 153.495 85.521,151.422 76.000,147.745 76.000 C 147.445 76.000,147.200 75.840,147.200 75.645 C 147.200 74.836,139.450 74.077,138.400 74.784 M252.617 83.492 C 248.129 84.632,247.037 90.918,250.855 93.641 L 252.200 94.600 295.200 94.719 C 318.850 94.784,338.971 94.727,339.913 94.592 C 345.728 93.760,346.098 84.600,340.363 83.453 C 338.890 83.158,253.781 83.196,252.617 83.492 M232.868 110.398 C 228.001 111.546,227.015 118.192,231.322 120.818 C 233.066 121.881,339.544 122.063,341.588 121.006 C 344.877 119.306,345.526 114.632,342.847 111.953 L 341.294 110.400 288.280 110.400 C 259.122 110.400,235.026 110.329,234.733 110.242 C 234.440 110.155,233.600 110.225,232.868 110.398 M232.619 137.373 C 227.895 138.833,227.186 144.663,231.354 147.775 C 232.612 148.715,336.983 149.320,340.373 148.407 C 346.172 146.846,345.843 138.707,339.923 137.259 C 337.148 136.580,234.831 136.689,232.619 137.373 M79.085 174.283 C 74.140 175.049,73.567 182.726,78.274 185.150 C 79.934 186.005,161.469 185.764,163.200 184.899 C 166.667 183.167,167.236 178.894,164.402 175.856 L 162.858 174.200 121.529 174.155 C 98.798 174.131,79.698 174.189,79.085 174.283 M53.936 201.338 C 49.463 203.325,48.744 208.486,52.537 211.379 L 53.876 212.400 108.247 212.400 L 162.618 212.400 164.034 211.232 C 167.698 208.213,166.612 202.782,162.040 201.254 C 160.055 200.591,55.436 200.671,53.936 201.338 M53.194 228.742 C 49.152 230.892,49.157 236.479,53.202 238.753 L 54.709 239.600 108.200 239.600 L 161.691 239.600 163.246 238.726 C 167.222 236.492,167.200 230.867,163.206 228.742 C 161.033 227.585,55.367 227.585,53.194 228.742 " stroke="none" fill="#088aab" fill-rule="evenodd"></path><path id="path1" d="M20.000 80.387 C 20.000 80.614,19.458 80.800,18.795 80.800 C 18.132 80.800,17.232 80.980,16.795 81.200 C 16.358 81.420,15.642 81.780,15.205 82.000 C 14.768 82.220,14.138 82.400,13.805 82.400 C 13.472 82.400,13.200 82.580,13.200 82.800 C 13.200 83.020,12.930 83.200,12.600 83.200 C 12.270 83.200,12.000 83.380,12.000 83.600 C 12.000 83.820,11.683 84.000,11.296 84.000 C 10.909 84.000,10.368 84.360,10.093 84.800 C 9.818 85.240,9.397 85.600,9.157 85.600 C 8.596 85.600,5.200 89.184,5.200 89.775 C 5.200 90.022,4.840 90.483,4.400 90.800 C 3.960 91.117,3.600 91.509,3.600 91.671 C 3.600 91.832,3.145 92.634,2.590 93.453 C 2.034 94.272,1.467 95.405,1.328 95.971 C 1.190 96.537,0.880 97.128,0.638 97.285 C -0.041 97.728,0.020 313.273,0.700 313.500 C 0.975 313.592,1.200 314.001,1.200 314.410 C 1.200 314.818,1.380 315.264,1.600 315.400 C 1.820 315.536,2.000 315.963,2.000 316.348 C 2.000 316.734,2.360 317.436,2.800 317.908 C 3.240 318.380,3.600 318.972,3.600 319.223 C 3.600 319.474,4.140 320.183,4.800 320.800 C 5.460 321.417,6.000 322.027,6.000 322.157 C 6.000 322.667,7.740 324.361,8.060 324.163 C 8.247 324.047,8.400 324.233,8.400 324.576 C 8.400 324.919,8.670 325.200,9.000 325.200 C 9.330 325.200,9.600 325.380,9.600 325.600 C 9.600 325.820,9.870 326.000,10.200 326.000 C 10.530 326.000,10.800 326.180,10.800 326.400 C 10.800 326.620,11.070 326.800,11.400 326.800 C 11.730 326.800,12.000 326.980,12.000 327.200 C 12.000 327.420,12.270 327.600,12.600 327.600 C 12.930 327.600,13.200 327.760,13.200 327.956 C 13.200 328.152,14.010 328.551,15.000 328.843 C 15.990 329.135,16.800 329.515,16.800 329.687 C 16.800 329.859,17.329 330.000,17.976 330.000 C 18.623 330.000,19.264 330.180,19.400 330.400 C 19.564 330.665,59.937 330.800,139.224 330.800 L 258.800 330.800 258.800 332.654 C 258.800 337.124,261.492 342.400,263.773 342.400 C 264.092 342.400,264.464 342.580,264.600 342.800 C 264.927 343.329,272.400 343.329,272.400 342.800 C 272.400 342.580,272.771 342.400,273.224 342.400 C 273.677 342.400,273.936 342.220,273.800 342.000 C 273.664 341.780,273.841 341.600,274.193 341.600 C 274.845 341.600,275.293 341.297,277.001 339.700 C 277.530 339.205,278.107 338.796,278.282 338.791 C 278.457 338.786,279.295 338.156,280.144 337.391 C 280.993 336.626,281.842 336.000,282.031 336.000 C 282.219 336.000,283.003 335.370,283.773 334.600 C 284.543 333.830,285.383 333.200,285.640 333.200 C 285.896 333.200,286.467 332.795,286.907 332.300 C 287.450 331.690,287.765 331.561,287.887 331.900 C 287.986 332.175,288.295 332.400,288.574 332.400 C 288.853 332.400,289.646 332.940,290.337 333.600 C 291.028 334.260,291.684 334.800,291.796 334.800 C 291.907 334.800,292.763 335.520,293.697 336.400 C 294.631 337.280,295.533 338.000,295.701 338.000 C 295.870 338.000,296.539 338.508,297.189 339.129 C 297.838 339.750,299.007 340.601,299.785 341.020 C 300.563 341.439,301.200 341.921,301.200 342.091 C 301.200 342.261,301.560 342.400,302.000 342.400 C 302.440 342.400,302.800 342.580,302.800 342.800 C 302.800 343.039,304.333 343.200,306.600 343.200 C 308.867 343.200,310.400 343.039,310.400 342.800 C 310.400 342.580,310.678 342.400,311.017 342.400 C 312.241 342.400,315.200 339.387,315.200 338.141 C 315.200 337.623,315.380 337.200,315.600 337.200 C 315.833 337.200,316.000 335.867,316.000 334.000 L 316.000 330.800 346.700 330.750 C 363.585 330.722,377.895 330.709,378.500 330.722 C 379.105 330.734,379.600 330.616,379.600 330.459 C 379.600 330.303,380.077 330.135,380.660 330.087 C 381.242 330.039,381.929 329.825,382.186 329.611 C 382.443 329.398,383.214 329.181,383.899 329.129 C 384.584 329.077,385.056 328.891,384.949 328.717 C 384.841 328.543,385.134 328.400,385.600 328.400 C 386.145 328.400,386.344 328.233,386.158 327.932 C 385.964 327.619,386.085 327.547,386.524 327.715 C 386.892 327.857,387.315 327.728,387.489 327.421 C 387.660 327.122,388.160 326.814,388.600 326.738 C 389.354 326.608,391.580 324.518,391.594 323.928 C 391.597 323.778,392.005 323.598,392.500 323.528 C 393.070 323.447,393.380 323.143,393.344 322.700 C 393.310 322.261,393.570 322.000,394.044 322.000 C 394.460 322.000,394.800 321.730,394.800 321.400 C 394.800 321.070,394.999 320.800,395.243 320.800 C 395.486 320.800,395.586 320.539,395.463 320.220 C 395.315 319.833,395.433 319.715,395.820 319.863 C 396.190 320.005,396.400 319.833,396.400 319.390 C 396.400 319.007,396.781 318.363,397.247 317.959 C 397.713 317.555,397.998 316.971,397.879 316.661 C 397.760 316.351,397.862 315.898,398.106 315.654 C 398.350 315.410,398.610 314.811,398.685 314.323 C 398.759 313.834,399.041 313.298,399.310 313.132 C 400.149 312.613,400.175 100.404,399.336 98.000 C 398.990 97.010,398.593 96.110,398.454 96.000 C 398.314 95.890,398.139 95.440,398.064 95.000 C 397.989 94.560,397.646 93.885,397.302 93.500 C 396.958 93.115,396.792 92.800,396.934 92.800 C 397.273 92.800,396.085 91.353,394.700 90.079 C 394.095 89.523,393.600 88.828,393.600 88.534 C 393.600 88.240,393.359 88.000,393.064 88.000 C 392.770 88.000,392.323 87.549,392.072 86.998 C 391.820 86.446,391.477 86.017,391.307 86.045 C 390.507 86.175,389.977 85.961,390.200 85.600 C 390.336 85.380,390.167 85.200,389.824 85.200 C 389.481 85.200,389.200 84.930,389.200 84.600 C 389.200 84.261,388.842 84.000,388.376 84.000 C 387.923 84.000,387.664 83.820,387.800 83.600 C 387.944 83.366,387.533 83.200,386.811 83.200 C 386.083 83.200,385.481 82.954,385.346 82.602 C 385.219 82.274,384.955 82.104,384.758 82.226 C 384.561 82.348,384.400 82.257,384.400 82.024 C 384.400 81.791,384.130 81.600,383.800 81.600 C 383.470 81.600,383.200 81.425,383.200 81.212 C 383.200 80.999,382.554 80.849,381.764 80.878 C 380.975 80.908,380.209 80.738,380.063 80.501 C 379.895 80.230,378.236 80.094,375.598 80.135 L 371.400 80.200 371.197 185.600 L 370.993 291.000 370.038 293.400 C 367.525 299.715,361.786 305.012,355.800 306.544 C 353.254 307.195,315.540 307.347,315.134 306.708 C 314.957 306.428,314.809 301.025,314.806 294.700 L 314.800 283.200 287.600 283.200 L 260.400 283.200 260.400 294.567 C 260.400 300.819,260.291 306.219,260.157 306.567 C 259.807 307.479,48.158 307.544,44.661 306.633 C 38.091 304.921,32.579 299.961,29.959 293.400 L 29.000 291.000 28.912 185.600 L 28.825 80.200 24.412 80.087 C 21.571 80.014,20.000 80.121,20.000 80.387 M102.200 93.079 C 101.100 93.398,99.660 93.797,99.000 93.966 C 93.334 95.417,85.544 102.846,83.027 109.200 C 78.665 120.208,80.839 132.473,88.552 140.387 C 90.667 142.556,92.800 143.610,92.800 142.486 C 92.800 142.314,93.333 141.857,93.985 141.472 C 94.637 141.087,95.402 140.551,95.685 140.280 C 95.968 140.010,97.010 139.168,98.000 138.410 C 105.771 132.458,122.662 115.455,126.777 109.443 C 127.094 108.979,127.460 108.510,127.589 108.400 C 128.210 107.873,131.600 103.072,131.600 102.720 C 131.600 100.922,122.875 94.967,118.200 93.574 C 117.320 93.312,116.187 92.941,115.681 92.749 C 114.199 92.186,104.458 92.425,102.200 93.079 M133.806 121.027 C 127.631 128.408,117.077 138.808,108.862 145.607 C 104.221 149.449,104.229 149.511,109.400 149.531 C 125.969 149.594,138.494 136.640,137.928 120.027 L 137.800 116.254 133.806 121.027 M282.800 169.501 C 281.360 170.220,279.204 174.031,277.200 179.400 C 277.036 179.840,276.496 181.100,276.000 182.200 C 275.504 183.300,274.956 184.560,274.783 185.000 C 272.812 189.990,272.394 190.434,268.200 192.000 C 267.760 192.164,266.590 192.663,265.600 193.108 C 264.610 193.553,263.170 194.184,262.400 194.511 C 252.224 198.830,251.600 199.297,251.600 202.600 C 251.600 204.746,253.433 207.600,254.810 207.600 C 255.030 207.600,255.613 207.808,256.105 208.062 C 257.982 209.033,258.407 209.200,258.995 209.200 C 259.328 209.200,259.600 209.380,259.600 209.600 C 259.600 209.820,259.872 210.000,260.205 210.000 C 260.538 210.000,261.123 210.165,261.505 210.367 C 262.536 210.912,265.961 212.400,266.186 212.400 C 266.293 212.400,267.559 212.940,269.000 213.600 C 270.441 214.260,271.782 214.800,271.981 214.800 C 272.301 214.800,273.758 217.606,274.889 220.400 C 275.111 220.950,275.452 221.713,275.647 222.095 C 275.841 222.477,276.000 223.062,276.000 223.395 C 276.000 223.728,276.180 224.000,276.400 224.000 C 276.620 224.000,276.800 224.272,276.800 224.605 C 276.800 224.938,276.960 225.523,277.156 225.905 C 277.352 226.287,277.873 227.410,278.314 228.400 C 280.987 234.403,281.238 234.835,282.497 235.602 C 285.205 237.254,290.400 234.967,290.400 232.124 C 290.400 231.903,290.650 231.200,290.956 230.561 C 291.262 229.923,291.802 228.725,292.156 227.900 C 292.510 227.075,293.070 225.770,293.400 225.000 C 293.730 224.230,294.270 222.970,294.600 222.200 C 294.930 221.430,295.455 220.215,295.767 219.500 C 296.079 218.785,296.625 217.469,296.980 216.576 C 297.485 215.307,297.952 214.835,299.113 214.419 C 299.931 214.126,301.590 213.443,302.800 212.900 C 305.167 211.839,307.204 210.960,308.800 210.313 C 309.350 210.089,310.113 209.748,310.495 209.553 C 310.877 209.359,311.462 209.200,311.795 209.200 C 312.128 209.200,312.400 209.020,312.400 208.800 C 312.400 208.580,312.672 208.400,313.005 208.400 C 313.338 208.400,313.923 208.241,314.305 208.047 C 314.687 207.852,315.450 207.481,316.000 207.222 C 318.668 205.965,319.571 201.499,317.586 199.384 C 316.783 198.528,312.930 196.400,312.184 196.400 C 312.078 196.400,311.138 196.019,310.096 195.553 C 309.053 195.088,307.615 194.458,306.900 194.153 C 302.485 192.274,299.535 190.977,298.400 190.417 C 297.744 190.093,297.247 189.235,295.957 186.200 C 294.808 183.498,294.122 181.886,293.359 180.100 C 293.007 179.275,292.582 178.240,292.416 177.800 C 292.250 177.360,291.728 176.218,291.257 175.262 C 290.786 174.306,290.400 173.333,290.400 173.100 C 290.400 170.347,285.629 168.087,282.800 169.501 " stroke="none" fill="#e89474" fill-rule="evenodd"></path><path id="path2" d="M41.200 57.200 C 41.200 57.420,40.649 57.600,39.976 57.600 C 39.263 57.600,38.856 57.767,39.000 58.000 C 39.136 58.220,38.869 58.400,38.407 58.400 C 37.095 58.400,32.400 61.987,32.400 62.990 C 32.400 63.228,32.040 63.683,31.600 64.000 C 31.160 64.317,30.800 64.997,30.800 65.512 C 30.800 66.117,30.637 66.346,30.338 66.162 C 30.082 66.004,29.984 66.050,30.118 66.267 C 30.250 66.482,30.098 67.160,29.780 67.774 C 29.461 68.389,29.200 69.490,29.200 70.222 C 29.200 70.954,29.055 71.643,28.877 71.752 C 28.208 72.166,28.301 79.876,28.978 80.136 C 29.539 80.351,29.601 90.641,29.606 184.287 C 29.612 298.510,29.438 290.524,32.046 295.691 C 34.500 300.552,40.118 304.909,45.312 305.978 C 46.778 306.280,79.050 306.377,153.600 306.304 L 259.800 306.200 259.800 294.600 L 259.800 283.000 287.700 282.897 L 315.600 282.795 315.600 294.597 L 315.600 306.400 334.316 306.400 C 349.840 306.400,353.433 306.295,355.386 305.787 C 362.558 303.919,368.363 297.660,369.955 290.080 C 370.275 288.555,370.400 258.838,370.400 184.168 C 370.400 91.700,370.466 80.349,371.008 80.142 C 371.695 79.878,371.835 72.192,371.159 71.775 C 370.962 71.653,370.800 70.854,370.800 70.000 C 370.800 69.146,370.620 68.336,370.400 68.200 C 370.180 68.064,370.000 67.513,370.000 66.976 C 370.000 66.439,369.820 66.000,369.600 66.000 C 369.380 66.000,369.200 65.680,369.200 65.288 C 369.200 64.897,368.840 64.317,368.400 64.000 C 367.960 63.683,367.600 63.228,367.600 62.990 C 367.600 61.761,361.306 57.600,359.446 57.600 C 359.117 57.600,358.736 57.420,358.600 57.200 C 358.437 56.936,336.063 56.800,292.776 56.800 C 249.325 56.800,227.200 56.935,227.200 57.200 C 227.200 57.420,226.480 57.600,225.600 57.600 C 224.720 57.600,224.000 57.780,224.000 58.000 C 224.000 58.220,223.561 58.400,223.024 58.400 C 222.487 58.400,221.928 58.592,221.783 58.827 C 221.638 59.062,221.273 59.160,220.972 59.045 C 220.672 58.929,220.319 59.007,220.189 59.217 C 220.059 59.428,219.603 59.600,219.176 59.600 C 218.749 59.600,218.400 59.780,218.400 60.000 C 218.400 60.220,218.040 60.400,217.600 60.400 C 217.160 60.400,216.800 60.558,216.800 60.751 C 216.800 60.945,216.260 61.327,215.600 61.600 C 214.940 61.873,214.400 62.213,214.400 62.354 C 214.400 62.495,213.725 63.029,212.900 63.541 C 212.075 64.052,210.950 65.001,210.400 65.649 C 209.850 66.298,208.635 67.660,207.700 68.678 C 206.765 69.695,206.000 70.729,206.000 70.975 C 206.000 71.222,205.640 71.683,205.200 72.000 C 204.760 72.317,204.400 72.897,204.400 73.288 C 204.400 73.680,204.254 74.000,204.075 74.000 C 203.896 74.000,203.502 74.630,203.200 75.400 C 202.898 76.170,202.504 76.800,202.325 76.800 C 202.146 76.800,202.000 77.149,202.000 77.576 C 202.000 78.003,201.820 78.464,201.600 78.600 C 201.380 78.736,201.200 79.287,201.200 79.824 C 201.200 80.361,201.020 80.800,200.800 80.800 C 200.580 80.800,200.400 81.520,200.400 82.400 C 200.400 83.280,200.220 84.000,200.000 84.000 C 199.780 84.000,199.600 83.381,199.600 82.624 C 199.600 81.867,199.420 81.136,199.200 81.000 C 198.980 80.864,198.800 80.313,198.800 79.776 C 198.800 79.239,198.620 78.800,198.400 78.800 C 198.180 78.800,198.000 78.350,198.000 77.800 C 198.000 77.250,197.820 76.800,197.600 76.800 C 197.380 76.800,197.200 76.530,197.200 76.200 C 197.200 75.870,197.020 75.600,196.800 75.600 C 196.580 75.600,196.400 75.240,196.400 74.800 C 196.400 74.360,196.220 74.000,196.000 74.000 C 195.780 74.000,195.600 73.728,195.600 73.396 C 195.600 73.064,195.060 72.228,194.400 71.537 C 193.740 70.846,193.200 70.114,193.200 69.909 C 193.200 69.705,192.487 68.831,191.616 67.969 C 190.744 67.106,190.127 66.400,190.244 66.400 C 190.361 66.400,190.187 66.130,189.857 65.800 C 189.527 65.470,189.054 65.200,188.805 65.200 C 188.556 65.200,188.447 65.047,188.563 64.860 C 188.678 64.673,188.284 64.270,187.686 63.963 C 187.089 63.656,186.330 63.124,186.000 62.781 C 185.670 62.437,184.815 61.919,184.100 61.629 C 183.385 61.340,182.800 60.915,182.800 60.685 C 182.800 60.455,182.680 60.387,182.532 60.534 C 182.385 60.681,181.935 60.503,181.532 60.139 C 181.130 59.774,180.800 59.598,180.800 59.747 C 180.800 59.896,180.395 59.758,179.900 59.439 C 179.405 59.120,178.325 58.736,177.500 58.585 C 176.675 58.434,176.000 58.151,176.000 57.955 C 176.000 57.760,175.280 57.600,174.400 57.600 C 173.520 57.600,172.800 57.420,172.800 57.200 C 172.800 56.935,150.600 56.800,107.000 56.800 C 63.400 56.800,41.200 56.935,41.200 57.200 M146.904 74.799 C 154.609 78.428,155.161 87.360,148.462 100.000 C 146.979 102.799,140.373 112.834,139.146 114.150 C 138.736 114.590,138.390 115.142,138.377 115.375 C 138.365 115.609,138.374 117.799,138.398 120.242 C 138.532 134.080,129.683 145.992,117.200 148.778 C 115.990 149.048,114.349 149.434,113.554 149.635 C 111.581 150.133,107.192 150.095,105.677 149.567 C 104.519 149.163,102.292 150.290,100.800 152.034 C 100.518 152.363,93.268 157.200,93.056 157.200 C 92.960 157.200,91.738 157.886,90.341 158.725 C 80.191 164.818,70.715 165.955,66.117 161.631 C 62.754 158.469,61.513 151.194,63.639 147.105 C 63.838 146.723,64.000 146.136,64.000 145.800 C 64.000 145.464,64.150 144.877,64.334 144.495 C 67.594 137.717,69.212 134.732,71.433 131.400 C 74.295 127.106,79.457 120.136,80.043 119.774 C 80.239 119.652,80.400 118.901,80.400 118.105 C 80.400 117.308,80.568 116.104,80.773 115.428 C 80.978 114.753,81.370 113.390,81.645 112.400 C 84.103 103.540,91.940 95.517,100.400 93.200 C 101.390 92.929,102.722 92.548,103.360 92.353 C 103.998 92.159,105.258 91.999,106.160 91.998 C 107.387 91.997,108.103 91.720,109.006 90.898 C 115.422 85.054,128.477 77.038,134.600 75.181 C 135.480 74.914,136.560 74.552,137.000 74.375 C 138.725 73.683,145.116 73.956,146.904 74.799 M341.326 83.249 C 346.805 86.063,346.170 93.552,340.317 95.158 C 337.023 96.061,253.370 95.584,251.492 94.651 C 247.044 92.440,246.919 85.618,251.287 83.465 C 252.946 82.648,339.750 82.439,341.326 83.249 M134.800 88.724 C 129.299 91.495,124.797 94.233,124.227 95.156 C 124.109 95.347,124.717 95.968,125.577 96.537 C 126.438 97.107,128.306 98.662,129.729 99.994 L 132.317 102.414 134.185 99.507 C 136.073 96.570,139.749 89.360,140.206 87.700 C 140.599 86.273,139.107 86.556,134.800 88.724 M340.162 109.867 C 344.954 110.658,346.709 116.891,343.145 120.455 L 341.600 122.000 286.738 122.000 L 231.876 122.000 230.569 121.003 C 226.444 117.857,227.682 111.082,232.600 109.887 C 233.818 109.591,338.374 109.571,340.162 109.867 M81.473 138.900 C 76.839 146.298,74.774 151.545,76.600 151.287 C 77.837 151.112,84.736 147.657,87.278 145.939 C 88.531 145.093,89.664 144.400,89.795 144.400 C 91.291 144.400,90.932 143.256,88.742 141.045 C 87.451 139.742,85.901 137.894,85.298 136.939 C 83.901 134.728,84.174 134.588,81.473 138.900 M341.471 137.234 C 345.120 139.001,346.246 143.425,343.847 146.572 C 341.707 149.381,345.671 149.200,286.367 149.200 L 232.709 149.200 231.202 148.353 C 226.653 145.796,227.084 139.094,231.936 136.938 C 234.171 135.945,339.395 136.229,341.471 137.234 M288.540 170.001 C 289.576 170.911,290.514 172.635,292.403 177.101 C 293.775 180.346,295.213 183.720,295.599 184.600 C 295.986 185.480,296.673 187.054,297.127 188.098 C 297.602 189.190,298.345 190.165,298.877 190.395 C 299.384 190.614,303.580 192.393,308.200 194.348 C 316.960 198.056,318.510 199.050,318.949 201.243 C 319.606 204.530,318.044 206.852,314.126 208.412 C 312.847 208.921,310.670 209.847,309.290 210.469 C 307.909 211.091,306.700 211.600,306.602 211.600 C 306.504 211.600,305.463 212.039,304.290 212.576 C 303.116 213.113,301.266 213.894,300.178 214.312 C 298.615 214.912,298.032 215.402,297.400 216.647 C 296.542 218.338,296.492 218.453,292.809 227.162 C 289.337 235.371,288.165 236.800,284.905 236.800 C 281.820 236.800,280.789 235.286,275.786 223.408 C 272.933 216.633,271.942 214.800,271.134 214.800 C 270.945 214.800,269.938 214.419,268.896 213.953 C 267.853 213.488,266.460 212.877,265.800 212.596 C 265.140 212.314,263.790 211.725,262.800 211.285 C 261.810 210.846,259.380 209.822,257.400 209.011 C 250.094 206.016,248.643 200.024,254.594 197.421 C 255.257 197.131,256.653 196.512,257.696 196.047 C 258.738 195.581,259.678 195.200,259.784 195.200 C 259.890 195.200,260.927 194.769,262.088 194.243 C 263.250 193.717,266.060 192.518,268.334 191.579 C 271.440 190.297,272.557 189.639,272.825 188.935 C 273.504 187.148,278.494 175.389,279.602 172.965 C 281.576 168.643,285.509 167.340,288.540 170.001 M163.044 174.248 C 167.460 176.343,167.924 182.365,163.881 185.100 L 162.550 186.000 120.655 186.000 C 74.883 186.000,77.393 186.128,75.681 183.706 C 73.297 180.333,74.959 174.569,78.514 173.880 C 81.590 173.285,161.749 173.633,163.044 174.248 M163.040 201.162 C 167.573 203.221,167.946 209.376,163.710 212.247 C 162.586 213.009,59.914 213.709,54.871 212.989 C 48.703 212.109,48.033 201.836,54.068 200.686 C 57.649 200.004,161.488 200.458,163.040 201.162 M162.529 227.796 C 166.644 229.516,168.040 234.390,165.336 237.603 C 163.175 240.172,167.271 240.000,108.079 240.000 L 54.118 240.000 52.796 239.100 C 48.479 236.162,48.692 230.398,53.200 228.129 L 55.000 227.223 108.051 227.211 C 154.169 227.201,161.289 227.278,162.529 227.796 " stroke="none" fill="#e9e9e9" fill-rule="evenodd"></path><path id="path3" d="M28.912 185.484 L 29.000 291.000 29.959 293.400 C 32.579 299.961,38.091 304.921,44.661 306.633 C 48.158 307.544,259.807 307.479,260.157 306.567 C 260.291 306.219,260.400 300.819,260.400 294.567 L 260.400 283.200 287.600 283.200 L 314.800 283.200 314.806 294.700 C 314.809 301.025,314.957 306.428,315.134 306.708 C 315.540 307.347,353.254 307.195,355.800 306.544 C 361.787 305.012,367.526 299.714,370.038 293.400 L 370.993 291.000 371.196 185.500 C 371.332 115.254,371.266 80.045,371.000 80.133 C 370.735 80.222,370.532 115.789,370.400 185.233 C 370.207 286.471,370.173 290.271,369.453 292.200 C 366.770 299.384,361.896 304.091,355.386 305.787 C 353.433 306.295,349.840 306.400,334.316 306.400 L 315.600 306.400 315.600 294.597 L 315.600 282.795 287.700 282.897 L 259.800 283.000 259.800 294.600 L 259.800 306.200 153.600 306.304 C 79.050 306.377,46.778 306.280,45.312 305.978 C 40.118 304.909,34.500 300.552,32.046 295.691 C 29.438 290.524,29.612 298.506,29.606 184.324 C 29.602 117.604,29.461 80.361,29.212 80.207 C 28.961 80.052,28.855 117.345,28.912 185.484 M102.200 92.689 C 101.100 93.014,99.703 93.372,99.095 93.486 C 98.487 93.599,97.904 93.832,97.798 94.003 C 97.608 94.311,98.978 94.026,101.900 93.151 C 102.725 92.904,105.470 92.575,108.000 92.421 L 112.600 92.140 108.400 92.120 C 105.810 92.107,103.433 92.325,102.200 92.689 M122.000 94.990 C 122.000 95.053,122.971 95.596,124.158 96.197 C 126.898 97.583,131.780 102.153,131.447 103.021 C 131.311 103.377,131.378 103.537,131.605 103.397 C 132.424 102.891,131.929 102.020,129.592 99.857 C 126.278 96.789,122.000 94.046,122.000 94.990 M93.107 96.526 C 92.066 97.226,91.211 97.935,91.207 98.099 C 91.202 98.330,93.378 96.944,95.567 95.323 C 95.658 95.256,95.568 95.211,95.367 95.226 C 95.165 95.240,94.148 95.825,93.107 96.526 M88.808 100.192 C 87.841 101.177,87.129 102.041,87.225 102.113 C 87.321 102.184,88.190 101.378,89.157 100.321 C 91.371 97.900,91.141 97.814,88.808 100.192 M80.649 115.815 C 80.512 116.173,80.428 117.756,80.462 119.333 L 80.524 122.200 80.798 118.800 C 81.085 115.236,81.061 114.744,80.649 115.815 M119.781 117.700 L 118.200 119.400 119.900 117.819 C 121.481 116.348,121.784 116.000,121.481 116.000 C 121.416 116.000,120.651 116.765,119.781 117.700 M137.149 116.700 C 136.651 117.334,136.666 117.349,137.300 116.851 C 138.866 115.623,138.176 124.541,136.167 131.500 C 136.024 131.995,136.001 132.400,136.116 132.400 C 136.323 132.400,137.188 129.716,137.986 126.600 C 138.486 124.647,138.538 116.000,138.049 116.000 C 137.856 116.000,137.451 116.315,137.149 116.700 M113.186 124.700 L 111.000 127.000 113.300 124.814 C 115.437 122.782,115.783 122.400,115.486 122.400 C 115.424 122.400,114.389 123.435,113.186 124.700 M130.575 124.500 L 129.400 125.800 130.700 124.625 C 131.912 123.530,132.184 123.200,131.875 123.200 C 131.806 123.200,131.221 123.785,130.575 124.500 M124.987 130.500 L 122.600 133.000 125.100 130.613 C 127.422 128.395,127.783 128.000,127.487 128.000 C 127.426 128.000,126.301 129.125,124.987 130.500 M131.768 139.100 C 130.928 140.145,130.655 140.640,131.163 140.200 C 132.117 139.374,133.792 137.200,133.475 137.200 C 133.377 137.200,132.609 138.055,131.768 139.100 M87.003 139.179 C 88.994 141.471,89.200 141.671,89.200 141.310 C 89.200 141.119,88.436 140.251,87.503 139.381 C 85.951 137.936,85.908 137.919,87.003 139.179 M89.600 141.870 C 89.600 142.393,91.524 143.409,91.866 143.067 C 92.013 142.920,91.893 142.800,91.598 142.800 C 91.304 142.800,90.734 142.502,90.331 142.138 C 89.929 141.774,89.600 141.653,89.600 141.870 M127.000 143.641 C 125.900 144.508,124.049 145.687,122.887 146.262 C 121.724 146.837,120.853 147.386,120.950 147.483 C 121.348 147.881,127.663 143.970,128.765 142.642 C 129.542 141.706,129.233 141.881,127.000 143.641 M105.915 149.672 C 106.292 149.821,107.950 149.944,109.600 149.944 C 111.250 149.944,112.908 149.821,113.285 149.672 C 113.662 149.522,112.004 149.400,109.600 149.400 C 107.196 149.400,105.538 149.522,105.915 149.672 M287.432 169.555 C 288.110 169.968,289.065 170.822,289.554 171.453 C 290.110 172.170,290.289 172.278,290.031 171.743 C 289.542 170.728,287.338 168.799,286.669 168.801 C 286.411 168.802,286.755 169.141,287.432 169.555 M281.098 170.300 C 280.228 171.272,277.362 177.600,277.791 177.600 C 277.885 177.600,278.220 177.015,278.535 176.300 C 280.529 171.768,280.945 170.929,281.503 170.300 C 281.844 169.915,282.034 169.600,281.924 169.600 C 281.814 169.600,281.442 169.915,281.098 170.300 M276.400 180.084 C 276.400 180.204,276.128 180.954,275.795 181.751 C 275.462 182.548,275.273 183.200,275.376 183.200 C 275.731 183.200,276.904 180.370,276.652 180.119 C 276.514 179.980,276.400 179.965,276.400 180.084 M296.801 188.246 C 296.799 188.918,298.391 190.805,298.929 190.768 C 299.228 190.748,299.206 190.659,298.867 190.524 C 298.574 190.407,297.990 189.746,297.569 189.056 C 297.148 188.365,296.802 188.001,296.801 188.246 M265.600 192.690 C 265.270 192.815,263.870 193.431,262.490 194.059 C 261.109 194.686,259.893 195.200,259.786 195.200 C 259.679 195.200,258.738 195.581,257.696 196.047 C 256.653 196.512,255.257 197.131,254.594 197.421 C 250.861 199.054,249.945 203.864,252.839 206.638 C 253.478 207.249,254.000 207.536,254.000 207.275 C 254.000 207.014,253.817 206.800,253.594 206.800 C 252.851 206.800,251.603 204.221,251.601 202.680 C 251.599 200.181,252.541 198.901,255.320 197.627 C 257.627 196.570,258.488 196.191,262.200 194.600 C 265.481 193.194,266.400 192.752,266.400 192.581 C 266.400 192.482,266.355 192.414,266.300 192.432 C 266.245 192.449,265.930 192.565,265.600 192.690 M303.600 192.589 C 303.600 192.906,306.500 194.033,306.728 193.805 C 306.841 193.692,306.835 193.600,306.716 193.600 C 306.596 193.600,305.846 193.328,305.049 192.995 C 304.252 192.662,303.600 192.479,303.600 192.589 M309.400 195.111 C 309.760 195.443,312.467 196.598,314.000 197.074 C 314.508 197.232,314.506 197.199,313.985 196.858 C 313.068 196.258,308.936 194.684,309.400 195.111 M315.023 197.637 C 315.146 197.837,315.473 198.000,315.749 198.000 C 318.053 198.000,319.591 203.621,317.821 205.576 C 317.409 206.032,317.166 206.499,317.282 206.615 C 317.581 206.914,318.623 205.204,318.950 203.876 C 319.379 202.136,318.817 200.079,317.574 198.835 C 316.513 197.774,314.533 196.844,315.023 197.637 M297.249 215.852 C 296.583 217.314,296.874 217.395,297.689 215.974 C 298.060 215.328,298.220 214.800,298.046 214.800 C 297.871 214.800,297.513 215.273,297.249 215.852 M278.280 229.300 C 281.424 237.241,286.722 239.343,289.775 233.862 L 290.478 232.600 289.404 233.908 C 287.341 236.420,284.842 237.033,282.497 235.602 C 281.268 234.853,280.797 234.057,278.533 228.900 C 277.696 226.993,277.493 227.314,278.280 229.300 " stroke="none" fill="#e49c92" fill-rule="evenodd"></path><path id="path4" d="M137.000 74.375 C 136.560 74.552,135.480 74.914,134.600 75.181 C 128.511 77.028,115.501 85.005,109.065 90.840 L 107.918 91.879 111.565 92.154 C 113.977 92.336,116.396 92.837,118.706 93.631 C 123.964 95.439,123.679 95.429,125.848 93.879 C 129.730 91.107,138.092 86.800,139.592 86.800 C 141.678 86.800,134.721 99.867,128.517 107.598 C 127.546 108.809,126.537 110.070,126.275 110.401 C 117.685 121.261,97.120 140.666,91.476 143.238 C 90.884 143.508,90.400 143.880,90.400 144.064 C 90.400 144.249,90.210 144.400,89.978 144.400 C 89.746 144.400,88.531 145.084,87.278 145.921 C 82.264 149.268,76.128 151.998,75.762 151.045 C 75.425 150.166,77.481 145.571,80.279 140.949 C 81.727 138.557,83.180 136.148,83.509 135.595 C 84.055 134.676,84.028 134.417,83.201 132.602 C 82.703 131.509,82.067 129.891,81.787 129.007 C 81.508 128.123,81.266 127.760,81.249 128.200 C 81.233 128.640,81.664 130.080,82.208 131.400 C 83.436 134.382,83.440 134.936,82.239 136.527 C 80.298 139.101,76.400 146.119,76.400 147.041 C 76.400 147.348,76.220 147.600,76.000 147.600 C 75.780 147.600,75.600 148.039,75.600 148.576 C 75.600 149.113,75.420 149.664,75.200 149.800 C 74.706 150.105,74.671 151.873,75.153 152.171 C 75.347 152.291,76.518 152.041,77.755 151.616 C 89.165 147.690,108.874 131.623,124.200 113.753 C 130.488 106.421,135.773 98.833,138.374 93.400 C 139.322 91.420,140.256 89.487,140.449 89.105 C 140.835 88.341,140.924 86.258,140.585 85.919 C 140.020 85.354,132.502 88.750,128.722 91.277 C 127.469 92.115,126.254 92.800,126.022 92.800 C 125.790 92.800,125.600 92.958,125.600 93.150 C 125.600 94.743,122.655 94.743,119.505 93.151 C 119.123 92.958,118.459 92.800,118.029 92.800 C 117.599 92.800,117.150 92.643,117.031 92.450 C 116.912 92.258,115.866 91.994,114.707 91.865 C 110.291 91.372,109.443 91.082,110.426 90.400 C 110.901 90.070,112.395 88.980,113.745 87.978 C 119.433 83.757,126.218 79.495,130.200 77.643 C 131.300 77.131,132.513 76.552,132.895 76.356 C 133.277 76.160,133.941 76.000,134.371 76.000 C 134.801 76.000,135.252 75.840,135.373 75.644 C 136.148 74.390,147.200 74.391,147.200 75.645 C 147.200 75.840,147.445 76.000,147.745 76.000 C 151.422 76.000,153.495 85.521,151.230 92.000 C 149.453 97.084,142.672 109.322,140.813 110.800 C 140.675 110.910,140.129 111.630,139.600 112.400 C 139.071 113.170,138.531 113.890,138.400 114.000 C 138.269 114.110,137.728 114.830,137.199 115.600 C 135.388 118.234,127.003 127.793,123.166 131.598 C 116.513 138.195,113.053 141.378,107.200 146.289 C 105.294 147.889,99.290 152.302,97.916 153.113 C 97.302 153.476,96.800 153.914,96.800 154.086 C 96.800 154.259,96.564 154.400,96.275 154.400 C 95.987 154.400,95.393 154.715,94.955 155.100 C 94.215 155.751,93.411 156.263,91.400 157.362 C 90.960 157.603,90.510 157.900,90.400 158.023 C 90.290 158.145,88.670 158.979,86.800 159.876 C 75.500 165.297,67.490 164.683,64.424 158.162 C 63.532 156.264,63.243 150.153,63.958 148.319 C 64.155 147.813,64.548 146.590,64.830 145.600 C 65.113 144.610,65.462 143.620,65.605 143.400 C 65.749 143.180,66.115 142.370,66.418 141.600 C 67.515 138.821,73.711 128.456,74.787 127.600 C 74.925 127.490,75.471 126.770,76.000 126.000 C 76.529 125.230,77.069 124.510,77.200 124.400 C 77.331 124.290,77.871 123.570,78.399 122.800 C 78.928 122.030,79.594 121.256,79.880 121.080 C 80.166 120.904,80.400 120.489,80.400 120.157 C 80.400 119.211,79.884 119.732,76.892 123.697 C 71.139 131.324,68.827 135.153,64.334 144.495 C 64.150 144.877,64.000 145.464,64.000 145.800 C 64.000 146.136,63.838 146.723,63.639 147.105 C 61.513 151.194,62.754 158.469,66.117 161.631 C 70.715 165.955,80.191 164.818,90.341 158.725 C 91.738 157.886,92.960 157.200,93.056 157.200 C 93.290 157.200,100.545 152.338,100.800 152.011 C 100.910 151.869,101.377 151.494,101.837 151.177 C 102.298 150.860,103.468 149.942,104.437 149.137 C 105.407 148.332,107.550 146.556,109.200 145.190 C 115.852 139.683,126.483 129.275,131.861 123.006 C 133.367 121.249,134.927 119.449,135.326 119.006 C 135.725 118.563,136.805 117.210,137.725 116.000 C 138.645 114.790,139.506 113.710,139.637 113.600 C 140.241 113.096,147.232 102.322,148.462 100.000 C 155.161 87.360,154.609 78.428,146.904 74.799 C 145.116 73.956,138.725 73.683,137.000 74.375 M251.287 83.465 C 246.919 85.618,247.044 92.440,251.492 94.651 C 253.370 95.584,337.023 96.061,340.317 95.158 C 346.170 93.552,346.805 86.063,341.326 83.249 C 339.750 82.439,252.946 82.648,251.287 83.465 M340.363 83.453 C 346.098 84.600,345.728 93.760,339.913 94.592 C 338.971 94.727,318.850 94.784,295.200 94.719 L 252.200 94.600 250.855 93.641 C 247.037 90.918,248.129 84.632,252.617 83.492 C 253.781 83.196,338.890 83.158,340.363 83.453 M232.600 109.887 C 227.682 111.082,226.444 117.857,230.569 121.003 L 231.876 122.000 286.738 122.000 L 341.600 122.000 343.145 120.455 C 346.709 116.891,344.954 110.658,340.162 109.867 C 338.374 109.571,233.818 109.591,232.600 109.887 M288.280 110.400 L 341.294 110.400 342.847 111.953 C 345.526 114.632,344.877 119.306,341.588 121.006 C 339.544 122.063,233.066 121.881,231.322 120.818 C 226.361 117.793,229.316 108.632,234.733 110.242 C 235.026 110.329,259.122 110.400,288.280 110.400 M80.428 123.833 C 80.444 124.915,80.618 126.160,80.816 126.600 C 81.048 127.116,81.091 126.476,80.935 124.800 C 80.642 121.639,80.390 121.158,80.428 123.833 M231.936 136.938 C 227.084 139.094,226.653 145.796,231.202 148.353 L 232.709 149.200 286.367 149.200 C 345.671 149.200,341.707 149.381,343.847 146.572 C 346.246 143.425,345.120 139.001,341.471 137.234 C 339.395 136.229,234.171 135.945,231.936 136.938 M339.923 137.259 C 345.843 138.707,346.172 146.846,340.373 148.407 C 336.983 149.320,232.612 148.715,231.354 147.775 C 227.186 144.663,227.895 138.833,232.619 137.373 C 234.831 136.689,337.148 136.580,339.923 137.259 M78.514 173.880 C 74.959 174.569,73.297 180.333,75.681 183.706 C 77.393 186.128,74.883 186.000,120.655 186.000 L 162.550 186.000 163.881 185.100 C 167.924 182.365,167.460 176.343,163.044 174.248 C 161.749 173.633,81.590 173.285,78.514 173.880 M164.402 175.856 C 167.236 178.894,166.667 183.167,163.200 184.899 C 161.469 185.764,79.934 186.005,78.274 185.150 C 74.578 183.247,73.775 178.652,76.637 175.790 C 78.437 173.990,75.256 174.106,121.529 174.155 L 162.858 174.200 164.402 175.856 M54.068 200.686 C 48.033 201.836,48.703 212.109,54.871 212.989 C 59.914 213.709,162.586 213.009,163.710 212.247 C 167.946 209.376,167.573 203.221,163.040 201.162 C 161.488 200.458,57.649 200.004,54.068 200.686 M162.040 201.254 C 166.612 202.782,167.698 208.213,164.034 211.232 L 162.618 212.400 108.247 212.400 L 53.876 212.400 52.537 211.379 C 48.744 208.486,49.463 203.325,53.936 201.338 C 55.436 200.671,160.055 200.591,162.040 201.254 M53.200 228.129 C 48.692 230.398,48.479 236.162,52.796 239.100 L 54.118 240.000 108.079 240.000 C 167.271 240.000,163.175 240.172,165.336 237.603 C 168.040 234.390,166.644 229.516,162.529 227.796 C 161.289 227.278,154.169 227.201,108.051 227.211 L 55.000 227.223 53.200 228.129 M163.206 228.742 C 167.200 230.867,167.222 236.492,163.246 238.726 L 161.691 239.600 108.200 239.600 L 54.709 239.600 53.202 238.753 C 49.157 236.479,49.152 230.892,53.194 228.742 C 55.367 227.585,161.033 227.585,163.206 228.742 " stroke="none" fill="#80bbcb" fill-rule="evenodd"></path></g></svg>