<svg id="svg" version="1.1" xmlns="http://www.w3.org/2000/svg" xmlns:xlink="http://www.w3.org/1999/xlink" width="400" height="400" viewBox="0, 0, 400,400"><g id="svgg"><path id="path0" d="M0.663 134.683 C 0.130 134.820,-0.010 135.113,0.157 135.736 C 0.285 136.211,0.392 136.735,0.395 136.900 C 0.398 137.065,0.670 137.200,1.000 137.200 C 1.330 137.200,1.600 137.364,1.600 137.565 C 1.600 137.949,2.847 139.389,6.300 142.992 C 7.455 144.197,8.400 145.457,8.400 145.791 C 8.400 146.126,8.700 146.400,9.067 146.400 C 9.433 146.400,9.622 146.511,9.486 146.648 C 9.350 146.784,9.455 147.123,9.719 147.401 C 9.984 147.679,10.830 148.661,11.600 149.583 C 12.370 150.505,13.567 151.876,14.260 152.630 C 14.953 153.383,15.441 154.000,15.344 154.000 C 15.248 154.000,15.401 154.251,15.684 154.558 C 15.968 154.865,16.335 155.034,16.500 154.934 C 16.665 154.835,16.800 154.961,16.800 155.216 C 16.800 155.471,17.340 156.183,18.000 156.800 C 18.660 157.417,19.200 158.028,19.200 158.158 C 19.200 158.289,20.100 159.315,21.200 160.439 C 22.300 161.562,23.200 162.657,23.200 162.872 C 23.200 163.087,23.920 163.954,24.800 164.800 C 25.680 165.646,26.400 166.523,26.400 166.750 C 26.400 166.978,26.850 167.614,27.400 168.164 C 27.950 168.714,28.400 169.254,28.400 169.364 C 28.400 169.730,30.348 171.518,30.539 171.327 C 30.642 171.224,30.849 171.525,30.999 171.997 C 31.149 172.468,32.245 173.828,33.435 175.018 C 34.626 176.209,35.600 177.376,35.600 177.613 C 35.600 177.850,36.680 179.104,38.000 180.400 C 39.320 181.696,40.400 182.960,40.400 183.209 C 40.400 183.459,41.135 184.369,42.033 185.231 C 42.931 186.094,43.562 186.800,43.436 186.800 C 43.310 186.800,43.715 187.295,44.335 187.900 C 44.955 188.505,45.583 189.326,45.729 189.725 C 45.875 190.124,46.176 190.339,46.397 190.202 C 46.619 190.065,46.800 190.106,46.800 190.293 C 46.800 190.480,47.415 191.286,48.167 192.083 C 48.919 192.880,49.429 193.638,49.301 193.766 C 49.172 193.895,49.367 194.000,49.733 194.000 C 50.100 194.000,50.355 194.166,50.300 194.368 C 50.208 194.708,52.251 197.214,54.900 200.012 C 55.505 200.650,56.002 201.314,56.004 201.487 C 56.006 201.659,56.546 202.225,57.204 202.745 C 57.862 203.265,58.400 203.940,58.400 204.245 C 58.400 204.550,58.580 204.800,58.800 204.800 C 59.020 204.800,59.200 204.980,59.200 205.200 C 59.200 205.420,60.179 206.571,61.375 207.758 C 62.572 208.945,63.442 210.025,63.309 210.158 C 63.176 210.291,63.377 210.400,63.757 210.400 C 64.137 210.400,64.352 210.554,64.236 210.742 C 64.120 210.929,64.829 211.923,65.813 212.949 C 66.796 213.975,67.600 214.974,67.600 215.169 C 67.600 215.364,68.767 216.732,70.194 218.209 C 71.627 219.692,72.673 221.097,72.530 221.347 C 72.388 221.596,72.404 221.681,72.567 221.536 C 72.926 221.214,74.869 223.191,76.464 225.500 C 77.110 226.435,77.810 227.200,78.019 227.200 C 78.229 227.200,78.400 227.398,78.400 227.640 C 78.400 227.881,78.940 228.583,79.600 229.200 C 80.260 229.817,80.800 230.529,80.800 230.784 C 80.800 231.039,80.967 231.144,81.171 231.018 C 81.375 230.892,81.657 231.151,81.798 231.594 C 81.939 232.037,82.252 232.400,82.494 232.400 C 82.735 232.400,82.821 232.512,82.685 232.649 C 82.548 232.785,83.103 233.550,83.918 234.349 C 84.733 235.147,85.654 236.292,85.964 236.893 C 86.274 237.495,86.859 238.092,87.264 238.220 C 87.669 238.349,88.000 238.646,88.000 238.880 C 88.000 239.362,89.544 240.800,90.061 240.800 C 90.248 240.800,90.400 241.078,90.400 241.418 C 90.400 241.758,90.805 242.448,91.300 242.950 C 92.713 244.385,94.400 246.522,94.400 246.877 C 94.400 247.055,94.681 247.200,95.024 247.200 C 95.367 247.200,95.554 247.351,95.439 247.537 C 95.325 247.722,95.989 248.667,96.916 249.637 C 97.842 250.606,98.854 251.892,99.164 252.493 C 99.474 253.095,100.059 253.692,100.464 253.820 C 100.869 253.949,101.200 254.213,101.200 254.409 C 101.200 254.750,103.256 257.088,106.600 260.549 C 107.480 261.460,108.556 262.879,108.991 263.702 C 109.426 264.526,110.011 265.200,110.291 265.200 C 110.571 265.200,110.800 265.352,110.800 265.539 C 110.800 265.725,111.115 266.250,111.500 266.705 C 113.267 268.794,113.600 269.222,113.600 269.403 C 113.600 269.510,114.500 270.465,115.600 271.525 C 116.700 272.585,117.600 273.586,117.600 273.749 C 117.600 273.911,118.680 275.104,120.000 276.400 C 121.320 277.696,122.400 278.953,122.400 279.194 C 122.400 279.435,123.149 280.345,124.065 281.216 C 124.981 282.087,125.566 282.805,125.365 282.812 C 125.164 282.819,125.315 283.008,125.700 283.232 C 126.085 283.456,126.400 283.871,126.400 284.154 C 126.400 284.436,126.895 285.118,127.500 285.669 C 129.180 287.198,131.005 289.365,130.897 289.700 C 130.844 289.865,130.997 289.955,131.237 289.900 C 131.478 289.845,131.883 290.155,132.137 290.588 C 132.392 291.021,133.095 291.858,133.700 292.448 C 134.305 293.038,134.800 293.659,134.800 293.827 C 134.800 293.996,135.243 294.598,135.783 295.167 C 137.577 297.052,139.787 299.560,140.800 300.863 C 141.350 301.570,142.197 302.565,142.682 303.074 C 143.167 303.583,143.458 304.000,143.328 304.000 C 143.198 304.000,143.576 304.381,144.167 304.846 C 144.758 305.311,145.144 305.789,145.025 305.909 C 144.905 306.028,145.700 306.983,146.792 308.030 C 147.884 309.077,148.828 310.166,148.889 310.451 C 148.950 310.736,150.035 312.000,151.300 313.262 C 152.565 314.524,153.600 315.747,153.600 315.980 C 153.600 316.213,154.500 317.285,155.600 318.362 C 156.700 319.439,157.600 320.529,157.600 320.784 C 157.600 321.039,157.753 321.153,157.940 321.037 C 158.127 320.922,158.532 321.316,158.840 321.914 C 159.595 323.379,160.240 324.020,160.617 323.681 C 160.788 323.526,160.820 323.591,160.688 323.824 C 160.555 324.057,160.977 324.747,161.624 325.357 C 162.271 325.968,162.800 326.644,162.800 326.860 C 162.800 327.076,163.700 328.129,164.800 329.200 C 165.900 330.271,166.800 331.333,166.800 331.560 C 166.800 331.786,167.160 332.165,167.600 332.400 C 168.040 332.635,168.400 333.016,168.400 333.245 C 168.400 333.475,169.075 334.324,169.900 335.131 C 170.725 335.939,171.634 337.054,171.919 337.610 C 172.205 338.165,172.969 338.975,173.618 339.410 C 174.267 339.844,174.798 340.413,174.799 340.673 C 174.799 340.933,175.160 341.260,175.600 341.400 C 176.040 341.540,176.400 342.002,176.400 342.427 C 176.400 342.852,176.591 343.200,176.824 343.200 C 177.057 343.200,177.136 343.380,177.000 343.600 C 176.864 343.820,177.033 344.000,177.376 344.000 C 177.719 344.000,178.000 344.135,178.000 344.300 C 178.000 344.465,178.718 345.386,179.595 346.346 C 180.473 347.306,181.109 348.224,181.009 348.385 C 180.909 348.547,181.271 348.917,181.814 349.207 C 182.356 349.498,182.800 349.877,182.800 350.049 C 182.800 350.222,183.295 350.860,183.900 351.467 C 184.505 352.073,184.955 352.712,184.900 352.885 C 184.845 353.058,184.980 353.200,185.200 353.200 C 185.420 353.200,185.600 353.481,185.600 353.824 C 185.600 354.167,185.753 354.353,185.940 354.237 C 186.127 354.122,186.515 354.468,186.804 355.007 C 187.092 355.546,187.659 356.092,188.064 356.220 C 188.469 356.349,188.800 356.722,188.800 357.051 C 188.800 357.379,188.980 357.536,189.200 357.400 C 189.420 357.264,189.600 357.439,189.600 357.790 C 189.600 358.140,190.185 359.026,190.900 359.759 C 193.656 362.585,195.171 364.523,194.929 364.915 C 194.784 365.149,194.874 365.202,195.138 365.038 C 195.392 364.881,195.600 364.912,195.600 365.106 C 195.600 365.300,196.500 366.422,197.600 367.600 C 200.748 370.971,200.585 370.158,194.792 353.600 C 193.445 349.750,192.104 345.880,191.812 345.000 C 191.519 344.120,190.371 340.790,189.260 337.600 C 183.863 322.113,182.289 317.566,181.367 314.800 C 180.817 313.150,180.202 311.440,180.000 311.000 C 179.798 310.560,179.189 308.850,178.645 307.200 C 178.102 305.550,176.282 300.240,174.602 295.400 C 172.922 290.560,171.102 285.250,170.557 283.600 C 170.012 281.950,169.401 280.240,169.199 279.800 C 168.996 279.360,168.202 277.110,167.433 274.800 C 166.665 272.490,165.116 267.990,163.991 264.800 C 161.269 257.078,159.259 251.254,157.224 245.200 C 156.300 242.450,155.388 239.840,155.198 239.400 C 155.008 238.960,154.469 237.430,154.000 236.000 C 153.531 234.570,152.989 233.040,152.795 232.600 C 152.601 232.160,151.884 230.090,151.200 228.000 C 150.516 225.910,149.796 223.840,149.600 223.400 C 149.404 222.960,148.684 220.890,148.000 218.800 C 147.316 216.710,146.595 214.640,146.396 214.200 C 146.197 213.760,144.787 209.710,143.263 205.200 C 141.738 200.690,139.917 195.380,139.216 193.400 C 138.515 191.420,137.849 189.440,137.737 189.000 C 137.625 188.560,137.381 187.840,137.195 187.400 C 136.756 186.361,135.019 181.407,133.759 177.600 C 133.213 175.950,132.601 174.240,132.399 173.800 C 132.196 173.360,131.403 171.110,130.637 168.800 C 129.404 165.085,126.358 156.275,122.754 146.000 C 122.098 144.130,121.025 140.992,120.368 139.026 C 119.712 137.060,118.979 135.215,118.739 134.926 C 118.310 134.410,2.646 134.171,0.663 134.683 " stroke="none" fill="#fc8c5c" fill-rule="evenodd"></path><path id="path1" d="M200.036 30.711 C 200.004 31.532,197.563 34.897,192.410 41.223 C 191.415 42.446,190.150 44.049,189.600 44.787 C 188.648 46.063,186.942 48.239,180.603 56.260 C 179.064 58.207,177.186 60.610,176.430 61.600 C 175.673 62.590,174.862 63.596,174.627 63.837 C 174.392 64.077,173.750 64.870,173.200 65.600 C 172.259 66.848,168.948 71.079,167.877 72.400 C 167.609 72.730,166.501 74.170,165.414 75.600 C 164.327 77.030,163.338 78.290,163.218 78.400 C 163.097 78.510,162.245 79.590,161.325 80.800 C 160.405 82.010,159.325 83.361,158.926 83.802 C 158.527 84.244,157.032 86.134,155.603 88.002 C 154.175 89.871,152.706 91.760,152.337 92.200 C 151.969 92.640,149.487 95.790,146.822 99.200 C 144.157 102.610,141.757 105.671,141.489 106.001 C 141.220 106.332,140.370 107.411,139.600 108.400 C 138.830 109.389,137.985 110.468,137.722 110.799 C 137.459 111.129,134.979 114.280,132.210 117.800 C 126.895 124.556,126.773 124.710,125.200 126.634 C 124.650 127.307,123.750 128.457,123.200 129.190 C 122.650 129.923,121.620 131.260,120.910 132.161 L 119.620 133.800 200.310 134.002 C 244.690 134.114,281.045 134.249,281.100 134.302 C 281.334 134.530,281.171 135.663,280.813 136.305 C 280.449 136.957,279.561 139.501,278.764 142.173 C 278.571 142.818,278.560 143.178,278.737 142.973 C 278.915 142.768,279.305 141.790,279.602 140.800 C 279.900 139.810,280.266 138.820,280.414 138.600 C 280.562 138.380,280.929 137.345,281.229 136.300 L 281.775 134.400 340.887 134.400 C 403.766 134.400,401.219 134.476,399.400 132.657 C 399.070 132.327,398.800 131.902,398.800 131.712 C 398.800 131.522,398.159 130.654,397.375 129.783 C 396.591 128.913,395.376 127.564,394.675 126.786 C 393.974 126.008,393.148 124.889,392.840 124.299 C 392.532 123.710,392.127 123.322,391.940 123.437 C 391.753 123.553,391.600 123.367,391.600 123.024 C 391.600 122.681,391.432 122.400,391.227 122.400 C 391.022 122.400,390.740 122.040,390.600 121.600 C 390.460 121.160,390.078 120.800,389.749 120.800 C 389.421 120.800,389.247 120.647,389.363 120.460 C 389.602 120.074,387.827 117.506,387.529 117.805 C 387.422 117.911,387.090 117.504,386.790 116.899 C 386.255 115.819,385.079 114.408,383.300 112.713 C 382.805 112.242,382.400 111.670,382.400 111.442 C 382.400 111.214,382.049 110.662,381.619 110.214 C 380.111 108.643,379.200 107.599,379.200 107.442 C 379.200 107.356,378.660 106.707,378.000 106.000 C 377.340 105.293,376.800 104.570,376.800 104.392 C 376.800 104.214,376.172 103.378,375.404 102.534 C 373.109 100.013,372.786 99.600,373.100 99.594 C 373.265 99.591,373.220 99.456,372.999 99.294 C 372.502 98.929,370.469 96.496,369.400 94.985 C 368.960 94.363,367.840 93.032,366.911 92.027 C 365.983 91.022,365.218 90.019,365.211 89.798 C 365.205 89.577,364.480 88.631,363.600 87.697 C 362.720 86.763,362.000 85.808,362.000 85.576 C 362.000 85.343,361.820 85.264,361.600 85.400 C 361.380 85.536,361.199 85.412,361.198 85.124 C 361.197 84.836,360.657 84.025,359.998 83.322 C 359.339 82.619,358.800 81.931,358.800 81.793 C 358.800 81.655,358.575 81.317,358.300 81.042 C 358.025 80.766,357.350 79.959,356.800 79.248 C 356.250 78.537,355.470 77.561,355.066 77.078 C 354.662 76.595,353.942 75.674,353.466 75.032 C 352.990 74.390,352.105 73.341,351.500 72.701 C 350.895 72.062,350.400 71.455,350.400 71.353 C 350.400 71.250,350.040 70.780,349.600 70.308 C 349.160 69.836,348.800 69.213,348.800 68.925 C 348.800 68.636,348.603 68.445,348.363 68.500 C 348.122 68.555,347.717 68.240,347.463 67.800 C 347.208 67.360,346.900 66.910,346.777 66.800 C 346.655 66.690,345.914 65.751,345.131 64.713 C 344.348 63.675,343.593 62.940,343.454 63.080 C 343.314 63.219,343.200 63.034,343.200 62.667 C 343.200 62.301,342.480 61.259,341.600 60.352 C 340.720 59.445,340.000 58.455,340.000 58.152 C 340.000 57.848,339.842 57.600,339.648 57.600 C 339.454 57.600,338.530 56.565,337.593 55.300 C 336.657 54.035,335.678 52.820,335.417 52.600 C 335.157 52.380,334.311 51.256,333.537 50.102 C 332.763 48.948,332.011 48.123,331.865 48.268 C 331.719 48.414,331.600 48.317,331.600 48.053 C 331.600 47.789,331.105 47.066,330.500 46.447 C 328.494 44.392,326.875 42.459,327.030 42.303 C 327.115 42.219,326.590 41.520,325.863 40.750 C 325.137 39.980,324.427 39.046,324.284 38.675 C 324.142 38.304,323.839 38.000,323.613 38.000 C 323.386 38.000,323.200 37.739,323.200 37.420 C 323.200 37.101,322.968 36.696,322.684 36.520 C 322.400 36.344,321.815 35.639,321.384 34.953 C 319.980 32.720,317.962 30.678,317.559 31.081 C 317.182 31.458,315.296 36.271,314.927 37.800 C 314.820 38.240,314.576 38.960,314.383 39.400 C 314.191 39.840,313.587 41.550,313.042 43.200 C 312.497 44.850,311.515 47.668,310.861 49.462 C 310.207 51.257,308.675 55.667,307.456 59.262 C 306.238 62.858,304.141 68.950,302.796 72.800 C 301.451 76.650,299.905 81.150,299.359 82.800 C 298.813 84.450,298.210 86.160,298.019 86.600 C 297.828 87.040,297.105 89.110,296.412 91.200 C 295.718 93.290,294.990 95.360,294.792 95.800 C 294.595 96.240,293.985 97.950,293.437 99.600 C 292.889 101.250,291.784 104.490,290.981 106.800 C 288.858 112.905,285.933 121.362,283.648 128.000 C 282.550 131.190,281.494 133.800,281.301 133.800 C 280.742 133.800,280.945 134.052,259.869 107.200 C 254.084 99.830,253.982 99.701,252.400 97.766 C 251.850 97.093,250.997 96.008,250.505 95.355 C 250.012 94.702,247.344 91.295,244.575 87.784 C 241.807 84.273,238.772 80.399,237.832 79.176 C 236.892 77.953,235.836 76.603,235.485 76.176 C 234.423 74.885,229.861 69.094,228.729 67.600 C 227.330 65.756,217.771 53.620,216.931 52.624 C 216.571 52.197,215.512 50.847,214.577 49.624 C 213.642 48.401,210.158 43.980,206.835 39.800 C 203.512 35.620,200.630 31.660,200.432 31.000 C 200.129 29.990,200.066 29.944,200.036 30.711 M80.561 32.334 C 79.880 33.140,78.984 34.340,78.571 35.000 C 78.157 35.660,77.590 36.344,77.310 36.520 C 77.029 36.696,76.800 37.101,76.800 37.420 C 76.800 37.739,76.614 38.000,76.387 38.000 C 76.161 38.000,75.858 38.304,75.716 38.675 C 75.573 39.046,74.863 39.980,74.137 40.750 C 73.410 41.520,72.885 42.219,72.970 42.303 C 73.125 42.459,71.506 44.392,69.500 46.447 C 68.895 47.066,68.400 47.789,68.400 48.053 C 68.400 48.317,68.281 48.414,68.135 48.268 C 67.989 48.123,67.237 48.948,66.463 50.102 C 65.689 51.256,64.843 52.380,64.583 52.600 C 64.322 52.820,63.343 54.035,62.407 55.300 C 61.470 56.565,60.546 57.600,60.352 57.600 C 60.158 57.600,60.000 57.848,60.000 58.152 C 60.000 58.455,59.280 59.445,58.400 60.352 C 57.520 61.259,56.800 62.301,56.800 62.667 C 56.800 63.034,56.686 63.219,56.546 63.080 C 56.407 62.940,55.652 63.675,54.869 64.713 C 54.086 65.751,53.345 66.690,53.223 66.800 C 53.100 66.910,52.792 67.360,52.537 67.800 C 52.283 68.240,51.878 68.555,51.637 68.500 C 51.397 68.445,51.200 68.636,51.200 68.925 C 51.200 69.213,50.840 69.836,50.400 70.308 C 49.960 70.780,49.600 71.250,49.600 71.353 C 49.600 71.455,49.105 72.062,48.500 72.701 C 47.895 73.341,47.010 74.390,46.534 75.032 C 46.058 75.674,45.338 76.595,44.934 77.078 C 44.530 77.561,43.750 78.537,43.200 79.248 C 42.650 79.959,41.975 80.766,41.700 81.042 C 41.425 81.317,41.200 81.655,41.200 81.793 C 41.200 81.931,40.661 82.619,40.002 83.322 C 39.343 84.025,38.803 84.836,38.802 85.124 C 38.801 85.412,38.620 85.536,38.400 85.400 C 38.180 85.264,38.000 85.343,38.000 85.576 C 38.000 85.808,37.280 86.763,36.400 87.697 C 35.520 88.631,34.795 89.577,34.789 89.798 C 34.782 90.019,34.017 91.022,33.089 92.027 C 32.160 93.032,31.040 94.363,30.600 94.985 C 29.531 96.496,27.498 98.929,27.001 99.294 C 26.780 99.456,26.735 99.591,26.900 99.594 C 27.214 99.600,26.891 100.013,24.596 102.534 C 23.828 103.378,23.200 104.214,23.200 104.392 C 23.200 104.570,22.660 105.293,22.000 106.000 C 21.340 106.707,20.800 107.356,20.800 107.442 C 20.800 107.599,19.889 108.643,18.381 110.214 C 17.951 110.662,17.600 111.214,17.600 111.442 C 17.600 111.670,17.195 112.242,16.700 112.713 C 14.921 114.408,13.745 115.819,13.210 116.899 C 12.910 117.504,12.578 117.911,12.471 117.805 C 12.173 117.506,10.398 120.074,10.637 120.460 C 10.753 120.647,10.579 120.800,10.251 120.800 C 9.922 120.800,9.540 121.160,9.400 121.600 C 9.260 122.040,8.978 122.400,8.773 122.400 C 8.568 122.400,8.400 122.681,8.400 123.024 C 8.400 123.367,8.247 123.553,8.060 123.437 C 7.873 123.322,7.468 123.710,7.160 124.299 C 6.852 124.889,6.026 126.008,5.325 126.786 C 4.624 127.564,3.409 128.913,2.625 129.783 C 1.841 130.654,1.200 131.522,1.200 131.712 C 1.200 131.902,0.930 132.327,0.600 132.657 C 0.270 132.987,0.000 133.424,0.000 133.629 C 0.000 133.855,22.959 134.000,59.000 134.000 C 91.450 134.000,118.000 133.934,118.000 133.854 C 118.000 133.475,113.128 119.314,112.788 118.705 C 112.575 118.323,112.400 117.659,112.400 117.229 C 112.400 116.799,112.256 116.358,112.079 116.249 C 111.903 116.140,111.507 115.128,111.200 114.000 C 110.893 112.872,110.497 111.860,110.321 111.751 C 110.144 111.642,110.000 111.124,110.000 110.600 C 110.000 110.076,109.820 109.536,109.600 109.400 C 109.380 109.264,109.200 108.801,109.200 108.371 C 109.200 107.941,109.020 107.232,108.800 106.795 C 108.580 106.358,108.220 105.642,108.000 105.205 C 107.780 104.768,107.600 104.059,107.600 103.629 C 107.600 103.199,107.420 102.736,107.200 102.600 C 106.980 102.464,106.800 102.001,106.800 101.571 C 106.800 101.141,106.626 100.477,106.413 100.095 C 106.200 99.713,105.760 98.590,105.435 97.600 C 105.110 96.610,103.466 91.840,101.782 87.000 C 100.097 82.160,98.283 76.850,97.751 75.200 C 97.219 73.550,96.607 71.887,96.392 71.505 C 96.176 71.123,96.000 70.459,96.000 70.029 C 96.000 69.599,95.856 69.158,95.679 69.049 C 95.503 68.940,95.107 67.928,94.800 66.800 C 94.493 65.672,94.097 64.660,93.921 64.551 C 93.744 64.442,93.600 63.949,93.600 63.456 C 93.600 62.963,93.451 62.389,93.270 62.180 C 93.088 61.971,92.707 60.990,92.424 60.000 C 91.886 58.119,91.350 56.679,90.753 55.505 C 90.559 55.123,90.400 54.459,90.400 54.029 C 90.400 53.599,90.220 53.136,90.000 53.000 C 89.780 52.864,89.600 52.401,89.600 51.971 C 89.600 51.541,89.429 50.877,89.219 50.495 C 89.009 50.113,88.457 48.630,87.993 47.200 C 87.528 45.770,86.997 44.240,86.813 43.800 C 86.629 43.360,85.526 40.255,84.362 36.900 C 83.199 33.545,82.146 30.815,82.023 30.834 C 81.900 30.852,81.243 31.527,80.561 32.334 M277.083 146.684 C 276.963 147.078,276.673 148.018,276.439 148.773 C 276.205 149.528,276.154 149.978,276.325 149.773 C 276.787 149.219,277.703 146.369,277.488 146.154 C 277.385 146.052,277.203 146.290,277.083 146.684 M274.846 153.067 C 274.821 153.324,274.684 153.864,274.541 154.267 C 274.340 154.836,274.394 154.897,274.779 154.542 C 275.052 154.291,275.189 153.751,275.084 153.342 C 274.979 152.934,274.872 152.810,274.846 153.067 M269.800 167.600 C 269.650 168.073,269.617 168.550,269.727 168.660 C 269.837 168.770,270.050 168.473,270.200 168.000 C 270.350 167.527,270.383 167.050,270.273 166.940 C 270.163 166.830,269.950 167.127,269.800 167.600 M269.000 170.000 C 268.850 170.473,268.817 170.950,268.927 171.060 C 269.037 171.170,269.250 170.873,269.400 170.400 C 269.550 169.927,269.583 169.450,269.473 169.340 C 269.363 169.230,269.150 169.527,269.000 170.000 M266.600 176.800 C 266.450 177.273,266.417 177.750,266.527 177.860 C 266.637 177.970,266.850 177.673,267.000 177.200 C 267.150 176.727,267.183 176.250,267.073 176.140 C 266.963 176.030,266.750 176.327,266.600 176.800 M265.043 181.690 C 264.454 183.510,263.808 185.360,263.606 185.800 C 263.236 186.610,262.204 189.626,261.564 191.773 C 260.850 194.165,261.876 192.099,262.743 189.400 C 263.237 187.860,263.804 186.240,264.004 185.800 C 264.676 184.316,266.431 178.697,266.271 178.538 C 266.184 178.451,265.631 179.869,265.043 181.690 M260.257 195.200 C 259.043 198.853,258.798 199.764,259.137 199.373 C 259.315 199.168,259.705 198.190,260.002 197.200 C 260.300 196.210,260.707 195.184,260.905 194.919 C 261.104 194.655,261.203 194.115,261.127 193.719 C 261.046 193.302,260.680 193.924,260.257 195.200 M252.600 217.200 C 252.450 217.673,252.417 218.150,252.527 218.260 C 252.637 218.370,252.850 218.073,253.000 217.600 C 253.150 217.127,253.183 216.650,253.073 216.540 C 252.963 216.430,252.750 216.727,252.600 217.200 M250.231 224.043 C 247.670 231.661,246.773 234.506,246.896 234.629 C 246.978 234.711,247.889 232.322,248.919 229.319 C 249.949 226.316,250.708 223.775,250.606 223.672 C 250.503 223.570,250.335 223.736,250.231 224.043 M246.211 235.700 C 246.120 235.975,245.746 237.100,245.380 238.200 C 244.264 241.549,243.999 242.563,244.340 242.173 C 244.627 241.845,245.322 239.871,246.409 236.300 C 246.732 235.241,246.546 234.680,246.211 235.700 M243.025 244.896 C 241.852 248.424,241.600 249.363,241.929 248.973 C 242.369 248.452,244.095 243.162,243.891 242.958 C 243.800 242.866,243.410 243.738,243.025 244.896 M241.246 249.867 C 241.221 250.124,241.084 250.664,240.941 251.067 C 240.740 251.636,240.794 251.697,241.179 251.342 C 241.452 251.091,241.589 250.551,241.484 250.142 C 241.379 249.734,241.272 249.610,241.246 249.867 M240.446 252.267 C 240.421 252.524,240.284 253.064,240.141 253.467 C 239.940 254.036,239.994 254.097,240.379 253.742 C 240.652 253.491,240.789 252.951,240.684 252.542 C 240.579 252.134,240.472 252.010,240.446 252.267 M238.600 257.600 C 238.450 258.073,238.417 258.550,238.527 258.660 C 238.637 258.770,238.850 258.473,239.000 258.000 C 239.150 257.527,239.183 257.050,239.073 256.940 C 238.963 256.830,238.750 257.127,238.600 257.600 M235.400 266.800 C 235.250 267.273,235.217 267.750,235.327 267.860 C 235.437 267.970,235.650 267.673,235.800 267.200 C 235.950 266.727,235.983 266.250,235.873 266.140 C 235.763 266.030,235.550 266.327,235.400 266.800 M234.600 269.200 C 234.450 269.673,234.417 270.150,234.527 270.260 C 234.637 270.370,234.850 270.073,235.000 269.600 C 235.150 269.127,235.183 268.650,235.073 268.540 C 234.963 268.430,234.750 268.727,234.600 269.200 M233.034 273.643 C 232.932 273.949,232.288 275.910,231.603 278.000 C 230.918 280.090,230.196 282.160,230.000 282.600 C 229.804 283.040,229.070 285.110,228.370 287.200 C 227.670 289.290,227.003 291.270,226.889 291.600 C 226.754 291.993,226.816 292.062,227.069 291.800 C 227.282 291.580,227.881 290.050,228.400 288.400 C 228.919 286.750,229.492 285.229,229.672 285.020 C 229.852 284.811,230.000 284.256,230.000 283.787 C 230.000 283.317,230.118 282.816,230.261 282.672 C 230.658 282.276,233.591 273.457,233.392 273.259 C 233.297 273.163,233.136 273.336,233.034 273.643 M226.283 293.084 C 226.163 293.478,225.873 294.418,225.639 295.173 C 225.405 295.928,225.354 296.378,225.525 296.173 C 225.987 295.619,226.903 292.769,226.688 292.554 C 226.585 292.452,226.403 292.690,226.283 293.084 M224.046 299.467 C 224.021 299.724,223.884 300.264,223.741 300.667 C 223.540 301.236,223.594 301.297,223.979 300.942 C 224.252 300.691,224.389 300.151,224.284 299.742 C 224.179 299.334,224.072 299.210,224.046 299.467 M219.000 314.000 C 218.850 314.473,218.817 314.950,218.927 315.060 C 219.037 315.170,219.250 314.873,219.400 314.400 C 219.550 313.927,219.583 313.450,219.473 313.340 C 219.363 313.230,219.150 313.527,219.000 314.000 M218.200 316.400 C 218.050 316.873,218.017 317.350,218.127 317.460 C 218.237 317.570,218.450 317.273,218.600 316.800 C 218.750 316.327,218.783 315.850,218.673 315.740 C 218.563 315.630,218.350 315.927,218.200 316.400 M215.834 323.243 C 215.732 323.549,215.084 325.481,214.394 327.536 C 213.704 329.591,213.208 331.342,213.293 331.427 C 213.378 331.511,214.106 329.659,214.910 327.310 C 215.715 324.962,216.293 322.960,216.196 322.863 C 216.099 322.765,215.936 322.936,215.834 323.243 M212.611 332.500 C 212.520 332.775,212.146 333.900,211.780 335.000 C 210.667 338.342,210.399 339.364,210.737 338.973 C 210.915 338.768,211.305 337.790,211.602 336.800 C 211.900 335.810,212.268 334.820,212.418 334.600 C 212.740 334.130,213.161 332.000,212.932 332.000 C 212.846 332.000,212.701 332.225,212.611 332.500 M209.457 341.600 C 208.172 345.467,208.034 346.026,208.426 345.784 C 208.632 345.657,208.800 345.214,208.800 344.800 C 208.800 344.386,208.980 343.936,209.200 343.800 C 209.420 343.664,209.600 343.149,209.600 342.656 C 209.600 342.163,209.797 341.563,210.038 341.322 C 210.278 341.082,210.410 340.551,210.331 340.142 C 210.244 339.690,209.902 340.260,209.457 341.600 M206.846 349.067 C 206.821 349.324,206.684 349.864,206.541 350.267 C 206.340 350.836,206.394 350.897,206.779 350.542 C 207.052 350.291,207.189 349.751,207.084 349.342 C 206.979 348.934,206.872 348.810,206.846 349.067 M201.772 363.843 C 201.636 364.259,201.376 365.050,201.193 365.600 C 200.565 367.491,200.323 369.695,200.774 369.416 C 201.009 369.271,201.200 368.646,201.200 368.027 C 201.200 367.407,201.472 366.130,201.804 365.188 C 202.137 364.246,202.321 363.388,202.214 363.280 C 202.107 363.173,201.908 363.426,201.772 363.843 " stroke="none" fill="#fccc74" fill-rule="evenodd"></path><path id="path2" d="M200.400 30.711 C 200.400 31.622,200.735 32.094,207.003 40.000 C 209.881 43.630,213.199 47.843,214.375 49.362 C 215.552 50.881,216.755 52.411,217.050 52.762 C 217.821 53.680,227.468 65.937,228.729 67.600 C 229.861 69.094,234.423 74.885,235.485 76.176 C 235.836 76.603,236.892 77.953,237.832 79.176 C 238.772 80.399,241.807 84.273,244.575 87.784 C 247.344 91.295,250.012 94.702,250.505 95.355 C 250.997 96.008,251.850 97.093,252.400 97.766 C 253.982 99.701,254.084 99.830,259.869 107.200 C 280.945 134.052,280.742 133.800,281.301 133.800 C 281.494 133.800,282.550 131.190,283.648 128.000 C 285.933 121.362,288.858 112.905,290.981 106.800 C 291.784 104.490,292.889 101.250,293.437 99.600 C 293.985 97.950,294.595 96.240,294.792 95.800 C 294.990 95.360,295.718 93.290,296.412 91.200 C 297.105 89.110,297.828 87.040,298.019 86.600 C 298.210 86.160,298.813 84.450,299.359 82.800 C 299.905 81.150,301.451 76.650,302.796 72.800 C 304.141 68.950,306.238 62.858,307.456 59.262 C 308.675 55.667,310.207 51.257,310.861 49.462 C 311.515 47.668,312.493 44.850,313.034 43.200 C 313.575 41.550,314.194 39.887,314.409 39.505 C 314.624 39.123,314.800 38.562,314.800 38.259 C 314.800 37.671,315.972 34.506,317.228 31.700 L 317.990 30.000 259.195 30.000 C 203.120 30.000,200.400 30.033,200.400 30.711 M281.229 136.300 C 280.929 137.345,280.562 138.380,280.414 138.600 C 280.266 138.820,279.900 139.810,279.602 140.800 C 279.305 141.790,278.912 142.771,278.730 142.980 C 278.549 143.189,278.400 143.763,278.400 144.256 C 278.400 144.749,278.256 145.242,278.079 145.351 C 277.903 145.460,277.507 146.472,277.200 147.600 C 276.893 148.728,276.497 149.740,276.321 149.849 C 276.144 149.958,276.000 150.476,276.000 151.000 C 276.000 151.524,275.820 152.064,275.600 152.200 C 275.380 152.336,275.200 152.876,275.200 153.400 C 275.200 153.924,275.056 154.442,274.879 154.551 C 274.703 154.660,274.307 155.672,274.000 156.800 C 273.693 157.928,273.297 158.940,273.121 159.049 C 272.944 159.158,272.800 159.599,272.800 160.029 C 272.800 160.459,272.627 161.123,272.415 161.505 C 272.046 162.170,269.365 169.936,265.961 180.200 C 265.086 182.840,264.208 185.360,264.011 185.800 C 263.814 186.240,263.272 187.770,262.807 189.200 C 262.343 190.630,261.791 192.113,261.581 192.495 C 261.371 192.877,261.200 193.541,261.200 193.971 C 261.200 194.401,261.056 194.842,260.879 194.951 C 260.703 195.060,260.307 196.072,260.000 197.200 C 259.693 198.328,259.297 199.340,259.121 199.449 C 258.944 199.558,258.800 200.076,258.800 200.600 C 258.800 201.124,258.656 201.642,258.479 201.751 C 258.303 201.860,257.907 202.872,257.600 204.000 C 257.293 205.128,256.897 206.140,256.721 206.249 C 256.544 206.358,256.400 206.876,256.400 207.400 C 256.400 207.924,256.220 208.464,256.000 208.600 C 255.780 208.736,255.600 209.199,255.600 209.629 C 255.600 210.059,255.424 210.723,255.210 211.105 C 254.995 211.487,253.576 215.490,252.055 220.000 C 250.535 224.510,248.723 229.820,248.030 231.800 C 247.337 233.780,246.319 236.750,245.768 238.400 C 245.217 240.050,244.606 241.760,244.409 242.200 C 244.213 242.640,243.672 244.170,243.207 245.600 C 242.743 247.030,242.191 248.513,241.981 248.895 C 241.771 249.277,241.600 249.941,241.600 250.371 C 241.600 250.801,241.420 251.264,241.200 251.400 C 240.980 251.536,240.800 251.999,240.800 252.429 C 240.800 252.859,240.629 253.523,240.419 253.905 C 240.209 254.287,239.657 255.770,239.193 257.200 C 238.728 258.630,238.186 260.160,237.989 260.600 C 237.792 261.040,237.005 263.290,236.240 265.600 C 233.266 274.580,230.754 281.831,230.385 282.495 C 230.173 282.877,230.000 283.516,230.000 283.915 C 230.000 284.314,229.852 284.811,229.672 285.020 C 229.492 285.229,228.918 286.750,228.398 288.400 C 227.877 290.050,227.337 291.580,227.198 291.800 C 227.058 292.020,226.700 293.010,226.402 294.000 C 226.105 294.990,225.712 295.971,225.530 296.180 C 225.349 296.389,225.200 296.963,225.200 297.456 C 225.200 297.949,225.020 298.464,224.800 298.600 C 224.580 298.736,224.400 299.276,224.400 299.800 C 224.400 300.324,224.256 300.842,224.079 300.951 C 223.903 301.060,223.507 302.072,223.200 303.200 C 222.893 304.328,222.497 305.340,222.321 305.449 C 222.144 305.558,222.000 306.076,222.000 306.600 C 222.000 307.124,221.820 307.664,221.600 307.800 C 221.380 307.936,221.200 308.399,221.200 308.829 C 221.200 309.259,221.027 309.923,220.815 310.305 C 220.604 310.687,219.768 312.980,218.957 315.400 C 218.146 317.820,216.502 322.590,215.304 326.000 C 214.105 329.410,213.028 332.650,212.909 333.200 C 212.790 333.750,212.569 334.380,212.418 334.600 C 212.268 334.820,211.900 335.810,211.602 336.800 C 211.305 337.790,210.912 338.771,210.730 338.980 C 210.549 339.189,210.400 339.763,210.400 340.256 C 210.400 340.749,210.220 341.264,210.000 341.400 C 209.780 341.536,209.600 341.999,209.600 342.429 C 209.600 342.859,209.420 343.568,209.200 344.005 C 208.980 344.442,208.620 345.158,208.400 345.595 C 208.180 346.032,208.000 346.741,208.000 347.171 C 208.000 347.601,207.820 348.064,207.600 348.200 C 207.380 348.336,207.200 348.799,207.200 349.229 C 207.200 349.659,207.029 350.323,206.819 350.705 C 206.609 351.087,206.057 352.570,205.593 354.000 C 205.128 355.430,204.585 356.960,204.386 357.400 C 203.668 358.987,201.200 366.974,201.200 367.709 C 201.200 368.403,201.288 368.390,202.348 367.530 C 202.979 367.019,203.427 366.479,203.343 366.331 C 203.259 366.182,203.733 365.675,204.395 365.203 C 205.058 364.732,205.600 364.152,205.600 363.916 C 205.600 363.680,206.095 362.993,206.700 362.391 C 207.305 361.788,208.240 360.715,208.777 360.007 C 209.314 359.299,210.259 358.179,210.877 357.518 C 211.495 356.856,212.000 356.251,212.000 356.171 C 212.000 356.092,212.495 355.509,213.100 354.876 C 214.997 352.889,216.000 351.609,216.000 351.173 C 216.000 350.942,216.180 350.864,216.400 351.000 C 216.620 351.136,216.800 351.082,216.800 350.880 C 216.800 350.677,217.385 349.863,218.100 349.071 C 220.842 346.031,221.481 345.215,221.277 345.011 C 221.162 344.895,221.367 344.800,221.733 344.800 C 222.100 344.800,222.400 344.631,222.400 344.425 C 222.400 344.218,222.932 343.467,223.581 342.756 C 224.231 342.045,224.670 341.314,224.558 341.131 C 224.445 340.949,224.516 340.800,224.715 340.800 C 225.203 340.800,226.797 339.396,226.811 338.953 C 226.818 338.759,227.538 337.797,228.411 336.814 C 229.285 335.832,230.000 334.857,230.000 334.648 C 230.000 334.438,230.109 334.376,230.242 334.509 C 230.524 334.791,232.400 333.015,232.400 332.467 C 232.400 332.263,233.300 331.153,234.400 330.000 C 235.500 328.847,236.400 327.805,236.400 327.685 C 236.400 327.464,236.561 327.278,238.896 324.800 C 239.622 324.030,240.748 322.680,241.398 321.800 C 242.048 320.920,243.080 319.703,243.690 319.097 C 244.301 318.490,244.800 317.893,244.800 317.771 C 244.800 317.649,245.247 317.065,245.794 316.474 C 246.340 315.884,247.780 314.329,248.994 313.019 C 250.207 311.710,251.200 310.477,251.200 310.280 C 251.200 310.082,251.734 309.422,252.386 308.813 C 253.038 308.204,253.458 307.592,253.319 307.453 C 253.180 307.314,253.377 307.200,253.757 307.200 C 254.137 307.200,254.336 307.020,254.200 306.800 C 254.064 306.580,254.141 306.400,254.372 306.400 C 254.602 306.400,255.575 305.322,256.534 304.005 C 257.492 302.688,258.394 301.728,258.538 301.872 C 258.682 302.016,258.800 301.823,258.800 301.443 C 258.800 301.063,258.980 300.864,259.200 301.000 C 259.420 301.136,259.600 300.967,259.600 300.624 C 259.600 300.281,259.780 300.000,260.000 300.000 C 260.220 300.000,260.400 299.802,260.400 299.560 C 260.400 299.319,261.300 298.239,262.400 297.162 C 263.500 296.085,264.400 295.030,264.400 294.818 C 264.400 294.606,265.102 293.717,265.959 292.842 C 266.816 291.967,267.416 291.150,267.292 291.026 C 267.168 290.902,267.367 290.800,267.733 290.800 C 268.100 290.800,268.400 290.654,268.400 290.475 C 268.400 290.297,268.764 289.760,269.208 289.283 C 269.653 288.806,270.013 288.322,270.008 288.208 C 270.004 288.093,270.093 288.003,270.207 288.006 C 270.556 288.016,272.800 285.320,272.800 284.890 C 272.800 284.668,273.096 284.372,273.457 284.233 C 273.819 284.095,274.000 283.867,273.860 283.726 C 273.720 283.586,273.964 283.220,274.403 282.913 C 274.841 282.606,275.200 282.084,275.200 281.754 C 275.200 281.423,275.335 281.235,275.500 281.334 C 275.891 281.571,276.826 280.560,276.509 280.243 C 276.376 280.109,276.577 280.000,276.957 280.000 C 277.337 280.000,277.548 279.839,277.426 279.642 C 277.304 279.445,277.474 279.181,277.802 279.054 C 278.131 278.928,278.400 278.628,278.400 278.387 C 278.400 278.145,279.312 277.060,280.427 275.974 C 281.541 274.888,282.342 274.000,282.206 274.000 C 282.070 274.000,282.418 273.574,282.979 273.054 C 283.541 272.534,284.000 271.874,284.000 271.587 C 284.000 271.301,284.109 271.176,284.243 271.309 C 284.547 271.613,285.576 270.699,285.350 270.326 C 285.259 270.175,286.251 268.915,287.555 267.526 C 291.245 263.595,291.529 263.263,291.357 263.090 C 291.268 263.002,292.187 261.906,293.398 260.655 C 294.609 259.405,295.600 258.207,295.600 257.994 C 295.600 257.781,295.960 257.382,296.400 257.107 C 296.840 256.832,297.200 256.351,297.200 256.037 C 297.200 255.723,297.301 255.568,297.424 255.691 C 297.633 255.900,299.600 254.178,299.600 253.786 C 299.600 253.534,300.789 252.111,302.273 250.587 C 302.974 249.868,303.439 249.172,303.307 249.040 C 303.175 248.908,303.397 248.800,303.800 248.800 C 304.203 248.800,304.428 248.695,304.299 248.566 C 304.088 248.354,304.904 247.220,306.329 245.747 C 306.619 245.446,306.756 245.200,306.632 245.200 C 306.509 245.200,306.946 244.686,307.604 244.057 C 308.262 243.428,308.800 242.728,308.800 242.502 C 308.800 242.275,309.338 241.665,309.996 241.145 C 310.654 240.625,311.194 239.987,311.196 239.727 C 311.198 239.467,311.560 239.140,312.000 239.000 C 312.440 238.860,312.800 238.597,312.800 238.414 C 312.800 238.040,314.359 236.109,316.300 234.079 C 317.015 233.332,317.600 232.547,317.600 232.336 C 317.600 232.125,317.767 232.056,317.971 232.182 C 318.175 232.308,318.465 232.004,318.616 231.506 C 318.766 231.008,319.316 230.222,319.838 229.760 C 320.359 229.297,320.669 228.802,320.526 228.660 C 320.383 228.517,320.577 228.400,320.957 228.400 C 321.337 228.400,321.536 228.220,321.400 228.000 C 321.264 227.780,321.433 227.600,321.776 227.600 C 322.119 227.600,322.400 227.370,322.400 227.089 C 322.400 226.808,322.768 226.263,323.217 225.878 C 323.666 225.493,323.926 225.003,323.793 224.789 C 323.661 224.575,323.735 224.400,323.958 224.400 C 324.518 224.400,328.400 220.349,328.400 219.764 C 328.400 219.630,328.940 219.017,329.600 218.400 C 330.260 217.783,330.800 217.160,330.800 217.014 C 330.800 216.759,331.520 215.932,334.300 212.999 C 335.015 212.244,335.600 211.411,335.600 211.147 C 335.600 210.883,335.719 210.786,335.865 210.931 C 336.010 211.077,336.587 210.522,337.146 209.698 C 337.705 208.874,338.531 207.891,338.981 207.513 C 339.432 207.136,339.654 206.821,339.475 206.813 C 339.296 206.806,339.606 206.305,340.164 205.700 C 343.603 201.969,344.400 201.034,344.400 200.735 C 344.400 200.551,344.670 200.400,345.000 200.400 C 345.330 200.400,345.600 200.130,345.600 199.800 C 345.600 199.470,345.780 199.200,346.000 199.200 C 346.220 199.200,346.400 199.002,346.400 198.760 C 346.400 198.519,346.934 197.822,347.586 197.213 C 348.238 196.604,348.658 195.992,348.519 195.853 C 348.380 195.714,348.567 195.600,348.933 195.600 C 349.300 195.600,349.555 195.375,349.500 195.100 C 349.445 194.825,349.625 194.645,349.900 194.700 C 350.175 194.755,350.400 194.543,350.400 194.229 C 350.400 193.720,351.064 192.925,355.020 188.700 C 355.587 188.095,355.955 187.600,355.839 187.600 C 355.722 187.600,356.161 187.054,356.813 186.386 C 357.466 185.719,358.000 184.988,358.000 184.763 C 358.000 184.537,358.180 184.464,358.400 184.600 C 358.620 184.736,358.800 184.567,358.800 184.224 C 358.800 183.881,358.980 183.600,359.200 183.600 C 359.420 183.600,359.600 183.411,359.600 183.181 C 359.600 182.950,360.500 181.862,361.600 180.762 C 362.700 179.662,363.600 178.595,363.600 178.390 C 363.600 178.186,364.500 177.075,365.600 175.922 C 366.700 174.769,367.600 173.594,367.600 173.313 C 367.600 173.031,367.758 172.845,367.951 172.900 C 368.357 173.015,370.800 170.580,370.800 170.060 C 370.800 169.868,371.250 169.374,371.800 168.961 C 372.350 168.548,372.800 168.053,372.800 167.861 C 372.800 167.502,373.515 166.648,376.100 163.920 C 376.925 163.049,377.600 162.187,377.600 162.003 C 377.600 161.820,378.680 160.573,380.000 159.232 C 381.320 157.892,382.400 156.648,382.400 156.469 C 382.400 156.291,382.805 155.780,383.300 155.335 C 383.795 154.889,384.830 153.764,385.600 152.833 C 386.370 151.902,387.394 150.723,387.876 150.213 C 388.357 149.702,388.642 149.176,388.509 149.042 C 388.376 148.909,388.577 148.800,388.957 148.800 C 389.337 148.800,389.536 148.620,389.400 148.400 C 389.264 148.180,389.348 148.000,389.586 148.000 C 389.825 148.000,390.191 147.550,390.400 147.000 C 390.609 146.450,390.965 146.000,391.190 146.000 C 391.416 146.000,391.600 145.806,391.600 145.569 C 391.600 145.331,392.320 144.446,393.200 143.600 C 394.080 142.754,394.800 141.870,394.800 141.635 C 394.800 141.399,395.160 140.982,395.600 140.707 C 396.040 140.432,396.400 139.970,396.400 139.680 C 396.400 139.390,396.580 139.264,396.800 139.400 C 397.020 139.536,397.200 139.356,397.200 139.000 C 397.200 138.644,397.380 138.464,397.600 138.600 C 397.820 138.736,398.000 138.556,398.000 138.200 C 398.000 137.844,398.180 137.664,398.400 137.800 C 398.620 137.936,398.800 137.786,398.800 137.466 C 398.800 137.147,399.029 136.798,399.309 136.690 C 399.589 136.583,399.857 136.024,399.904 135.448 L 399.991 134.400 340.883 134.400 L 281.775 134.400 281.229 136.300 " stroke="none" fill="#fce383" fill-rule="evenodd"></path><path id="path3" d="M82.802 30.500 C 82.803 30.775,83.320 32.440,83.950 34.200 C 84.580 35.960,85.665 39.110,86.362 41.200 C 87.058 43.290,87.802 45.313,88.014 45.695 C 88.226 46.077,88.400 46.716,88.400 47.115 C 88.400 47.514,88.548 48.011,88.728 48.220 C 88.908 48.429,89.481 49.950,90.000 51.600 C 90.519 53.250,91.092 54.771,91.272 54.980 C 91.452 55.189,91.600 55.686,91.600 56.085 C 91.600 56.484,91.774 57.123,91.987 57.505 C 92.200 57.887,92.639 59.010,92.963 60.000 C 93.286 60.990,94.742 65.220,96.198 69.400 C 97.653 73.580,99.656 79.430,100.648 82.400 C 101.640 85.370,102.608 88.160,102.800 88.600 C 102.991 89.040,103.531 90.570,104.000 92.000 C 104.469 93.430,105.011 94.960,105.205 95.400 C 105.399 95.840,106.113 97.910,106.792 100.000 C 107.472 102.090,108.202 104.113,108.414 104.495 C 108.626 104.877,108.800 105.464,108.800 105.800 C 108.800 106.136,108.972 106.723,109.183 107.105 C 109.554 107.778,111.015 111.910,113.811 120.200 C 117.152 130.107,118.365 133.388,118.730 133.510 C 118.946 133.582,120.312 132.147,121.764 130.320 C 126.996 123.743,127.623 122.950,130.292 119.539 C 131.782 117.635,134.469 114.215,136.264 111.939 C 138.059 109.662,141.360 105.460,143.598 102.600 C 145.837 99.740,147.970 97.040,148.339 96.600 C 148.708 96.160,149.900 94.630,150.989 93.200 C 152.078 91.770,154.471 88.710,156.307 86.400 C 158.143 84.090,159.860 81.929,160.122 81.599 C 160.385 81.268,161.230 80.189,162.000 79.200 C 162.770 78.211,163.619 77.132,163.887 76.801 C 164.155 76.471,166.638 73.320,169.403 69.800 C 172.169 66.280,174.650 63.129,174.916 62.799 C 175.182 62.468,176.030 61.389,176.800 60.400 C 177.570 59.411,178.420 58.332,178.689 58.001 C 178.959 57.671,180.579 55.598,182.289 53.395 C 185.497 49.265,187.903 46.217,195.300 36.910 C 197.665 33.935,199.600 31.163,199.600 30.750 C 199.600 30.020,198.045 30.000,141.200 30.000 C 94.746 30.000,82.800 30.102,82.802 30.500 M118.612 134.813 C 118.917 135.150,119.706 137.040,120.364 139.013 C 121.023 140.986,122.098 144.130,122.754 146.000 C 126.358 156.275,129.404 165.085,130.637 168.800 C 131.403 171.110,132.196 173.360,132.399 173.800 C 132.601 174.240,133.213 175.950,133.759 177.600 C 135.019 181.407,136.756 186.361,137.195 187.400 C 137.381 187.840,137.625 188.560,137.737 189.000 C 137.849 189.440,138.515 191.420,139.216 193.400 C 139.917 195.380,141.738 200.690,143.263 205.200 C 144.787 209.710,146.197 213.760,146.396 214.200 C 146.595 214.640,147.316 216.710,148.000 218.800 C 148.684 220.890,149.404 222.960,149.600 223.400 C 149.796 223.840,150.516 225.910,151.200 228.000 C 151.884 230.090,152.601 232.160,152.795 232.600 C 152.989 233.040,153.531 234.570,154.000 236.000 C 154.469 237.430,155.008 238.960,155.198 239.400 C 155.388 239.840,156.300 242.450,157.224 245.200 C 159.259 251.254,161.269 257.078,163.991 264.800 C 165.116 267.990,166.665 272.490,167.433 274.800 C 168.202 277.110,168.996 279.360,169.199 279.800 C 169.401 280.240,170.012 281.950,170.557 283.600 C 171.102 285.250,172.922 290.560,174.602 295.400 C 176.282 300.240,178.102 305.550,178.645 307.200 C 179.189 308.850,179.798 310.560,180.000 311.000 C 180.202 311.440,180.817 313.150,181.367 314.800 C 182.289 317.566,183.863 322.113,189.260 337.600 C 190.371 340.790,191.519 344.120,191.812 345.000 C 192.104 345.880,193.445 349.750,194.792 353.600 C 198.538 364.307,199.599 367.593,199.613 368.536 C 199.624 369.263,201.379 364.454,204.554 355.000 C 204.923 353.900,205.400 352.687,205.613 352.305 C 205.826 351.923,206.000 351.259,206.000 350.829 C 206.000 350.399,206.144 349.958,206.321 349.849 C 206.497 349.740,206.893 348.728,207.200 347.600 C 207.507 346.472,207.903 345.460,208.079 345.351 C 208.256 345.242,208.400 344.724,208.400 344.200 C 208.400 343.676,208.580 343.136,208.800 343.000 C 209.020 342.864,209.200 342.401,209.200 341.971 C 209.200 341.541,209.374 340.877,209.586 340.495 C 209.798 340.113,210.528 338.090,211.208 336.000 C 211.887 333.910,212.603 331.840,212.799 331.400 C 213.178 330.549,216.330 321.376,218.640 314.400 C 219.405 312.090,220.192 309.840,220.389 309.400 C 220.586 308.960,221.128 307.430,221.593 306.000 C 222.057 304.570,222.609 303.087,222.819 302.705 C 223.029 302.323,223.200 301.659,223.200 301.229 C 223.200 300.799,223.344 300.358,223.521 300.249 C 223.697 300.140,224.093 299.128,224.400 298.000 C 224.707 296.872,225.103 295.860,225.279 295.751 C 225.456 295.642,225.600 295.124,225.600 294.600 C 225.600 294.076,225.780 293.536,226.000 293.400 C 226.220 293.264,226.400 292.801,226.400 292.371 C 226.400 291.941,226.576 291.277,226.791 290.895 C 227.006 290.513,227.630 288.850,228.178 287.200 C 228.725 285.550,230.541 280.240,232.211 275.400 C 233.882 270.560,235.696 265.250,236.241 263.600 C 236.787 261.950,237.394 260.240,237.591 259.800 C 237.787 259.360,238.328 257.830,238.793 256.400 C 239.257 254.970,239.809 253.487,240.019 253.105 C 240.229 252.723,240.400 252.059,240.400 251.629 C 240.400 251.199,240.544 250.758,240.721 250.649 C 240.897 250.540,241.293 249.528,241.600 248.400 C 241.907 247.272,242.303 246.260,242.479 246.151 C 242.656 246.042,242.800 245.601,242.800 245.171 C 242.800 244.741,242.977 244.077,243.192 243.695 C 243.408 243.313,244.206 241.110,244.966 238.800 C 245.725 236.490,247.540 231.180,248.998 227.000 C 250.456 222.820,252.096 218.050,252.641 216.400 C 253.187 214.750,253.794 213.040,253.991 212.600 C 254.187 212.160,254.728 210.630,255.193 209.200 C 255.657 207.770,256.209 206.287,256.419 205.905 C 256.629 205.523,256.800 204.859,256.800 204.429 C 256.800 203.999,256.980 203.536,257.200 203.400 C 257.420 203.264,257.600 202.801,257.600 202.371 C 257.600 201.941,257.780 201.232,258.000 200.795 C 258.220 200.358,258.580 199.642,258.800 199.205 C 259.020 198.768,259.200 198.059,259.200 197.629 C 259.200 197.199,259.380 196.736,259.600 196.600 C 259.820 196.464,260.000 195.924,260.000 195.400 C 260.000 194.876,260.180 194.336,260.400 194.200 C 260.620 194.064,260.800 193.524,260.800 193.000 C 260.800 192.476,260.944 191.958,261.121 191.849 C 261.297 191.740,261.693 190.728,262.000 189.600 C 262.307 188.472,262.703 187.460,262.879 187.351 C 263.056 187.242,263.200 186.801,263.200 186.371 C 263.200 185.941,263.376 185.277,263.591 184.895 C 263.807 184.513,264.508 182.580,265.151 180.600 C 267.320 173.917,270.824 163.805,271.213 163.105 C 271.426 162.723,271.600 162.059,271.600 161.629 C 271.600 161.199,271.744 160.758,271.921 160.649 C 272.097 160.540,272.493 159.528,272.800 158.400 C 273.107 157.272,273.503 156.260,273.679 156.151 C 273.856 156.042,274.000 155.524,274.000 155.000 C 274.000 154.476,274.144 153.958,274.321 153.849 C 274.497 153.740,274.893 152.728,275.200 151.600 C 275.507 150.472,275.903 149.460,276.079 149.351 C 276.256 149.242,276.400 148.724,276.400 148.200 C 276.400 147.676,276.580 147.136,276.800 147.000 C 277.020 146.864,277.200 146.349,277.200 145.856 C 277.200 145.363,277.346 144.789,277.525 144.580 C 278.024 143.996,280.982 134.849,280.748 134.614 C 280.144 134.010,118.065 134.209,118.612 134.813 " stroke="none" fill="#fcac64" fill-rule="evenodd"></path><path id="path4" d="M199.654 30.650 C 199.625 31.118,197.665 33.935,195.300 36.910 C 187.903 46.217,185.497 49.265,182.289 53.395 C 180.579 55.598,178.959 57.671,178.689 58.001 C 178.420 58.332,177.570 59.411,176.800 60.400 C 176.030 61.389,175.182 62.468,174.916 62.799 C 174.650 63.129,172.169 66.280,169.403 69.800 C 166.638 73.320,164.155 76.471,163.887 76.801 C 163.619 77.132,162.770 78.211,162.000 79.200 C 161.230 80.189,160.385 81.268,160.122 81.599 C 159.860 81.929,158.143 84.090,156.307 86.400 C 154.471 88.710,152.078 91.770,150.989 93.200 C 149.900 94.630,148.708 96.160,148.339 96.600 C 147.970 97.040,145.837 99.740,143.598 102.600 C 141.360 105.460,138.059 109.662,136.264 111.939 C 134.469 114.215,131.782 117.635,130.292 119.539 C 127.623 122.950,126.996 123.743,121.764 130.320 C 118.544 134.369,118.693 134.414,116.776 128.830 C 115.360 124.708,114.800 123.377,114.800 124.138 C 114.800 124.287,115.520 126.497,116.400 129.049 C 117.280 131.601,118.000 133.758,118.000 133.843 C 118.000 133.928,91.405 134.043,58.900 134.099 C 26.395 134.155,62.980 134.201,140.200 134.202 C 247.564 134.202,261.661 134.155,200.110 134.001 L 119.620 133.800 120.910 132.161 C 121.620 131.260,122.650 129.923,123.200 129.190 C 123.750 128.457,124.650 127.307,125.200 126.634 C 126.773 124.710,126.895 124.556,132.210 117.800 C 134.979 114.280,137.459 111.129,137.722 110.799 C 137.985 110.468,138.830 109.389,139.600 108.400 C 140.370 107.411,141.220 106.332,141.489 106.001 C 141.757 105.671,144.157 102.610,146.822 99.200 C 149.487 95.790,151.969 92.640,152.337 92.200 C 152.706 91.760,154.175 89.871,155.603 88.002 C 157.032 86.134,158.527 84.244,158.926 83.802 C 159.325 83.361,160.405 82.010,161.325 80.800 C 162.245 79.590,163.097 78.510,163.218 78.400 C 163.338 78.290,164.327 77.030,165.414 75.600 C 166.501 74.170,167.609 72.730,167.877 72.400 C 168.948 71.079,172.259 66.848,173.200 65.600 C 173.750 64.870,174.392 64.077,174.627 63.837 C 174.862 63.596,175.673 62.590,176.430 61.600 C 177.186 60.610,179.064 58.207,180.603 56.260 C 186.942 48.239,188.648 46.063,189.600 44.787 C 190.150 44.049,191.415 42.446,192.410 41.223 C 198.300 33.991,200.044 31.529,199.880 30.680 C 199.712 29.816,199.708 29.815,199.654 30.650 M82.454 31.500 C 82.693 32.105,83.746 35.030,84.794 38.000 C 85.843 40.970,86.800 43.670,86.921 44.000 C 87.043 44.330,87.524 45.770,87.990 47.200 C 88.456 48.630,89.009 50.113,89.219 50.495 C 89.429 50.877,89.600 51.541,89.600 51.971 C 89.600 52.401,89.780 52.864,90.000 53.000 C 90.220 53.136,90.400 53.599,90.400 54.029 C 90.400 54.459,90.559 55.123,90.753 55.505 C 91.350 56.679,91.886 58.119,92.424 60.000 C 92.707 60.990,93.088 61.971,93.270 62.180 C 93.451 62.389,93.600 62.963,93.600 63.456 C 93.600 63.949,93.744 64.442,93.921 64.551 C 94.097 64.660,94.493 65.672,94.800 66.800 C 95.107 67.928,95.503 68.940,95.679 69.049 C 95.856 69.158,96.000 69.599,96.000 70.029 C 96.000 70.459,96.176 71.123,96.392 71.505 C 96.607 71.887,97.219 73.550,97.751 75.200 C 98.283 76.850,100.097 82.160,101.782 87.000 C 103.466 91.840,105.110 96.610,105.435 97.600 C 105.760 98.590,106.200 99.713,106.413 100.095 C 106.626 100.477,106.800 101.141,106.800 101.571 C 106.800 102.001,106.980 102.464,107.200 102.600 C 107.420 102.736,107.600 103.199,107.600 103.629 C 107.600 104.059,107.780 104.768,108.000 105.205 C 108.220 105.642,108.580 106.358,108.800 106.795 C 109.020 107.232,109.200 107.941,109.200 108.371 C 109.200 108.801,109.380 109.264,109.600 109.400 C 109.820 109.536,110.000 110.076,110.000 110.600 C 110.000 111.124,110.144 111.642,110.321 111.751 C 110.497 111.860,110.893 112.872,111.200 114.000 C 111.507 115.128,111.903 116.140,112.079 116.249 C 112.256 116.358,112.400 116.851,112.400 117.344 C 112.400 117.837,112.552 118.411,112.737 118.620 C 112.923 118.829,113.393 120.045,113.782 121.322 C 114.170 122.600,114.574 123.559,114.679 123.454 C 114.784 123.350,114.325 121.675,113.660 119.732 C 110.117 109.384,109.535 107.742,109.183 107.105 C 108.972 106.723,108.800 106.136,108.800 105.800 C 108.800 105.464,108.626 104.877,108.414 104.495 C 108.202 104.113,107.472 102.090,106.792 100.000 C 106.113 97.910,105.399 95.840,105.205 95.400 C 105.011 94.960,104.469 93.430,104.000 92.000 C 103.531 90.570,102.991 89.040,102.800 88.600 C 102.608 88.160,101.640 85.370,100.648 82.400 C 99.656 79.430,97.653 73.580,96.198 69.400 C 94.742 65.220,93.286 60.990,92.963 60.000 C 92.639 59.010,92.200 57.887,91.987 57.505 C 91.774 57.123,91.600 56.484,91.600 56.085 C 91.600 55.686,91.452 55.189,91.272 54.980 C 91.092 54.771,90.519 53.250,90.000 51.600 C 89.481 49.950,88.908 48.429,88.728 48.220 C 88.548 48.011,88.400 47.514,88.400 47.115 C 88.400 46.716,88.227 46.077,88.016 45.695 C 87.686 45.097,85.426 38.666,83.310 32.300 C 82.963 31.255,82.530 30.400,82.349 30.400 C 82.168 30.400,82.215 30.895,82.454 31.500 M270.955 163.500 C 270.834 163.885,270.570 164.613,270.367 165.119 C 270.165 165.624,270.011 166.254,270.025 166.519 C 270.039 166.783,270.238 166.550,270.466 166.000 C 271.097 164.480,271.567 162.800,271.360 162.800 C 271.258 162.800,271.076 163.115,270.955 163.500 M237.416 260.100 C 237.329 260.375,236.868 261.738,236.392 263.130 C 235.916 264.521,235.605 265.738,235.701 265.834 C 235.797 265.930,236.190 265.062,236.575 263.904 C 237.710 260.488,237.955 259.600,237.760 259.600 C 237.658 259.600,237.504 259.825,237.416 260.100 M220.155 309.900 C 220.034 310.285,219.770 311.013,219.567 311.519 C 219.365 312.024,219.211 312.654,219.225 312.919 C 219.239 313.183,219.438 312.950,219.666 312.400 C 220.297 310.880,220.767 309.200,220.560 309.200 C 220.458 309.200,220.276 309.515,220.155 309.900 M203.025 359.296 C 201.852 362.824,201.600 363.763,201.929 363.373 C 202.369 362.852,204.095 357.562,203.891 357.358 C 203.800 357.266,203.410 358.138,203.025 359.296 M200.155 367.900 C 199.930 368.774,199.555 369.354,199.255 369.290 C 198.948 369.225,198.859 369.372,199.034 369.655 C 199.451 370.330,200.800 368.573,200.800 367.356 C 200.800 366.000,200.601 366.169,200.155 367.900 " stroke="none" fill="#fcbf6c" fill-rule="evenodd"></path></g></svg>